G04 start of page 3 for group 1 idx 3
G04 Title: (unknown), component *
G04 Creator: pcb-bin 20060822 *
G04 CreationDate: Mon Jun 23 06:34:48 2008 UTC *
G04 For: pete *
G04 Format: Gerber/RS-274X *
G04 PCB-Dimensions: 1500000 500000 *
G04 PCB-Coordinate-Origin: lower left *
%MOIN*%
%FSLAX24Y24*%
%LNGROUP1*%
%ADD11C,0.0200*%
%ADD12R,0.1520X0.1520*%
%ADD13C,0.0600*%
%ADD14C,0.0150*%
%ADD15C,0.0300*%
%ADD16C,0.1000*%
%ADD17R,0.0800X0.0800*%
%ADD18C,0.0500*%
%ADD19R,0.0500X0.0500*%
%ADD20R,0.0600X0.0600*%
%ADD21C,0.0400*%
%ADD22C,0.3120*%
%ADD23R,0.0512X0.0512*%
%ADD24R,0.0560X0.0560*%
%ADD25R,0.1220X0.1220*%
%ADD26R,0.0340X0.0340*%
%ADD27R,0.0200X0.0200*%
%ADD28R,0.1450X0.1450*%
%ADD29R,0.0709X0.0709*%
%ADD30R,0.0490X0.0490*%
%ADD31R,0.0690X0.0690*%
%ADD32C,0.0420*%
%ADD33C,0.0280*%
%ADD34C,0.0350*%
%ADD35C,0.2188*%
G54D11*G36*
X140000Y18250D02*X142750D01*
Y22750D01*
X140000D01*
Y18250D01*
G37*
G36*
X77000Y10500D02*X73500D01*
Y7750D01*
X77000D01*
Y10500D01*
G37*
G36*
X45000D02*X41500D01*
Y7750D01*
X45000D01*
Y10500D01*
G37*
G36*
X109000D02*X105500D01*
Y7750D01*
X109000D01*
Y10500D01*
G37*
G36*
X13000D02*X9500D01*
Y7750D01*
X13000D01*
Y10500D01*
G37*
G54D12*%LNGROUP1_C1*%
%LPC*%
X76310Y9600D02*Y8700D01*
X44310Y9600D02*Y8700D01*
X108310Y9600D02*Y8700D01*
X12310Y9600D02*Y8700D01*
G54D13*X142500Y18750D03*
Y19750D03*
X142250Y19250D03*
X142000Y19750D03*
X142500Y20750D03*
X142250Y20250D03*
X142000Y20750D03*
X141750Y20250D03*
X141500Y20750D03*
X141250Y20250D03*
X141500Y19750D03*
X141250Y19250D03*
X141750D03*
X141000Y19750D03*
X142000Y18750D03*
X141500D03*
X141000D03*
X140500D03*
X140750Y19250D03*
X140500Y19750D03*
X140250Y19250D03*
X141000Y20750D03*
X140500D03*
X140750Y20250D03*
X140250D03*
G54D12*X140900Y22060D02*X141800D01*
X76310Y9600D02*Y8700D01*
X44310Y9600D02*Y8700D01*
X108310Y9600D02*Y8700D01*
X12310Y9600D02*Y8700D01*
G54D13*X142500Y18750D03*
Y19750D03*
X142250Y19250D03*
X142000Y19750D03*
X142500Y20750D03*
X142250Y20250D03*
X142000Y20750D03*
X141750Y20250D03*
X141500Y20750D03*
X141250Y20250D03*
X141500Y19750D03*
X141250Y19250D03*
X141750D03*
X141000Y19750D03*
X142000Y18750D03*
X141500D03*
X141000D03*
X140500D03*
X140750Y19250D03*
X140500Y19750D03*
X140250Y19250D03*
X141000Y20750D03*
X140500D03*
X140750Y20250D03*
X140250D03*
G54D12*X140900Y22060D02*X141800D01*
X76310Y9600D02*Y8700D01*
X44310Y9600D02*Y8700D01*
X108310Y9600D02*Y8700D01*
X12310Y9600D02*Y8700D01*
G54D13*X142500Y18750D03*
Y19750D03*
X142250Y19250D03*
X142000Y19750D03*
X142500Y20750D03*
X142250Y20250D03*
X142000Y20750D03*
X141750Y20250D03*
X141500Y20750D03*
X141250Y20250D03*
X141500Y19750D03*
X141250Y19250D03*
X141750D03*
X141000Y19750D03*
X142000Y18750D03*
X141500D03*
X141000D03*
X140500D03*
X140750Y19250D03*
X140500Y19750D03*
X140250Y19250D03*
X141000Y20750D03*
X140500D03*
X140750Y20250D03*
X140250D03*
G54D12*X140900Y22060D02*X141800D01*
G54D14*%LNGROUP1_D2*%
%LPD*%
X115131Y27409D02*X115250Y27291D01*
Y26750D01*
X113700Y27400D02*X115300D01*
X113000Y26700D02*X113700Y27400D01*
X99250Y27291D02*Y26750D01*
X99131Y27409D02*X99250Y27291D01*
X97700Y27400D02*X99300D01*
X131131Y27409D02*X131250Y27291D01*
X83131Y27409D02*X83250Y27291D01*
X129700Y27400D02*X131300D01*
X81700D02*X83300D01*
G54D15*X140100Y25170D02*Y28200D01*
X140440Y24830D02*X140100Y25170D01*
X140159Y26118D02*X140041Y26000D01*
X139750Y28000D02*X140000D01*
X139000Y26750D02*Y27250D01*
Y26750D02*X139250Y27000D01*
X139000Y27250D02*X139750Y28000D01*
G54D14*X131250Y27291D02*Y26750D01*
X129000Y26250D02*Y26750D01*
Y26700D02*X129700Y27400D01*
X113000Y26250D02*Y26750D01*
X81000Y26250D02*Y26750D01*
X83250Y27291D02*Y26750D01*
X81000Y26700D02*X81700Y27400D01*
X67250Y27291D02*Y26750D01*
X65000Y26250D02*Y26750D01*
X97000Y26250D02*Y26750D01*
X65000Y26700D02*X65700Y27400D01*
X97000Y26700D02*X97700Y27400D01*
X49000Y26250D02*Y26750D01*
G54D15*X55750Y44250D02*Y43750D01*
X55250Y44750D02*X55750Y44250D01*
X52500Y44750D02*X55250D01*
X51250Y38500D02*Y43500D01*
G54D14*X52250Y40500D02*X51250D01*
G54D15*X51750Y38000D02*X51250Y38500D01*
X51750Y32500D02*Y38000D01*
G54D14*X51250Y27291D02*Y26750D01*
X51131Y27409D02*X51250Y27291D01*
X49700Y27400D02*X51300D01*
G54D15*X51250Y43500D02*X52500Y44750D01*
G54D14*X49000Y44000D02*X47000D01*
X46500D02*Y43000D01*
X47000Y44000D02*X46500D01*
X46000D02*X46500D01*
G54D15*X57750Y28140D02*Y26750D01*
X57690Y28200D02*X57750Y28140D01*
Y29360D02*Y31250D01*
X57690Y29300D02*X57750Y29360D01*
Y31250D02*X57250Y31750D01*
X52500D01*
X51750Y32500D01*
G54D14*X49000Y26700D02*X49700Y27400D01*
X67131Y27409D02*X67250Y27291D01*
X65700Y27400D02*X67300D01*
X33700D02*X35300D01*
X42750Y38250D02*Y39000D01*
X42500Y38000D02*X42750Y38250D01*
X42100Y38000D02*X42500D01*
X42750Y39000D02*X42000D01*
G54D15*X41500Y33250D02*Y26750D01*
Y33250D03*
G54D14*X39400Y35500D02*X38750D01*
X38500Y44000D02*X46000D01*
X33750Y39250D02*X38500Y44000D01*
X35250Y27291D02*Y26750D01*
X35131Y27409D02*X35250Y27291D01*
X33000Y26250D02*Y26750D01*
Y26700D02*X33700Y27400D01*
X28500Y25650D02*Y24500D01*
X28722Y32250D02*X30000D01*
X27840Y31368D02*X28722Y32250D01*
X27750Y31041D02*Y30000D01*
X27840Y31131D02*X27750Y31041D01*
X19131Y27409D02*X19250Y27291D01*
Y26750D01*
X17700Y27400D02*X19300D01*
X17000Y26250D02*Y26750D01*
Y26700D02*X17700Y27400D01*
X12972Y32250D02*X13750D01*
X12090Y31368D02*X12972Y32250D01*
X12000Y30000D02*Y31000D01*
X12090Y31131D02*X12000Y31041D01*
X11750Y29750D02*X12000Y30000D01*
G54D15*X9750Y28250D02*Y36000D01*
G54D14*X12500Y25650D02*Y24500D01*
X11250D01*
G54D15*Y26750D02*X9750Y28250D01*
X9250Y36500D02*Y41500D01*
X9750Y36000D02*X9250Y36500D01*
Y41500D02*X10750D01*
G54D14*X145500Y8000D02*Y5000D01*
X149500Y13500D02*Y10000D01*
X149000Y14000D02*X149500Y13500D01*
X149000Y13000D02*Y10500D01*
X148500Y12500D02*Y11000D01*
X148000Y13000D02*X148500Y12500D01*
X145500Y15500D02*X147000Y14000D01*
X146500Y13500D02*X148500D01*
X149000Y13000D01*
X146000D02*X148000D01*
X147000Y14000D02*X149000D01*
X144500Y14500D02*X146000Y13000D01*
X149500Y10000D02*X149000Y9500D01*
X147000D01*
X145500Y4500D02*X150000D01*
X145500Y5500D02*X150000D01*
X145500D02*X144500Y4500D01*
X145000Y5000D02*X144500Y4500D01*
X145500D02*X144500Y5500D01*
X149000Y10500D02*X148500Y10000D01*
Y11000D02*X148000Y10500D01*
X148500Y10000D02*X146500D01*
X148000Y10500D02*X146000D01*
X146500Y10000D02*X145000Y8500D01*
X147000Y9500D02*X145500Y8000D01*
X145000Y15000D02*X146500Y13500D01*
X146000Y10500D02*X144500Y9000D01*
G54D15*X142500Y16000D02*X142250Y16250D01*
X142500Y16000D02*Y18500D01*
G54D16*X142000Y18750D02*X142250D01*
G54D15*X135250Y7000D02*X137000Y8750D01*
G54D14*X144500Y5500D02*X133500D01*
X133750Y5000D02*X133250Y4500D01*
X133500Y5500D02*X133000Y5000D01*
G54D15*X132040Y7000D02*X135250D01*
G54D14*X150000Y5000D02*X133750D01*
X144500Y4500D02*X134000D01*
X133000Y5000D02*X128500D01*
G54D15*X131840Y7200D02*X132040Y7000D01*
G54D14*X133250Y4500D02*X128250D01*
X128500Y5000D02*X128000Y5500D01*
X145500Y44500D02*Y15500D01*
X145000Y50000D02*Y15000D01*
X144500Y9000D02*Y5000D01*
Y44500D02*Y14500D01*
G54D16*X142250Y18750D02*Y22250D01*
X141250Y18750D02*Y22250D01*
X140750Y19250D02*X140500D01*
Y18750D02*X142250D01*
G54D15*X141350Y24830D02*X141400Y24880D01*
Y28200D01*
X141300Y22460D02*Y24400D01*
G54D16*X140500Y18750D02*Y22250D01*
G54D15*X140840Y22000D02*X141300Y22460D01*
X140840Y22000D02*X139250D01*
G54D14*X138250Y19810D02*Y20500D01*
G54D15*X137000Y8750D02*Y9750D01*
X136750Y24000D02*Y29750D01*
G54D14*X136250Y19810D02*Y20500D01*
G54D15*X136750Y24000D02*X138750Y22000D01*
X139500D01*
G54D14*X134250Y19810D02*Y20500D01*
X145500Y44500D02*X150000D01*
X145500Y45500D02*X150000D01*
X145500D02*Y50000D01*
X144500Y45500D02*Y50000D01*
Y44500D02*X145500Y45500D01*
X144500D02*X145500Y44500D01*
Y45500D02*X144500Y44500D01*
Y45500D02*X145500Y44500D01*
X135000Y29100D02*Y29750D01*
X134500Y29100D02*Y29750D01*
X134000Y29100D02*Y29750D01*
X133500Y29100D02*Y29750D01*
X133000Y29100D02*Y29750D01*
X132500Y29100D02*Y29750D01*
X124800Y28600D02*X125000D01*
G54D15*X131900D02*X129900D01*
G54D14*X124500Y29250D02*Y28900D01*
G54D15*X129800Y28600D02*X125000D01*
G54D14*X124500Y28900D02*X124800Y28600D01*
X145000Y8500D02*Y0D01*
X145500Y4500D02*Y0D01*
X144500Y4500D02*Y0D01*
X134000Y4500D02*X133500Y4000D01*
X128000D01*
X128250Y4500D02*X127750Y5000D01*
X128000Y4000D02*X127500Y4500D01*
X136000Y29100D02*Y29750D01*
G54D15*X136750D02*X136500D01*
G54D14*X135500Y29100D02*Y29750D01*
G54D15*X136500D02*X132250D01*
X136750D02*X137000Y30000D01*
G54D14*X132250Y19810D02*Y20500D01*
G54D15*X132000Y29500D02*Y28750D01*
X132250Y29750D02*X132000Y29500D01*
Y28700D02*X131900Y28600D01*
X137000Y30000D02*Y30500D01*
G54D14*X130250Y19810D02*Y20500D01*
X128250Y19810D02*Y20500D01*
X126250Y19810D02*Y20500D01*
G54D15*X124250D02*X120750Y24000D01*
G54D14*X124250Y19810D02*Y20500D01*
X122250Y19810D02*Y20500D01*
X120250Y19810D02*Y20500D01*
X118250Y19810D02*Y20500D01*
X116250Y19810D02*Y20500D01*
G54D15*X120750Y24000D02*Y29500D01*
X120500Y29750D01*
G54D14*X120000Y29100D02*Y29750D01*
X119000Y29100D02*Y29750D01*
X119500Y29100D02*Y29750D01*
X118500Y29100D02*Y29750D01*
X118000Y29100D02*Y29750D01*
X117500Y29100D02*Y29750D01*
G54D15*X120500D02*X116250D01*
G54D14*X117000Y29100D02*Y29750D01*
X116500Y29100D02*Y29750D01*
G54D15*X116000Y29500D02*Y28750D01*
X116250Y29750D02*X116000Y29500D01*
Y28700D02*X115900Y28600D01*
G54D14*X114000Y9458D02*Y11000D01*
G54D15*X115900Y28600D02*X113900D01*
G54D14*X114250Y19810D02*Y20500D01*
X110250Y19810D02*Y20500D01*
X112250Y19810D02*Y20500D01*
X108250Y19810D02*Y20500D01*
X106250Y19810D02*Y20500D01*
X104250Y19810D02*Y20500D01*
X102250Y19810D02*Y20500D01*
X100250Y19810D02*Y20500D01*
X98250Y19810D02*Y20500D01*
G54D15*X104750Y24000D02*Y29500D01*
X104500Y29750D01*
G54D14*X103000Y29100D02*Y29750D01*
X103500Y29100D02*Y29750D01*
X102500Y29100D02*Y29750D01*
X104000Y29100D02*Y29750D01*
X102000Y29100D02*Y29750D01*
X101500Y29100D02*Y29750D01*
X101000Y29100D02*Y29750D01*
G54D15*X104500D02*X100250D01*
G54D14*X100500Y29100D02*Y29750D01*
G54D15*X100000Y29500D02*Y28750D01*
X100250Y29750D02*X100000Y29500D01*
Y28700D02*X99900Y28600D01*
X97900D01*
X108250Y20500D02*X104750Y24000D01*
G54D14*X96250Y19810D02*Y20500D01*
X92250Y19810D02*Y20500D01*
X94250Y19810D02*Y20500D01*
X90250Y19810D02*Y20500D01*
G54D15*X92250D02*X88750Y24000D01*
X106000Y12430D02*Y13000D01*
G54D14*X82000Y11000D02*Y9250D01*
G54D15*X81881Y9340D02*X82000Y9458D01*
X74000Y12430D02*Y13000D01*
X105820Y12250D02*X106000Y12430D01*
X73820Y12250D02*X74000Y12430D01*
X113800Y28600D02*X109000D01*
G54D14*X108800D02*X109000D01*
X108500Y29250D02*Y28900D01*
X108800Y28600D01*
X92500Y28900D02*X92800Y28600D01*
G54D15*X88750Y24000D02*Y29500D01*
G54D14*X92800Y28600D02*X93000D01*
X88250Y19810D02*Y20500D01*
X86250Y19810D02*Y20500D01*
X84250Y19810D02*Y20500D01*
X82250Y19810D02*Y20500D01*
X92500Y29250D02*Y28900D01*
X80250Y19810D02*Y20500D01*
G54D15*X97800Y28600D02*X93000D01*
G54D14*X86500Y29100D02*Y29750D01*
X86000Y29100D02*Y29750D01*
X85500Y29100D02*Y29750D01*
X85000Y29100D02*Y29750D01*
G54D15*X88750Y29500D02*X88500Y29750D01*
G54D14*X88000Y29100D02*Y29750D01*
X87500Y29100D02*Y29750D01*
X87000Y29100D02*Y29750D01*
G54D15*X88500D02*X84250D01*
X84000Y29500D01*
G54D14*X84500Y29100D02*Y29750D01*
G54D15*X84000Y29500D02*Y28750D01*
Y28700D02*X83900Y28600D01*
X81900D01*
X81800D02*X77000D01*
G54D14*X144500Y45500D02*X62000D01*
X61500Y45000D02*X150000D01*
X144500Y44500D02*X61000D01*
G54D15*X72750Y24000D02*Y29500D01*
G54D14*X76800Y28600D02*X77000D01*
X76500Y28900D02*X76800Y28600D01*
X76500Y29250D02*Y28900D01*
G54D15*X72750Y29500D02*X72500Y29750D01*
G54D14*X71500Y29100D02*Y29750D01*
X72000Y29100D02*Y29750D01*
X71000Y29100D02*Y29750D01*
X69000Y29100D02*Y29750D01*
X70500Y29100D02*Y29750D01*
X70000Y29100D02*Y29750D01*
X69500Y29100D02*Y29750D01*
G54D15*X72500D02*X68250D01*
X68000Y29500D01*
G54D14*X68500Y29100D02*Y29750D01*
G54D15*X68000Y29500D02*Y28750D01*
Y28700D02*X67900Y28600D01*
X65900D01*
X76250Y20500D02*X72750Y24000D01*
X60250Y20500D02*X56750Y24000D01*
G54D14*X60800Y28600D02*X61000D01*
X60500Y28900D02*X60800Y28600D01*
X60500Y29250D02*Y28900D01*
X56000Y29100D02*Y29750D01*
G54D15*X56750Y24000D02*Y29500D01*
G54D14*X55500Y29100D02*Y29750D01*
G54D15*X56750Y29500D02*X56500Y29750D01*
G54D14*X55000Y29100D02*Y29750D01*
G54D15*X65800Y28600D02*X61000D01*
G54D14*X54500Y29100D02*Y29750D01*
X54000Y29100D02*Y29750D01*
X53500Y29100D02*Y29750D01*
X53000Y29100D02*Y29750D01*
G54D15*X52000D02*Y29500D01*
X56500Y29750D02*X52000D01*
G54D14*X60500Y29850D02*Y37500D01*
X60000Y38000D01*
X59000D01*
G54D15*X55500Y30634D02*Y29750D01*
X55474Y30659D02*X55500Y30634D01*
X54224Y30659D02*X54250Y30634D01*
X53000D02*Y29750D01*
X54250Y30634D02*Y29750D01*
X52974Y30659D02*X53000Y30634D01*
G54D14*X57500Y45000D02*X58000D01*
X56750Y44250D02*X57500Y45000D01*
G54D15*X56750Y44250D02*Y43750D01*
X55750Y45250D02*X56750Y44250D01*
G54D14*X59000Y46500D02*X49500D01*
X59500Y47000D02*X49000D01*
X62000Y45500D02*X60000Y47500D01*
X61500Y45000D02*X59500Y47000D01*
X61000Y44500D02*X59000Y46500D01*
X60000Y47500D02*X48500D01*
G54D15*X50750Y31000D02*Y43750D01*
X52250Y45250D02*X55750D01*
X50750Y43750D02*X52250Y45250D01*
G54D14*X49250Y40500D02*X50750D01*
X49500Y46500D02*X47500Y44500D01*
X49000Y47000D02*X47000Y45000D01*
X48500Y47500D02*X46500Y45500D01*
X52500Y29100D02*Y29750D01*
G54D15*X52000Y29500D02*Y28750D01*
Y28700D02*X51900Y28600D01*
X49900D01*
X52000Y29750D02*X50750Y31000D01*
G54D14*X50000Y9458D02*Y11000D01*
G54D15*X49800Y28600D02*X45000D01*
G54D14*X44800D02*X45000D01*
X44500Y29250D02*Y28900D01*
X44800Y28600D01*
X42250Y19810D02*Y20500D01*
G54D15*X42000Y12430D02*Y13000D01*
X41820Y12250D02*X42000Y12430D01*
X44250Y20500D02*X40750Y24000D01*
X26500Y32250D02*Y36750D01*
X26000Y31750D02*X26500Y32250D01*
Y36750D02*X26750Y37000D01*
X26000Y30500D02*Y31750D01*
X28000Y28500D02*X26000Y30500D01*
Y31250D02*X26500D01*
X24750Y29500D02*X24500Y29750D01*
G54D14*X24000Y29100D02*Y29750D01*
X26250Y19810D02*Y20500D01*
X24250Y19810D02*Y20500D01*
X22250Y19810D02*Y20500D01*
X22220Y19780D02*X22250Y19810D01*
X20250D02*Y20500D01*
G54D15*X28250D02*X24750Y24000D01*
G54D14*X26220Y19780D02*X26250Y19810D01*
X24220Y19780D02*X24250Y19810D01*
X28220Y19780D02*X28250Y19810D01*
X20220Y19780D02*X20250Y19810D01*
G54D15*X24750Y24000D02*Y29500D01*
G54D14*X23000Y29100D02*Y29750D01*
X23500Y29100D02*Y29750D01*
X22500Y29100D02*Y29750D01*
X22000Y29100D02*Y29750D01*
X21500Y29100D02*Y29750D01*
G54D15*X24500D02*X20250D01*
G54D14*X21000Y29100D02*Y29750D01*
X20500Y29100D02*Y29750D01*
G54D15*X20000Y29500D02*Y28750D01*
X20250Y29750D02*X20000Y29500D01*
Y28700D02*X19900Y28600D01*
X17900D01*
G54D14*X60250Y19810D02*Y20500D01*
X58250Y19810D02*Y20500D01*
X54250Y19810D02*Y20500D01*
X56250Y19810D02*Y20500D01*
X52250Y19810D02*Y20500D01*
X50250Y19810D02*Y20500D01*
X48250Y19810D02*Y20500D01*
X46250Y19810D02*Y20500D01*
X44250Y19810D02*Y20500D01*
X78250Y19810D02*Y20500D01*
X74250Y19810D02*Y20500D01*
X76250Y19810D02*Y20500D01*
X72250Y19810D02*Y20500D01*
X70250Y19810D02*Y20500D01*
X68250Y19810D02*Y20500D01*
X66250Y19810D02*Y20500D01*
X64250Y19810D02*Y20500D01*
X62250Y19810D02*Y20500D01*
X128000Y5500D02*X5500D01*
X127750Y5000D02*X5500D01*
X127500Y4500D02*X5000D01*
G54D15*X15000Y33250D02*Y36250D01*
G54D14*X15250Y32750D02*X15424D01*
X15700D02*X15500D01*
X15000Y33000D02*Y33250D01*
X15700Y32750D02*X15250D01*
X15000Y33000D02*X15250Y32750D01*
X14300Y33250D02*X15000D01*
X12500Y29000D02*Y28500D01*
Y29250D02*Y28900D01*
G54D15*X10250Y30250D02*Y35750D01*
Y31250D02*X10750D01*
X10250Y35750D02*X10750Y36250D01*
X12000Y28500D02*X10250Y30250D01*
X16750Y38000D02*Y38500D01*
X15000Y36250D02*X16750Y38000D01*
X10750Y36250D02*X15000D01*
G54D14*X15700Y35250D02*X15000D01*
G54D15*X7500Y41500D02*X7750D01*
X7250Y39750D02*Y41250D01*
X7500Y41500D01*
X8250Y38750D02*X7250Y39750D01*
X17800Y28600D02*X13000D01*
G54D14*X12800D02*X13000D01*
G54D15*Y28500D02*X12000D01*
G54D14*X11250Y23500D02*X12250Y22500D01*
G54D15*X10000Y12458D02*Y13000D01*
G54D14*X12250Y19810D02*Y22500D01*
G54D15*X9881Y12340D02*X10000Y12458D01*
G54D14*X5500Y45500D02*Y50000D01*
X5000D02*Y0D01*
Y5000D02*X5500Y4500D01*
Y0D01*
X4500Y45500D02*Y50000D01*
G54D15*X5000Y45000D02*X5500Y45500D01*
G54D14*X5000Y45000D02*X4500Y44500D01*
G54D15*X6000Y46000D01*
G54D14*X5500Y44500D02*Y5500D01*
X4500D02*X0D01*
X4500Y44500D02*Y5500D01*
X5000Y5000D02*X0D01*
G54D15*X5500Y45500D02*X4500Y44500D01*
G54D14*Y45500D02*X5500Y44500D01*
X4500D02*X0D01*
G54D15*X4500Y45500D02*X5500Y44500D01*
G54D14*X4500Y45500D02*X0D01*
X18250Y19810D02*Y20500D01*
X18220Y19780D02*X18250Y19810D01*
X18000Y9458D02*Y11000D01*
X17881Y9340D02*X18000Y9458D01*
X16220Y19780D02*X16250Y19810D01*
Y20500D01*
X14250Y19810D02*Y20500D01*
X14220Y19780D02*X14250Y19810D01*
X12220Y19780D02*X12250Y19810D01*
X4500Y4500D02*Y0D01*
G54D15*X5000Y5000D02*X4500Y5500D01*
X5500D02*X4500Y4500D01*
G54D14*X5000Y5000D02*X4500Y4500D01*
X0D01*
X40220Y19780D02*X40250Y19810D01*
X38500Y29100D02*Y29750D01*
X38000Y29100D02*Y29750D01*
X37500Y29100D02*Y29750D01*
G54D15*X40500D02*X36250D01*
G54D14*X39500Y29100D02*Y29750D01*
X40000Y29100D02*Y29750D01*
X39000Y29100D02*Y29750D01*
X36500Y29100D02*Y29750D01*
G54D15*X36000Y29500D02*Y28750D01*
G54D14*X37000Y29100D02*Y29750D01*
G54D15*X36250D02*X36000Y29500D01*
Y28700D02*X35900Y28600D01*
G54D14*X38250Y19810D02*Y20500D01*
X36220Y19780D02*X36250Y19810D01*
X38220Y19780D02*X38250Y19810D01*
X34250D02*Y20500D01*
X36250Y19810D02*Y20500D01*
X34220Y19780D02*X34250Y19810D01*
G54D15*X40909Y38881D02*X40750Y38722D01*
Y33000D01*
Y29750D02*X40500D01*
X40750Y24000D02*Y33000D01*
G54D14*X40250Y19810D02*Y20500D01*
X40050Y36500D02*X40750D01*
X40050Y34500D02*X40750D01*
X40050Y36000D02*X40750D01*
G54D15*X35900Y28600D02*X33900D01*
G54D14*X32220Y19780D02*X32250Y19810D01*
Y20500D01*
X30250Y19810D02*Y20500D01*
X30220Y19780D02*X30250Y19810D01*
X28250D02*Y20500D01*
X31700Y32750D02*X31250D01*
X31000Y33000D02*Y33250D01*
X31250Y32750D02*X31000Y33000D01*
X30300Y33250D02*X31000D01*
X31700Y35250D02*X31000D01*
G54D15*Y36000D02*Y33250D01*
Y36000D02*X30000Y37000D01*
X33800Y28600D02*X29000D01*
G54D14*X28800D02*X29000D01*
X28500Y29250D02*Y28900D01*
Y29000D02*Y28500D01*
G54D15*X29000D02*X28000D01*
X26750Y37000D02*X30000D01*
G54D14*X46500Y45500D02*X6000D01*
X47500Y44500D02*X5000D01*
X47000Y45000D02*X0D01*
X136000Y26400D02*Y23750D01*
X135500Y26400D02*Y23500D01*
X135000Y26400D02*Y23250D01*
X134500Y26400D02*Y23000D01*
X134000Y26400D02*Y23500D01*
X133500Y26400D02*Y24000D01*
X139000Y19780D02*Y20500D01*
X137000Y19780D02*Y20500D01*
X139000D02*X137000Y22500D01*
X132750D01*
G54D15*X143500Y15000D02*Y24000D01*
G54D14*X137000Y20500D02*X135500Y22000D01*
X135000Y19780D02*Y20500D01*
X134000Y21500D01*
X135500Y22000D02*X132500D01*
X134000Y21500D02*X132250D01*
X130000Y24500D02*X132500Y22000D01*
X129750Y24000D02*X132250Y21500D01*
X132000Y21000D02*X132500D01*
X133000Y20500D01*
X131000Y21250D02*Y19750D01*
X133000Y20500D02*Y19750D01*
X129500Y23500D02*X132000Y21000D01*
X133000Y26400D02*Y24500D01*
X132500Y26400D02*Y25000D01*
X132750Y22500D02*X130250Y25000D01*
X129000Y22500D02*Y19750D01*
X128500Y26250D02*Y21500D01*
X128000Y26250D02*Y22000D01*
X127000Y21000D02*Y19750D01*
Y26250D02*Y23000D01*
X127500Y25650D02*Y22500D01*
X128000Y22000D02*X127000Y21000D01*
X126500Y25650D02*Y23500D01*
X126000Y26250D02*Y24000D01*
X125500Y25650D02*Y24500D01*
X125000Y25650D02*Y25000D01*
X124500Y25650D02*Y25250D01*
X124250Y25000D01*
X123750D01*
Y25250D02*Y24000D01*
X123000Y19780D02*Y20500D01*
X121000Y19780D02*Y20500D01*
X125000Y21500D02*Y19750D01*
X123000Y20500D02*X121000Y22500D01*
X120000Y26400D02*Y23750D01*
X119500Y26400D02*Y23500D01*
X121000Y20500D02*X119500Y22000D01*
X119000Y20500D02*X118000Y21500D01*
X119000Y26400D02*Y23250D01*
X118500Y26400D02*Y23000D01*
X118000Y26400D02*Y23500D01*
X117500Y26400D02*Y24000D01*
X117000Y26400D02*Y24500D01*
X116500Y26400D02*Y25000D01*
X129250Y23000D02*X131000Y21250D01*
X113250Y23000D02*X115000Y21250D01*
X103000Y26400D02*Y23250D01*
X102500Y26400D02*Y23000D01*
X103500Y26400D02*Y23500D01*
X102000Y26400D02*Y23500D01*
X104000Y26400D02*Y23750D01*
X101500Y26400D02*Y24000D01*
X101000Y26400D02*Y24500D01*
X108500Y25650D02*Y25250D01*
X108250Y25000D01*
X107750D01*
Y25250D02*Y24000D01*
X100500Y26400D02*Y25000D01*
G54D15*X143000Y24500D02*X142250D01*
G54D14*X105000Y22500D02*X100750D01*
X114000Y24500D02*X116500Y22000D01*
X103500D02*X100500D01*
G54D15*X143500Y24000D02*X143000Y24500D01*
G54D14*X102000Y21500D02*X100250D01*
X138000Y15250D02*Y16250D01*
X134000Y15250D02*Y16250D01*
X136000Y15250D02*Y16250D01*
G54D15*Y9750D02*X132750D01*
G54D14*X134600Y17850D02*Y18900D01*
X132600Y17850D02*Y18900D01*
X136600Y17850D02*Y18900D01*
X130600Y17850D02*Y18900D01*
X138600Y17850D02*Y18900D01*
X128600Y17850D02*Y18900D01*
X134000Y17250D02*X134600Y17850D01*
X132000Y17250D02*X132600Y17850D01*
X136000Y17250D02*X136600Y17850D01*
X130000Y17250D02*X130600Y17850D01*
X138000Y17250D02*X138600Y17850D01*
X128000Y17250D02*X128600Y17850D01*
X126600D02*Y18900D01*
X124000Y17250D02*X124600Y17850D01*
X126000Y17250D02*X126600Y17850D01*
X122000Y17250D02*X122600Y17850D01*
X120600D02*Y18900D01*
X118600Y17850D02*Y18900D01*
X122600Y17850D02*Y18900D01*
X116600Y17850D02*Y18900D01*
X124600Y17850D02*Y18900D01*
X114600Y17850D02*Y18900D01*
X120000Y17250D02*X120600Y17850D01*
X118000Y17250D02*X118600Y17850D01*
X116000Y17250D02*X116600Y17850D01*
X114000Y17250D02*X114600Y17850D01*
X132000Y15250D02*Y16250D01*
X130000Y15250D02*Y16250D01*
X128000Y15250D02*Y16250D01*
G54D15*X130923Y10084D02*X130588Y9750D01*
X129500Y8661D02*Y7000D01*
X130588Y9750D02*X129500D01*
Y8500D01*
Y7000D02*X127750D01*
X138000Y14250D02*X122000D01*
G54D14*X126000Y15250D02*Y16250D01*
X124000Y15250D02*Y16250D01*
X122000Y15250D02*Y16250D01*
X120000Y15250D02*Y16250D01*
G54D15*X111140Y10000D02*X112250D01*
X113841Y8200D02*X110900D01*
X109000Y9250D02*X112250D01*
X109000Y10250D02*Y8000D01*
Y10250D02*X107750D01*
X107500Y8250D02*Y10250D01*
X107750D02*Y8250D01*
X109000Y8000D02*X107500D01*
X106750Y13000D02*Y10500D01*
X108000Y14250D02*X106750Y13000D01*
X106250Y6750D02*Y8000D01*
X106000Y11041D02*Y10250D01*
G54D14*X112600Y17850D02*Y18900D01*
X110000Y17250D02*X110600Y17850D01*
X112000Y17250D02*X112600Y17850D01*
X108000Y17250D02*X108600Y17850D01*
X106600D02*Y18900D01*
X104600Y17850D02*Y18900D01*
X108600Y17850D02*Y18900D01*
X102600Y17850D02*Y18900D01*
X110600Y17850D02*Y18900D01*
X100600Y17850D02*Y18900D01*
X106000Y17250D02*X106600Y17850D01*
X104000Y17250D02*X104600Y17850D01*
X102000Y17250D02*X102600Y17850D01*
X100000Y17250D02*X100600Y17850D01*
X118000Y15250D02*Y16250D01*
X116000Y15250D02*Y16250D01*
X114000Y15250D02*Y16250D01*
X112000Y15250D02*Y16250D01*
X110000Y15250D02*Y16250D01*
G54D15*X108000Y14250D02*X122000D01*
G54D14*X108000Y15250D02*Y16250D01*
X106000Y15250D02*Y16250D01*
X104000Y15250D02*Y16250D01*
X102000Y15250D02*Y16250D01*
X100000Y15250D02*Y16250D01*
X129000Y34500D02*X132000D01*
X129000Y33500D02*X133000D01*
X129000Y29850D02*Y30500D01*
X136000D01*
X129000Y31500D02*X135000D01*
X128000Y29850D02*Y31500D01*
X129000Y32500D02*X134000D01*
X127000Y29850D02*Y32500D01*
X128500Y29850D02*Y36500D01*
X127500Y29850D02*Y36000D01*
X126500Y29850D02*Y35500D01*
X126000Y29850D02*Y33500D01*
X125500Y29850D02*Y35000D01*
X125000Y29850D02*Y34500D01*
X123750Y25250D02*Y35000D01*
X119000Y19780D02*Y20500D01*
X119500Y22000D02*X116500D01*
X121000Y22500D02*X116750D01*
X118000Y21500D02*X116250D01*
X116000Y21000D02*X116500D01*
X117000Y20500D01*
Y19750D01*
X115000Y21250D02*Y19750D01*
X113750Y24000D02*X116250Y21500D01*
X113500Y23500D02*X116000Y21000D01*
X116750Y22500D02*X114250Y25000D01*
X113000Y22500D02*Y19750D01*
X112500Y26250D02*Y21500D01*
X111000Y21000D02*Y19750D01*
X112000Y22000D02*X111000Y21000D01*
X111500Y25650D02*Y22500D01*
X112000Y26250D02*Y22000D01*
X111000Y26250D02*Y23000D01*
X110500Y25650D02*Y23500D01*
X110000Y26250D02*Y24000D01*
X109500Y25650D02*Y24500D01*
X109000Y25650D02*Y25000D01*
X113000Y29850D02*Y30500D01*
X112500Y29850D02*Y31000D01*
X112000Y29850D02*Y31500D01*
X111500Y29850D02*Y32000D01*
X111000Y29850D02*Y32500D01*
X110500Y29850D02*Y33000D01*
X110000Y29850D02*Y33500D01*
X109500Y29850D02*Y34000D01*
X109000Y29850D02*Y34500D01*
X107750Y25250D02*Y35500D01*
X107000Y19780D02*Y20500D01*
X105000Y19780D02*Y20500D01*
X107000D02*X105000Y22500D01*
Y20500D02*X103500Y22000D01*
X103000Y19780D02*Y20500D01*
X102000Y21500D01*
X109000D02*Y19750D01*
X100000Y21000D02*X100500D01*
X101000Y20500D01*
Y19750D01*
X99000Y21250D02*Y19750D01*
X97000Y22500D02*Y19750D01*
Y29850D02*Y30500D01*
X96500Y26250D02*Y21500D01*
Y29850D02*Y31000D01*
X95000Y21000D02*Y19750D01*
Y26250D02*Y23000D01*
X97750Y24000D02*X100250Y21500D01*
X97500Y23500D02*X100000Y21000D01*
X98000Y24500D02*X100500Y22000D01*
X97250Y23000D02*X99000Y21250D01*
X100750Y22500D02*X98250Y25000D01*
X96000Y22000D02*X95000Y21000D01*
Y29850D02*Y32500D01*
X94500Y29850D02*Y33000D01*
X94000Y29850D02*Y33500D01*
X93500Y29850D02*Y34000D01*
X93000Y29850D02*Y34500D01*
X96000Y26250D02*Y22000D01*
Y29850D02*Y31500D01*
X95500Y25650D02*Y22500D01*
Y29850D02*Y32000D01*
X94500Y25650D02*Y23500D01*
X94000Y26250D02*Y24000D01*
X93500Y25650D02*Y24500D01*
X91750Y25250D02*Y24000D01*
Y25250D02*Y36000D01*
X93000Y25650D02*Y25000D01*
X92500Y25650D02*Y25250D01*
X92250Y25000D01*
X91750D01*
X91000Y19780D02*Y20500D01*
X89000Y19780D02*Y20500D01*
X93000Y21500D02*Y19750D01*
X91000Y20500D02*X89000Y22500D01*
Y20500D02*X87500Y22000D01*
X87000Y19780D02*Y20500D01*
X86000Y21500D01*
X87500Y22000D02*X84500D01*
X89000Y22500D02*X84750D01*
X86000Y21500D02*X84250D01*
X84000Y21000D02*X84500D01*
X85000Y20500D01*
Y19750D01*
X83000Y21250D02*Y19750D01*
X86500Y26400D02*Y23000D01*
X86000Y26400D02*Y23500D01*
X87500Y26400D02*Y23500D01*
X88000Y26400D02*Y23750D01*
X87000Y26400D02*Y23250D01*
X85500Y26400D02*Y24000D01*
X85000Y26400D02*Y24500D01*
X84500Y26400D02*Y25000D01*
X79000Y29850D02*Y32500D01*
X78500Y29850D02*Y33000D01*
X78000Y29850D02*Y33500D01*
X77500Y29850D02*Y34000D01*
X77000Y29850D02*Y34500D01*
X81000Y22500D02*Y19750D01*
Y29850D02*Y30500D01*
X80500Y26250D02*Y21500D01*
Y29850D02*Y31000D01*
G54D15*X79080Y8250D02*X82000D01*
X79140Y10000D02*X80250D01*
G54D14*X79000Y21000D02*Y19750D01*
Y26250D02*Y23000D01*
X81750Y24000D02*X84250Y21500D01*
X82000Y24500D02*X84500Y22000D01*
X81500Y23500D02*X84000Y21000D01*
X84750Y22500D02*X82250Y25000D01*
X81250Y23000D02*X83000Y21250D01*
X80000Y22000D02*X79000Y21000D01*
G54D15*X77000Y9250D02*X80500D01*
G54D14*X80000Y26250D02*Y22000D01*
Y29850D02*Y31500D01*
X79500Y25650D02*Y22500D01*
Y29850D02*Y32000D01*
X78500Y25650D02*Y23500D01*
X78000Y26250D02*Y24000D01*
X77500Y25650D02*Y24500D01*
X75750Y25250D02*Y36500D01*
X77000Y25650D02*Y25000D01*
X76500Y25650D02*Y25250D01*
X76250Y25000D01*
X75750D01*
Y25250D02*Y24000D01*
G54D15*X74750Y13000D02*Y10500D01*
X76000Y14250D02*X74750Y13000D01*
X74250Y6750D02*Y8000D01*
X77000Y10250D02*Y8000D01*
X75500Y8250D02*Y10250D01*
X77000D02*X75750D01*
X77000Y8000D02*X75500D01*
X75750Y10250D02*Y8250D01*
X74000Y11041D02*Y10250D01*
G54D14*X75000Y19780D02*Y20500D01*
X73000Y19780D02*Y20500D01*
X77000Y21500D02*Y19750D01*
X75000Y20500D02*X73000Y22500D01*
Y20500D02*X71500Y22000D01*
X71000Y19780D02*Y20500D01*
X70000Y21500D01*
X71000Y26400D02*Y23250D01*
X71500Y26400D02*Y23500D01*
X70500Y26400D02*Y23000D01*
X72000Y26400D02*Y23750D01*
X70000Y26400D02*Y23500D01*
X71500Y22000D02*X68500D01*
X73000Y22500D02*X68750D01*
X70000Y21500D02*X68250D01*
X69000Y20500D02*Y19750D01*
X68500Y21000D02*X69000Y20500D01*
X68000Y21000D02*X68500D01*
X67000Y21250D02*Y19750D01*
X69500Y26400D02*Y24000D01*
X69000Y26400D02*Y24500D01*
X68500Y26400D02*Y25000D01*
X60500Y25650D02*Y25250D01*
X60250Y25000D01*
X59750Y25250D02*Y24000D01*
X60250Y25000D02*X59750D01*
X58750Y33250D02*Y30500D01*
X58250Y32750D02*Y32000D01*
X84600Y17850D02*Y18900D01*
X82000Y17250D02*X82600Y17850D01*
X84000Y17250D02*X84600Y17850D01*
X80000Y17250D02*X80600Y17850D01*
X78600D02*Y18900D01*
X76600Y17850D02*Y18900D01*
X80600Y17850D02*Y18900D01*
X74600Y17850D02*Y18900D01*
X82600Y17850D02*Y18900D01*
X72600Y17850D02*Y18900D01*
X78000Y17250D02*X78600Y17850D01*
X76000Y17250D02*X76600Y17850D01*
X74000Y17250D02*X74600Y17850D01*
X72000Y17250D02*X72600Y17850D01*
X98600D02*Y18900D01*
X96000Y17250D02*X96600Y17850D01*
X98000Y17250D02*X98600Y17850D01*
X94000Y17250D02*X94600Y17850D01*
X92600D02*Y18900D01*
X90600Y17850D02*Y18900D01*
X94600Y17850D02*Y18900D01*
X88600Y17850D02*Y18900D01*
X96600Y17850D02*Y18900D01*
X86600Y17850D02*Y18900D01*
X92000Y17250D02*X92600Y17850D01*
X90000Y17250D02*X90600Y17850D01*
X88000Y17250D02*X88600Y17850D01*
X86000Y17250D02*X86600Y17850D01*
X98000Y15250D02*Y16250D01*
X96000Y15250D02*Y16250D01*
X90000Y15250D02*Y16250D01*
X92000Y15250D02*Y16250D01*
X94000Y15250D02*Y16250D01*
X88000Y15250D02*Y16250D01*
X64000Y15250D02*Y16250D01*
X70600Y17850D02*Y18900D01*
X68000Y17250D02*X68600Y17850D01*
X70000Y17250D02*X70600Y17850D01*
X66000Y17250D02*X66600Y17850D01*
X64600D02*Y18900D01*
X62600Y17850D02*Y18900D01*
X66600Y17850D02*Y18900D01*
X60600Y17850D02*Y18900D01*
X68600Y17850D02*Y18900D01*
X58600Y17850D02*Y18900D01*
X64000Y17250D02*X64600Y17850D01*
X62000Y17250D02*X62600Y17850D01*
X60000Y17250D02*X60600Y17850D01*
X58000Y17250D02*X58600Y17850D01*
X82000Y15250D02*Y16250D01*
X80000Y15250D02*Y16250D01*
X86000Y15250D02*Y16250D01*
X84000Y15250D02*Y16250D01*
G54D15*X76000Y14250D02*X90000D01*
G54D14*X76000Y15250D02*Y16250D01*
X78000Y15250D02*Y16250D01*
X74000Y15250D02*Y16250D01*
X72000Y15250D02*Y16250D01*
X70000Y15250D02*Y16250D01*
X68000Y15250D02*Y16250D01*
X66000Y15250D02*Y16250D01*
G54D15*X106000Y14250D02*X90000D01*
X74000D02*X58000D01*
G54D14*X65000Y22500D02*Y19750D01*
Y29850D02*Y30500D01*
X64500Y26250D02*Y21500D01*
Y29850D02*Y31000D01*
X64000Y26250D02*Y22000D01*
Y29850D02*Y31500D01*
X63500Y25650D02*Y22500D01*
Y29850D02*Y32000D01*
X65750Y24000D02*X68250Y21500D01*
X65500Y23500D02*X68000Y21000D01*
X66000Y24500D02*X68500Y22000D01*
X65250Y23000D02*X67000Y21250D01*
X68750Y22500D02*X66250Y25000D01*
X64000Y22000D02*X63000Y21000D01*
Y19750D01*
Y26250D02*Y23000D01*
Y29850D02*Y32500D01*
X62500Y29850D02*Y33000D01*
Y25650D02*Y23500D01*
X62000Y26250D02*Y24000D01*
X61500Y25650D02*Y24500D01*
X61000Y25650D02*Y25000D01*
X62000Y29850D02*Y39000D01*
X61500Y29850D02*Y40000D01*
X61000Y29850D02*Y41000D01*
X59750Y25250D02*Y37000D01*
X52850Y39500D02*X53500D01*
X55000Y41750D02*Y37000D01*
X54500Y41500D02*Y36500D01*
X52850Y40000D02*X53500D01*
X53750Y41000D02*X54000Y40750D01*
X52850Y41000D02*X53750D01*
X54250Y42500D02*X55000Y41750D01*
X54000Y42000D02*X54500Y41500D01*
X52850Y42000D02*X54000D01*
X52850Y42500D02*X54250D01*
X54500Y36500D02*X58250Y32750D01*
X54000Y40750D02*Y36000D01*
X53500Y38250D02*Y33000D01*
X53250Y38500D02*X53500Y38250D01*
X55000Y37000D02*X58750Y33250D01*
X52850Y38500D02*X53250D01*
X54000Y36000D02*X57500Y32500D01*
X52850Y39000D02*X53500D01*
X59000Y19780D02*Y20500D01*
X57000Y19780D02*Y20500D01*
X61000Y21500D02*Y19750D01*
X59000Y20500D02*X57000Y22500D01*
X55000Y19780D02*Y20500D01*
X54000Y21500D01*
X55500Y22000D02*X52500D01*
X57000Y22500D02*X52750D01*
X54000Y21500D02*X52250D01*
X52000Y21000D02*X52500D01*
X53000Y20500D01*
Y19750D01*
X51000Y21250D02*Y19750D01*
X59750Y44750D02*X59500Y45000D01*
X59000D01*
X58750Y42750D02*Y43750D01*
X59750Y44750D02*Y42750D01*
X57750D02*Y43750D01*
X56000Y41000D02*X57750Y42750D01*
X56000Y39000D02*X59750Y42750D01*
X56000Y40000D02*X58750Y42750D01*
X57000Y20500D02*X55500Y22000D01*
X52250Y41500D02*X52000D01*
X51750Y41750D02*Y43250D01*
X52000Y41500D02*X51750Y41750D01*
X48650Y42000D02*X48000D01*
X55000Y23250D02*Y26500D01*
X55500Y26400D02*Y23500D01*
X54500Y23000D02*Y26500D01*
X54000Y23500D02*Y26500D01*
X53500Y24000D02*Y26500D01*
X53000Y24500D02*Y26500D01*
X52500Y25000D02*Y26500D01*
X49000Y22500D02*Y19750D01*
X48500Y26250D02*Y21500D01*
X56000Y26400D02*Y23750D01*
X49750Y24000D02*X52250Y21500D01*
X50000Y24500D02*X52500Y22000D01*
X49500Y23500D02*X52000Y21000D01*
X52750Y22500D02*X50250Y25000D01*
X49250Y23000D02*X51000Y21250D01*
X48000Y22000D02*X47000Y21000D01*
X50000Y38750D02*Y31000D01*
X49750Y39000D02*X50000Y38750D01*
Y41500D02*X50100Y41600D01*
X49250Y39000D02*X49750D01*
X50100Y41600D02*Y44000D01*
X49250Y41500D02*X50000D01*
X49000Y29850D02*Y30500D01*
X48000Y38250D02*Y32500D01*
X48500Y29850D02*Y31000D01*
X48000Y32500D02*Y32250D01*
X47500Y25650D02*Y22500D01*
X48000Y29850D02*Y32250D01*
X47500Y29850D02*Y32000D01*
X47000Y29850D02*Y32500D01*
X48650Y38500D02*X48250D01*
X48000Y38250D01*
X48650Y42500D02*X47500D01*
X46500Y41791D02*Y41000D01*
X48750D01*
X46381Y41909D02*X46500Y41791D01*
X48000Y26250D02*Y22000D01*
X47000Y21000D02*Y19750D01*
Y26250D02*Y23000D01*
X45500Y25650D02*Y24500D01*
X46000Y26250D02*Y24000D01*
X46500Y25650D02*Y23500D01*
X45000Y25650D02*Y25000D01*
X46500Y29850D02*Y33000D01*
X45500Y29850D02*Y34000D01*
X45000Y29850D02*Y34500D01*
X46000Y29850D02*Y33500D01*
X44500Y25650D02*Y25250D01*
X44250Y25000D01*
X43750Y25250D02*Y37000D01*
X44250Y25000D02*X43750D01*
Y37000D02*X43250Y37500D01*
X48650Y40000D02*X43500D01*
X48650Y39500D02*X43250D01*
X43500Y40000D02*X43000Y40500D01*
X43250Y39500D02*X42750Y40000D01*
X43000Y34000D02*X42500Y34500D01*
X42000D01*
X42100Y35000D02*X43000D01*
X42100Y37000D02*X43000D01*
X42100Y36000D02*X43000D01*
X42100Y36500D02*X43250D01*
X42100Y35500D02*X43250D01*
Y37500D02*X42000D01*
X39400D02*X38750D01*
X38250Y38000D01*
X37500D01*
X39400D02*X38750D01*
X37500Y37000D02*X39500D01*
X42750Y40000D02*X39250D01*
X43000Y40500D02*X39000D01*
X38750Y38000D02*X37750Y39000D01*
X39000Y40500D02*X38500Y40000D01*
X37750Y39000D02*X37500D01*
X39000Y35000D02*X39500D01*
X38500Y33500D02*Y34500D01*
X39000Y35000D01*
X33000Y29850D02*Y30500D01*
X56600Y17850D02*Y18900D01*
X54000Y17250D02*X54600Y17850D01*
X56000Y17250D02*X56600Y17850D01*
X52000Y17250D02*X52600Y17850D01*
X50600D02*Y18900D01*
X48600Y17850D02*Y18900D01*
X52600Y17850D02*Y18900D01*
X46600Y17850D02*Y18900D01*
X54600Y17850D02*Y18900D01*
X44600Y17850D02*Y18900D01*
X50000Y17250D02*X50600Y17850D01*
X48000Y17250D02*X48600Y17850D01*
X46000Y17250D02*X46600Y17850D01*
X44000Y17250D02*X44600Y17850D01*
X58000Y15250D02*Y16250D01*
X60000Y15250D02*Y16250D01*
X62000Y15250D02*Y16250D01*
X56000Y15250D02*Y16250D01*
X50000Y15250D02*Y16250D01*
X48000Y15250D02*Y16250D01*
X54000Y15250D02*Y16250D01*
X52000Y15250D02*Y16250D01*
G54D15*X44000Y14250D02*X58000D01*
G54D14*X46000Y15250D02*Y16250D01*
X42000Y15250D02*Y16250D01*
X44000Y15250D02*Y16250D01*
X40000Y15250D02*Y16250D01*
X38000Y15250D02*Y16250D01*
X36000Y15250D02*Y16250D01*
X34000Y15250D02*Y16250D01*
X32000Y15250D02*Y16250D01*
X42600Y17850D02*Y18900D01*
X40000Y17250D02*X40600Y17850D01*
X42000Y17250D02*X42600Y17850D01*
X38000Y17250D02*X38600Y17850D01*
X36600D02*Y18900D01*
X34600Y17850D02*Y18900D01*
X38600Y17850D02*Y18900D01*
X32600Y17850D02*Y18900D01*
X40600Y17850D02*Y18900D01*
X30600Y17850D02*Y18900D01*
X36000Y17250D02*X36600Y17850D01*
X34000Y17250D02*X34600Y17850D01*
X32000Y17250D02*X32600Y17850D01*
X30000Y17250D02*X30600Y17850D01*
G54D15*X47140Y10000D02*X48250D01*
X49841Y8200D02*X46900D01*
X48750Y9250D02*X45150D01*
X45000Y10250D02*Y8000D01*
X43500Y8250D02*Y10250D01*
X43750D02*Y8000D01*
X45000D02*X43500D01*
X45000Y10250D02*X43500D01*
X42250Y6750D02*Y8000D01*
X42750Y13000D02*Y10500D01*
X42000Y11041D02*Y10250D01*
G54D14*X43000Y19780D02*Y20500D01*
X41000Y19780D02*Y20500D01*
X45000Y21500D02*Y19750D01*
X43000Y20500D02*X41000Y22500D01*
G54D15*X44000Y14250D02*X42750Y13000D01*
G54D14*X41000Y20500D02*X39500Y22000D01*
X40000Y23750D02*Y26500D01*
X43750Y25250D02*Y24000D01*
X39500Y23500D02*Y26500D01*
X39000Y23250D02*Y26500D01*
X38500Y23000D02*Y26500D01*
X38000Y23500D02*Y26500D01*
X37500Y24000D02*Y26500D01*
X37000Y24500D02*Y26500D01*
X36500Y25000D02*Y26500D01*
X33000Y22500D02*Y19750D01*
X32500Y26250D02*Y21500D01*
X32000Y26250D02*Y22000D01*
X31500Y25650D02*Y22500D01*
X31000Y21000D02*Y19750D01*
Y26250D02*Y23000D01*
X33750Y24000D02*X36250Y21500D01*
X34000Y24500D02*X36500Y22000D01*
X33500Y23500D02*X36000Y21000D01*
X36750Y22500D02*X34250Y25000D01*
X33250Y23000D02*X35000Y21250D01*
X32000Y22000D02*X31000Y21000D01*
X29500Y25650D02*Y24500D01*
X30000Y26250D02*Y24000D01*
X30500Y25650D02*Y23500D01*
X29000Y25650D02*Y25000D01*
X39000Y20500D02*X38000Y21500D01*
X39500Y22000D02*X36500D01*
X41000Y22500D02*X36750D01*
X38000Y21500D02*X36250D01*
X36000Y21000D02*X36500D01*
X37000Y20500D01*
Y19750D01*
X35000Y21250D02*Y19750D01*
X39000Y19780D02*Y20500D01*
G54D15*X42000Y14250D02*X26000D01*
G54D14*X35250Y36000D02*X33750Y37500D01*
X34500Y35250D02*X34000D01*
X35250Y32500D02*Y36000D01*
X33500Y34250D02*X34500D01*
X32500Y31500D02*X33250Y32250D01*
X35000D02*X35250Y32500D01*
X32350Y32250D02*X35000D01*
X33000Y33750D02*X33500Y34250D01*
X34000Y35250D02*X33000Y34250D01*
X32350Y34750D02*X32750D01*
X32350Y33750D02*X33000D01*
X32750Y34750D02*X33000Y35000D01*
Y34250D02*X32250D01*
X34500Y33250D02*X32250D01*
X29650Y34750D02*X28250D01*
X29650Y35250D02*X28750D01*
X28250Y34750D02*X27750Y35250D01*
X27250D01*
X28750D02*X27750Y36250D01*
X27250D01*
X28750Y32750D02*X29750D01*
X28250Y32250D02*X28750Y32750D01*
Y33750D02*X28250Y33250D01*
X27250Y32250D02*X28250D01*
X29650Y33750D02*X28750D01*
X28250Y33250D02*X27250D01*
Y34250D02*X29750D01*
X21000Y37500D02*X33750D01*
X19750Y36250D02*X21000Y37500D01*
X27000Y19780D02*Y20500D01*
X25000Y19780D02*Y20500D01*
X29000Y21500D02*Y19750D01*
X27000Y20500D02*X25000Y22500D01*
Y20500D02*X23500Y22000D01*
X23000Y19780D02*Y20500D01*
X22000Y21500D01*
X23500Y22000D02*X20500D01*
X25000Y22500D02*X20750D01*
X22000Y21500D02*X20250D01*
X20000Y21000D02*X20500D01*
X21000Y20500D01*
Y19750D01*
X19000Y21250D02*Y19750D01*
X32500Y29850D02*Y31500D01*
X32000Y29850D02*Y31250D01*
X31500Y29850D02*Y31000D01*
X31000Y29850D02*Y30750D01*
X30500Y29850D02*Y31000D01*
X30000Y29850D02*Y30500D01*
X29500Y29850D02*Y31750D01*
X29000Y29850D02*Y31500D01*
X28250Y27750D02*X28000D01*
X25250Y30500D01*
X17250D01*
X17000Y34250D02*X18000Y35250D01*
X18500D01*
X16750Y34750D02*X17000Y35000D01*
X19250Y32500D02*Y39000D01*
X16750Y41500D02*X19250Y39000D01*
X16350Y34750D02*X16750D01*
X17500Y34250D02*X18500D01*
X17000Y33750D02*X17500Y34250D01*
X16350D02*X17000D01*
X15700Y33750D02*X17000D01*
X16000Y36250D02*X18750D01*
X15500Y35750D02*X16000Y36250D01*
X17000Y22500D02*Y19750D01*
X16500Y26250D02*Y21500D01*
X15500Y25650D02*Y22500D01*
X16000Y26250D02*Y22000D01*
X15000Y26250D02*Y23000D01*
X14500Y25650D02*Y23500D01*
X14000Y26250D02*Y24000D01*
X13500Y25650D02*Y24500D01*
X13000Y25650D02*Y25000D01*
X16500Y29850D02*Y31500D01*
X17250Y30500D02*X17000Y30250D01*
X16000Y29850D02*Y31250D01*
X15500Y29850D02*Y31000D01*
X15000Y29850D02*Y30750D01*
X14500Y29850D02*Y31000D01*
X14000Y29850D02*Y30500D01*
X17000Y30250D02*Y29750D01*
X13500Y29850D02*Y31750D01*
X13000Y29850D02*Y31500D01*
X19000Y32250D02*X19250Y32500D01*
X16350Y32250D02*X19000D01*
X13250Y35250D02*X13000Y35500D01*
X13250Y35750D01*
X14500D01*
X13000Y34750D02*X12500Y35250D01*
X13650Y33750D02*X12750D01*
X13650Y34750D02*X13000D01*
X13650Y34250D02*X11500D01*
X13650Y35250D02*X13250D01*
X12500D02*X11500D01*
X13650Y32750D02*X13000D01*
X12500Y32250D01*
X16500Y31500D02*X17250Y32250D01*
X12500D02*X11500D01*
X18500Y33250D02*X16000D01*
X12750Y33750D02*X12250Y33250D01*
X11500D01*
X28600Y17850D02*Y18900D01*
X28000Y17250D02*X28600Y17850D01*
X26000Y17250D02*X26600Y17850D01*
X24600D02*Y18900D01*
X26600Y17850D02*Y18900D01*
X24000Y17250D02*X24600Y17850D01*
X22600D02*Y18900D01*
X22000Y17250D02*X22600Y17850D01*
X20600D02*Y18900D01*
X20000Y17250D02*X20600Y17850D01*
X22500Y26400D02*Y23000D01*
X22000Y26400D02*Y23500D01*
X21500Y26400D02*Y24000D01*
X21000Y26400D02*Y24500D01*
X23500Y26400D02*Y23500D01*
X24000Y26400D02*Y23750D01*
X23000Y26400D02*Y23250D01*
X20500Y26400D02*Y25000D01*
X17750Y24000D02*X20250Y21500D01*
X17500Y23500D02*X20000Y21000D01*
X18000Y24500D02*X20500Y22000D01*
X17250Y23000D02*X19000Y21250D01*
X20750Y22500D02*X18250Y25000D01*
X16000Y22000D02*X15000Y21000D01*
G54D15*X17881Y8159D02*X17841Y8200D01*
X14900D01*
X16631Y9340D02*X16591Y9300D01*
X15140Y10000D02*X16250D01*
X16500Y10250D01*
X15080Y10060D02*X15140Y10000D01*
X13000Y9250D02*X16750D01*
G54D14*X18000Y15250D02*Y16250D01*
X16000Y15250D02*Y16250D01*
X16600Y17850D02*Y18900D01*
X18000Y17250D02*X18600Y17850D01*
X16000Y17250D02*X16600Y17850D01*
X18600D02*Y18900D01*
X15000Y21000D02*Y19750D01*
X14600Y17850D02*Y18900D01*
X14000Y17250D02*X14600Y17850D01*
X14000Y15250D02*Y16250D01*
X13000Y21500D02*Y19750D01*
X12000Y15250D02*Y16250D01*
X12600Y17850D02*Y18900D01*
X12000Y17250D02*X12600Y17850D01*
X30000Y15250D02*Y16250D01*
X28000Y15250D02*Y16250D01*
X24000Y15250D02*Y16250D01*
X26000Y15250D02*Y16250D01*
X22000Y15250D02*Y16250D01*
X20000Y15250D02*Y16250D01*
G54D15*X12000Y14250D02*X26000D01*
X13000Y10250D02*Y8000D01*
X12310Y9600D02*X11660Y10250D01*
X11500D01*
X11750Y10000D01*
Y8250D01*
X11500Y10250D02*X13000D01*
X11750Y8000D02*X11500Y8250D01*
Y10250D01*
X13000Y8000D02*X11500D01*
X10750Y13000D02*Y10500D01*
X12000Y14250D02*X10750Y13000D01*
X10250Y6750D02*Y8000D01*
X10000Y11041D02*Y10250D01*
X9881Y11159D02*X10000Y11041D01*
G54D17*X143500Y15000D03*
X142500Y16000D03*
G54D18*X138000Y14250D03*
Y15250D03*
Y16250D03*
G54D19*Y17250D03*
G54D18*X136000Y14250D03*
Y15250D03*
Y16250D03*
G54D19*Y17250D03*
G54D20*Y9750D03*
G54D18*X134000Y14250D03*
G54D13*X137000Y9750D03*
G54D18*X134000Y15250D03*
Y16250D03*
G54D19*Y17250D03*
G54D17*X139000Y26750D03*
X137000Y30500D03*
X136000D03*
Y31500D03*
X135000D03*
Y32500D03*
X134000Y33500D03*
X133000D03*
Y34500D03*
X134000Y32500D03*
X132000Y34500D03*
G54D18*Y14250D03*
Y15250D03*
Y16250D03*
G54D19*Y17250D03*
G54D18*X130000Y14250D03*
Y15250D03*
Y16250D03*
G54D19*Y17250D03*
G54D18*X128000Y14250D03*
Y15250D03*
Y16250D03*
G54D19*Y17250D03*
G54D18*X126000Y14250D03*
Y15250D03*
Y16250D03*
G54D19*Y17250D03*
G54D18*X124000Y15250D03*
Y16250D03*
G54D19*Y17250D03*
G54D18*X122000Y15250D03*
Y16250D03*
G54D19*Y17250D03*
G54D18*X120000Y15250D03*
Y16250D03*
G54D19*Y17250D03*
G54D18*X124000Y14250D03*
X122000D03*
X120000D03*
X118000D03*
Y15250D03*
Y16250D03*
G54D19*Y17250D03*
G54D18*X116000Y16250D03*
G54D19*Y17250D03*
G54D18*X114000Y15250D03*
Y16250D03*
X112000Y14250D03*
G54D19*X114000Y17250D03*
G54D18*X112000Y15250D03*
Y16250D03*
G54D19*Y17250D03*
G54D18*X116000Y14250D03*
X110000D03*
X106000D03*
X104000D03*
X102000D03*
X116000Y15250D03*
X110000D03*
X104000D03*
X102000D03*
X108000Y14250D03*
Y15250D03*
Y16250D03*
G54D19*Y17250D03*
G54D18*X106000Y15250D03*
Y16250D03*
G54D19*Y17250D03*
G54D18*X104000Y16250D03*
G54D19*Y17250D03*
G54D18*X102000Y16250D03*
G54D19*Y17250D03*
G54D18*X100000Y16250D03*
G54D19*Y17250D03*
G54D18*Y14250D03*
X98000D03*
X100000Y15250D03*
X98000D03*
Y16250D03*
G54D19*Y17250D03*
G54D18*X110000Y16250D03*
G54D19*Y17250D03*
G54D17*X123750Y24000D03*
X107750D03*
X91750D03*
G54D18*X96000Y14250D03*
Y15250D03*
Y16250D03*
G54D19*Y17250D03*
G54D18*X94000Y14250D03*
Y15250D03*
Y16250D03*
G54D19*Y17250D03*
G54D18*X92000Y16250D03*
G54D19*Y17250D03*
G54D17*X106250Y6750D03*
G54D18*X114000Y14250D03*
X92000D03*
X90000D03*
X88000D03*
X92000Y15250D03*
X90000D03*
Y16250D03*
G54D19*Y17250D03*
G54D18*X88000Y15250D03*
Y16250D03*
G54D19*Y17250D03*
G54D18*X86000Y14250D03*
Y15250D03*
Y16250D03*
G54D19*Y17250D03*
G54D18*X84000Y14250D03*
Y15250D03*
Y16250D03*
G54D19*Y17250D03*
G54D18*X82000Y15250D03*
Y16250D03*
G54D19*Y17250D03*
G54D18*Y14250D03*
X80000D03*
Y15250D03*
Y16250D03*
G54D19*Y17250D03*
G54D18*X78000Y14250D03*
X76000D03*
X78000Y15250D03*
Y16250D03*
G54D19*Y17250D03*
G54D18*X76000Y15250D03*
Y16250D03*
G54D19*Y17250D03*
G54D18*X74000Y16250D03*
G54D19*Y17250D03*
G54D17*X74250Y6750D03*
G54D18*X74000Y15250D03*
X72000D03*
Y16250D03*
G54D19*Y17250D03*
G54D18*X74000Y14250D03*
X72000D03*
X70000D03*
Y15250D03*
Y16250D03*
G54D19*Y17250D03*
G54D18*X66000Y14250D03*
Y15250D03*
Y16250D03*
G54D19*Y17250D03*
G54D18*X68000Y14250D03*
X64000D03*
X68000Y15250D03*
X64000D03*
X68000Y16250D03*
X64000D03*
G54D19*X68000Y17250D03*
X64000D03*
G54D18*X62000Y14250D03*
Y15250D03*
X60000Y14250D03*
Y15250D03*
X62000Y16250D03*
X60000D03*
X58000D03*
X56000D03*
G54D19*X62000Y17250D03*
X60000D03*
X58000D03*
X56000D03*
G54D18*X58000Y14250D03*
Y15250D03*
X56000Y14250D03*
X54000D03*
X56000Y15250D03*
X54000D03*
G54D19*Y17250D03*
X48000D03*
X46000D03*
G54D18*X52000Y15250D03*
Y16250D03*
G54D19*Y17250D03*
G54D18*Y14250D03*
X50000D03*
Y15250D03*
Y16250D03*
G54D19*Y17250D03*
G54D18*X48000Y14250D03*
Y15250D03*
X54000Y16250D03*
X48000D03*
X46000D03*
G54D17*X42250Y6750D03*
G54D13*X59000Y38000D03*
G54D17*X59750Y24000D03*
G54D13*X59000Y39000D03*
G54D17*X75750Y24000D03*
G54D13*X59000Y40000D03*
X58750Y43750D03*
X57750D03*
X59750D03*
X56750D03*
X55750D03*
G54D20*X54750D03*
G54D17*X51250Y45750D03*
G54D13*X59000Y41000D03*
G54D17*X46500D03*
G54D13*X56000Y38000D03*
Y39000D03*
Y40000D03*
G54D20*Y41000D03*
G54D17*X43750Y24000D03*
X43000Y34000D03*
X39000Y41750D03*
X37500Y37000D03*
Y38000D03*
X38500Y33500D03*
X37500Y39000D03*
X34500Y33250D03*
Y34250D03*
Y32250D03*
Y35250D03*
G54D13*X33750Y39250D03*
Y41250D03*
X29750Y40250D03*
G54D17*X27250Y32250D03*
Y33250D03*
Y34250D03*
Y35250D03*
Y36250D03*
X18500Y33250D03*
Y32250D03*
Y34250D03*
Y35250D03*
G54D18*X16750Y38500D03*
Y41500D03*
G54D17*X11500Y32250D03*
Y33250D03*
Y35250D03*
X11250Y23500D03*
X11500Y34250D03*
X11250Y24500D03*
G54D18*X10750Y38500D03*
Y41500D03*
X44000Y16250D03*
G54D19*Y17250D03*
G54D18*X46000Y14250D03*
Y15250D03*
X44000Y14250D03*
Y15250D03*
X42000Y16250D03*
G54D19*Y17250D03*
G54D18*X40000Y16250D03*
G54D19*Y17250D03*
G54D18*X42000Y14250D03*
Y15250D03*
X40000Y14250D03*
Y15250D03*
X38000D03*
Y16250D03*
G54D19*Y17250D03*
G54D18*Y14250D03*
X36000D03*
Y15250D03*
Y16250D03*
G54D19*Y17250D03*
G54D18*X34000Y14250D03*
Y15250D03*
Y16250D03*
G54D19*Y17250D03*
G54D18*X32000Y14250D03*
Y15250D03*
Y16250D03*
G54D19*Y17250D03*
G54D18*X30000Y14250D03*
Y15250D03*
Y16250D03*
X28000Y14250D03*
G54D19*X30000Y17250D03*
G54D18*X28000Y15250D03*
Y16250D03*
G54D19*Y17250D03*
G54D18*X26000Y14250D03*
Y15250D03*
Y16250D03*
G54D19*Y17250D03*
G54D18*X24000Y14250D03*
X22000D03*
X20000D03*
X18000D03*
X24000Y15250D03*
X22000D03*
X20000D03*
X18000D03*
X16000D03*
X14000D03*
X24000Y16250D03*
X22000D03*
X20000D03*
X18000D03*
X16000D03*
X14000D03*
G54D19*X24000Y17250D03*
X22000D03*
X20000D03*
X18000D03*
X16000D03*
X14000D03*
G54D18*X12000Y15250D03*
Y16250D03*
G54D19*Y17250D03*
G54D18*X16000Y14250D03*
X14000D03*
X12000D03*
G54D17*X10250Y6750D03*
G54D21*X142500Y18750D03*
Y19750D03*
X142250Y19250D03*
X142000Y19750D03*
X142500Y20750D03*
X142250Y20250D03*
X142000Y20750D03*
X141750Y20250D03*
X141500Y20750D03*
X141250Y20250D03*
X141500Y19750D03*
X141250Y19250D03*
X141750D03*
X141000Y19750D03*
X142000Y18750D03*
X141500D03*
X141000D03*
X140500D03*
X140750Y19250D03*
X140500Y19750D03*
X140250Y19250D03*
X141000Y20750D03*
X140500D03*
X140750Y20250D03*
X140250D03*
G54D22*X145000Y5000D03*
G54D13*X127750Y7000D03*
G54D21*X136250Y20500D03*
X134250D03*
X138250D03*
X132250D03*
X130250D03*
X114000Y11000D03*
G54D13*X112500Y10250D03*
X129500Y9750D03*
X106000Y13000D03*
G54D21*X134500Y23000D03*
X135500Y23500D03*
X136000Y23750D03*
X135000Y23250D03*
X134000Y23500D03*
X129500D03*
X128500Y21500D03*
X128250Y20500D03*
X128000Y22000D03*
X127500Y22500D03*
X129000D03*
X127000Y23000D03*
X129250D03*
X126500Y23500D03*
X126250Y20500D03*
X133000Y24500D03*
X130000D03*
X133500Y24000D03*
X129750D03*
X126000D03*
X125500Y24500D03*
X131250Y26750D03*
X130250Y25000D03*
X132500D03*
X125000D03*
Y21500D03*
X124250Y20500D03*
X119500Y23500D03*
X119000Y23250D03*
X120000Y23750D03*
X118500Y23000D03*
X118000Y23500D03*
X118250Y20500D03*
X120250D03*
X116250D03*
X122250D03*
X114250D03*
X115250Y26750D03*
X112500Y21500D03*
X112250Y20500D03*
X112000Y22000D03*
X113000Y22500D03*
X113250Y23000D03*
X111500Y22500D03*
X113500Y23500D03*
X111000Y23000D03*
X110500Y23500D03*
X117500Y24000D03*
X117000Y24500D03*
X114000D03*
X113750Y24000D03*
X110000D03*
X109500Y24500D03*
X114250Y25000D03*
X116500D03*
X109000D03*
X93000D03*
X129000Y30500D03*
Y31500D03*
Y32500D03*
Y33500D03*
Y34500D03*
X128500Y36500D03*
X128000Y31500D03*
X128500Y31000D03*
X127500Y32000D03*
X127000Y32500D03*
X126500Y33000D03*
X126000Y33500D03*
X125500Y34000D03*
X126500Y35500D03*
X127500Y36000D03*
X125500Y35000D03*
G54D22*X145000Y45000D03*
G54D21*X125000Y34500D03*
X123750Y35000D03*
X113000Y30500D03*
X112000Y31500D03*
X112500Y31000D03*
X111500Y32000D03*
X111000Y32500D03*
X110500Y33000D03*
X110000Y33500D03*
X109500Y34000D03*
X109000Y34500D03*
X107750Y35500D03*
X110250Y20500D03*
X109000Y21500D03*
X108250Y20500D03*
X106250D03*
X104250D03*
X103500Y23500D03*
X104000Y23750D03*
X103000Y23250D03*
X102500Y23000D03*
X102000Y23500D03*
X98250Y25000D03*
X98000Y24500D03*
X100500Y25000D03*
X97750Y24000D03*
X101000Y24500D03*
X101500Y24000D03*
X94000D03*
X96000Y31500D03*
X96500Y31000D03*
X95500Y32000D03*
X97000Y30500D03*
X96000Y22000D03*
X93500Y24500D03*
X94500Y33000D03*
X94000Y33500D03*
X95000Y32500D03*
X93500Y34000D03*
X93000Y34500D03*
X91750Y36000D03*
X81000Y30500D03*
X80000Y31500D03*
X80500Y31000D03*
X79500Y32000D03*
X79000Y32500D03*
X78500Y33000D03*
X78000Y33500D03*
X77500Y34000D03*
X77000Y34500D03*
X75750Y36500D03*
X82000Y11000D03*
G54D13*X80500Y10250D03*
X74000Y13000D03*
G54D21*X100250Y20500D03*
X102250D03*
X98250D03*
X96500Y21500D03*
X97000Y22500D03*
X97250Y23000D03*
X95500Y22500D03*
X95000Y23000D03*
X94500Y23500D03*
X93000Y21500D03*
X99250Y26750D03*
X97500Y23500D03*
X96250Y20500D03*
X94250D03*
X92250D03*
X90250D03*
X88250D03*
X87500Y23500D03*
X88000Y23750D03*
X87000Y23250D03*
X86500Y23000D03*
X86000Y23500D03*
X85500Y24000D03*
X85000Y24500D03*
X84500Y25000D03*
X83250Y26750D03*
X82250Y25000D03*
X81750Y24000D03*
X82000Y24500D03*
X81500Y23500D03*
X81250Y23000D03*
X81000Y22500D03*
X80500Y21500D03*
X79000Y23000D03*
X78500Y23500D03*
X78000Y24000D03*
X80000Y22000D03*
X79500Y22500D03*
X77000Y21500D03*
X86250Y20500D03*
X82250D03*
X84250D03*
X80250D03*
X78250D03*
X76250D03*
X74250D03*
X72250D03*
X70250D03*
X71500Y23500D03*
X71000Y23250D03*
X72000Y23750D03*
X70500Y23000D03*
X70000Y23500D03*
X69500Y24000D03*
X77500Y24500D03*
X77000Y25000D03*
X69000Y24500D03*
X68500Y25000D03*
X65750Y24000D03*
X64000Y22000D03*
X66250Y25000D03*
X66000Y24500D03*
X61500D03*
X61000Y25000D03*
X68250Y20500D03*
X64250D03*
X66250D03*
X62250D03*
X60250D03*
X58250D03*
X56250D03*
X54250D03*
X52250D03*
X67250Y26750D03*
X65500Y23500D03*
X63500Y22500D03*
X63000Y23000D03*
X62500Y23500D03*
X65000Y22500D03*
X65250Y23000D03*
X62000Y24000D03*
X55000Y23250D03*
X54500Y23000D03*
X55500Y23500D03*
X54000D03*
X56000Y23750D03*
X53500Y24000D03*
X53000Y24500D03*
X52500Y25000D03*
X45500Y24500D03*
X45000Y25000D03*
X64500Y21500D03*
X61000D03*
X48500D03*
X48000Y22000D03*
X45000Y21500D03*
X50250Y25000D03*
X50000Y24500D03*
X51250Y26750D03*
X49750Y24000D03*
X49250Y23000D03*
X49000Y22500D03*
X49500Y23500D03*
X47500Y22500D03*
X47000Y23000D03*
X46500Y23500D03*
X46000Y24000D03*
X39000Y23250D03*
X38500Y23000D03*
X39500Y23500D03*
X38000D03*
X40000Y23750D03*
X37500Y24000D03*
X37000Y24500D03*
X36500Y25000D03*
X50250Y20500D03*
X48250D03*
X44250D03*
X46250D03*
X42250D03*
G54D13*X48500Y10250D03*
G54D21*X50000Y11000D03*
G54D13*X42000Y13000D03*
G54D21*X40250Y20500D03*
X38250D03*
X36250D03*
X34250D03*
X65000Y30500D03*
X64000Y31500D03*
X64500Y31000D03*
X63500Y32000D03*
X63000Y32500D03*
X62500Y33000D03*
X62000Y33500D03*
X61500Y34000D03*
X61000Y34500D03*
X61500Y40000D03*
X62000Y39000D03*
X61000Y41000D03*
X59750Y37000D03*
X58750Y30500D03*
X58250Y32000D03*
G54D13*X57750Y26750D03*
G54D21*X57500Y32500D03*
X50000Y31000D03*
X49000Y30500D03*
X48000Y31500D03*
X48500Y31000D03*
X47500Y32000D03*
X47000Y32500D03*
X46500Y33000D03*
X46000Y33500D03*
X53500Y33000D03*
X45500Y34000D03*
G54D13*X41500Y33250D03*
G54D21*X38750Y35500D03*
X53500Y39000D03*
Y39500D03*
Y40000D03*
X51750Y43250D03*
X45000Y34500D03*
X43250Y35500D03*
Y36500D03*
X43000Y35000D03*
Y36000D03*
X51250Y43500D03*
X50000Y41500D03*
X48000Y42000D03*
Y44000D03*
X47500Y42500D03*
X43000Y37000D03*
X42750Y39000D03*
X39250Y40000D03*
X38500D03*
X33500Y23500D03*
X33750Y24000D03*
X33250Y23000D03*
X35250Y26750D03*
X33000Y22500D03*
X32500Y21500D03*
X31500Y22500D03*
X32000Y22000D03*
X31000Y23000D03*
G54D13*X41500Y26750D03*
G54D21*X34250Y25000D03*
X34000Y24500D03*
X29500D03*
X29000Y25000D03*
X28500Y24500D03*
X33000Y35000D03*
X30000Y24000D03*
X33000Y30500D03*
X32000Y31250D03*
X31500Y31000D03*
X31000Y30750D03*
X30500Y23500D03*
Y31000D03*
X30000Y30500D03*
G54D13*Y37000D03*
G54D21*X29500Y31750D03*
X29000Y21500D03*
Y31500D03*
Y32750D03*
X28250Y27750D03*
X27750Y30000D03*
X32250Y20500D03*
X30250D03*
X28250D03*
X26250D03*
X22250D03*
X24250D03*
X20250D03*
X23000Y23250D03*
X24000Y23750D03*
X23500Y23500D03*
X22500Y23000D03*
X22000Y23500D03*
X21500Y24000D03*
X21000Y24500D03*
X20500Y25000D03*
X18250D03*
X19250Y26750D03*
X18000Y24500D03*
Y11000D03*
X17750Y24000D03*
X17500Y23500D03*
G54D13*X16500Y10250D03*
G54D21*X17000Y22500D03*
X17250Y23000D03*
X16500Y21500D03*
X16000Y22000D03*
X15500Y22500D03*
X14000Y24000D03*
X13500Y24500D03*
X13000Y25000D03*
X15000Y23000D03*
X14500Y23500D03*
X13000Y21500D03*
X18250Y20500D03*
X16250D03*
X14250D03*
X12250D03*
X12500Y24500D03*
G54D13*X11250Y26750D03*
X10000Y13000D03*
G54D22*X5000Y5000D03*
G54D21*X16000Y31250D03*
X17000Y35000D03*
X18750Y36250D03*
X15500Y35750D03*
X19750Y36250D03*
X14500Y35750D03*
X13000Y32750D03*
X14000Y30500D03*
X14500Y31000D03*
X13500Y31750D03*
X15000Y30750D03*
X15500Y31000D03*
X13000Y31500D03*
X11750Y29750D03*
G54D13*X10750Y36250D03*
X8250Y38750D03*
G54D22*X5000Y45000D03*
G54D23*X143590Y17618D02*Y17381D01*
X142409Y17618D02*Y17381D01*
G54D24*X142250Y24830D02*Y24170D01*
X141350Y24830D02*Y24170D01*
G54D25*X140900Y22060D02*X141800D01*
G54D24*X140440Y24830D02*Y24170D01*
G54D26*X139000Y19780D02*Y19720D01*
X138610Y18960D02*Y18900D01*
X138220Y19780D02*Y19720D01*
X137000Y19780D02*Y19720D01*
X136610Y18960D02*Y18900D01*
X136220Y19780D02*Y19720D01*
X135000Y19780D02*Y19720D01*
X134610Y18960D02*Y18900D01*
X134220Y19780D02*Y19720D01*
X133000Y19780D02*Y19720D01*
X132610Y18960D02*Y18900D01*
X132220Y19780D02*Y19720D01*
X131000Y19780D02*Y19720D01*
X130610Y18960D02*Y18900D01*
X130220Y19780D02*Y19720D01*
X129000Y19780D02*Y19720D01*
X128610Y18960D02*Y18900D01*
X128220Y19780D02*Y19720D01*
G54D23*X141340Y26118D02*Y25881D01*
Y27118D02*Y26881D01*
X140159Y26118D02*Y25881D01*
Y27118D02*Y26881D01*
X141340Y28118D02*Y27881D01*
X140159Y28118D02*Y27881D01*
G54D27*X136000Y29100D02*Y28450D01*
X135500Y29100D02*Y28450D01*
X135000Y29100D02*Y28450D01*
X134500Y29100D02*Y28450D01*
X135000Y27050D02*Y26400D01*
X134500Y27050D02*Y26400D01*
X135500Y27050D02*Y26400D01*
X134000Y27050D02*Y26400D01*
X136000Y27050D02*Y26400D01*
X133500Y27050D02*Y26400D01*
X133000Y27050D02*Y26400D01*
X132500Y27050D02*Y26400D01*
X134000Y29100D02*Y28450D01*
X133500Y29100D02*Y28450D01*
X133000Y29100D02*Y28450D01*
X132500Y29100D02*Y28450D01*
G54D23*X131131Y28590D02*X131368D01*
X131131Y27409D02*X131368D01*
X130131D02*X130368D01*
X130131Y28590D02*X130368D01*
G54D27*X129000Y29850D02*Y29250D01*
X128500Y29850D02*Y29250D01*
X128000Y29850D02*Y29250D01*
X127500Y29850D02*Y29250D01*
X127000Y29850D02*Y29250D01*
X126500Y29850D02*Y29250D01*
X127000Y26250D02*Y25650D01*
X127500Y26250D02*Y25650D01*
X126500Y26250D02*Y25650D01*
X126000Y26250D02*Y25650D01*
X128000Y26250D02*Y25650D01*
X128500Y26250D02*Y25650D01*
X126000Y29850D02*Y29250D01*
X129000Y26250D02*Y25650D01*
X125500Y29850D02*Y29250D01*
X125000Y29850D02*Y29250D01*
Y26250D02*Y25650D01*
X124500Y26250D02*Y25650D01*
X125500Y26250D02*Y25650D01*
X124500Y29850D02*Y29250D01*
X120000Y27050D02*Y26400D01*
Y29100D02*Y28450D01*
X119500Y27050D02*Y26400D01*
Y29100D02*Y28450D01*
X119000Y27050D02*Y26400D01*
Y29100D02*Y28450D01*
X118500Y27050D02*Y26400D01*
Y29100D02*Y28450D01*
X118000Y29100D02*Y28450D01*
X117500Y29100D02*Y28450D01*
X117000Y29100D02*Y28450D01*
X116500Y29100D02*Y28450D01*
X117000Y27050D02*Y26400D01*
X117500Y27050D02*Y26400D01*
X118000Y27050D02*Y26400D01*
X116500Y27050D02*Y26400D01*
G54D23*X115131Y27409D02*X115368D01*
X115131Y28590D02*X115368D01*
X114131Y27409D02*X114368D01*
X114131Y28590D02*X114368D01*
G54D27*X113000Y29850D02*Y29250D01*
X112500Y29850D02*Y29250D01*
X112000Y29850D02*Y29250D01*
X111500Y29850D02*Y29250D01*
X111000Y29850D02*Y29250D01*
Y26250D02*Y25650D01*
X111500Y26250D02*Y25650D01*
X110500Y26250D02*Y25650D01*
X112000Y26250D02*Y25650D01*
X110500Y29850D02*Y29250D01*
X110000Y29850D02*Y29250D01*
X109500Y29850D02*Y29250D01*
X109000Y29850D02*Y29250D01*
X113000Y26250D02*Y25650D01*
X112500Y26250D02*Y25650D01*
X108500Y29850D02*Y29250D01*
X110000Y26250D02*Y25650D01*
X109500Y26250D02*Y25650D01*
X109000Y26250D02*Y25650D01*
X108500Y26250D02*Y25650D01*
G54D28*X129660Y7200D02*Y6800D01*
G54D26*X127000Y19780D02*Y19720D01*
X126610Y18960D02*Y18900D01*
G54D29*X132576Y10084D02*Y9415D01*
G54D28*X131840Y7200D02*Y6800D01*
G54D29*X130923Y10084D02*Y9415D01*
G54D26*X126220Y19780D02*Y19720D01*
X125000Y19780D02*Y19720D01*
X124610Y18960D02*Y18900D01*
X124220Y19780D02*Y19720D01*
X123000Y19780D02*Y19720D01*
X122610Y18960D02*Y18900D01*
X122220Y19780D02*Y19720D01*
X121000Y19780D02*Y19720D01*
X120610Y18960D02*Y18900D01*
X120220Y19780D02*Y19720D01*
X119000Y19780D02*Y19720D01*
X118610Y18960D02*Y18900D01*
X118220Y19780D02*Y19720D01*
X117000Y19780D02*Y19720D01*
X116610Y18960D02*Y18900D01*
X116220Y19780D02*Y19720D01*
X115000Y19780D02*Y19720D01*
X114610Y18960D02*Y18900D01*
X112610Y18960D02*Y18900D01*
X110610Y18960D02*Y18900D01*
X114220Y19780D02*Y19720D01*
X113000Y19780D02*Y19720D01*
X112220Y19780D02*Y19720D01*
X111000Y19780D02*Y19720D01*
X110220Y19780D02*Y19720D01*
X109000Y19780D02*Y19720D01*
X108610Y18960D02*Y18900D01*
X108220Y19780D02*Y19720D01*
X107000Y19780D02*Y19720D01*
X106610Y18960D02*Y18900D01*
X106220Y19780D02*Y19720D01*
G54D23*X113881Y8159D02*X114118D01*
X113881Y9340D02*X114118D01*
X112381Y8159D02*X112618D01*
X112381Y9340D02*X112618D01*
G54D24*X110420Y8250D02*X111080D01*
X110420Y9150D02*X111080D01*
X110420Y10060D02*X111080D01*
G54D25*X108310Y9600D02*Y8700D01*
G54D30*X105820Y11250D02*X106180D01*
X105820Y12250D02*X106180D01*
G54D27*X104000Y27050D02*Y26400D01*
Y29100D02*Y28450D01*
X103500Y27050D02*Y26400D01*
Y29100D02*Y28450D01*
X103000Y27050D02*Y26400D01*
Y29100D02*Y28450D01*
X102500Y27050D02*Y26400D01*
Y29100D02*Y28450D01*
X101500Y27050D02*Y26400D01*
X101000Y27050D02*Y26400D01*
X100500Y27050D02*Y26400D01*
X102000Y27050D02*Y26400D01*
Y29100D02*Y28450D01*
X101500Y29100D02*Y28450D01*
X101000Y29100D02*Y28450D01*
X100500Y29100D02*Y28450D01*
G54D26*X105000Y19780D02*Y19720D01*
X104610Y18960D02*Y18900D01*
X104220Y19780D02*Y19720D01*
X103000Y19780D02*Y19720D01*
X102610Y18960D02*Y18900D01*
X102220Y19780D02*Y19720D01*
X101000Y19780D02*Y19720D01*
X100610Y18960D02*Y18900D01*
X100220Y19780D02*Y19720D01*
G54D23*X99131Y27409D02*X99368D01*
X99131Y28590D02*X99368D01*
X98131Y27409D02*X98368D01*
X98131Y28590D02*X98368D01*
G54D27*X97000Y29850D02*Y29250D01*
X96500Y29850D02*Y29250D01*
X96000Y29850D02*Y29250D01*
X95500Y29850D02*Y29250D01*
X95000Y29850D02*Y29250D01*
X94500Y29850D02*Y29250D01*
X94000Y29850D02*Y29250D01*
X93500Y29850D02*Y29250D01*
X93000Y29850D02*Y29250D01*
X92500Y29850D02*Y29250D01*
X95500Y26250D02*Y25650D01*
X95000Y26250D02*Y25650D01*
X94500Y26250D02*Y25650D01*
X94000Y26250D02*Y25650D01*
X96500Y26250D02*Y25650D01*
X97000Y26250D02*Y25650D01*
X96000Y26250D02*Y25650D01*
X93000Y26250D02*Y25650D01*
X93500Y26250D02*Y25650D01*
X92500Y26250D02*Y25650D01*
G54D26*X99000Y19780D02*Y19720D01*
X98220Y19780D02*Y19720D01*
X97000Y19780D02*Y19720D01*
X96220Y19780D02*Y19720D01*
X95000Y19780D02*Y19720D01*
X98610Y18960D02*Y18900D01*
X96610Y18960D02*Y18900D01*
X94610Y18960D02*Y18900D01*
X94220Y19780D02*Y19720D01*
X93000Y19780D02*Y19720D01*
X92610Y18960D02*Y18900D01*
X92220Y19780D02*Y19720D01*
X91000Y19780D02*Y19720D01*
X90610Y18960D02*Y18900D01*
X90220Y19780D02*Y19720D01*
G54D27*X88000Y29100D02*Y28450D01*
X87500Y29100D02*Y28450D01*
Y27050D02*Y26400D01*
X88000Y27050D02*Y26400D01*
X87000Y27050D02*Y26400D01*
Y29100D02*Y28450D01*
X86500Y29100D02*Y28450D01*
X86000Y29100D02*Y28450D01*
X85500Y29100D02*Y28450D01*
X86500Y27050D02*Y26400D01*
X86000Y27050D02*Y26400D01*
X85500Y27050D02*Y26400D01*
X85000Y27050D02*Y26400D01*
X84500Y27050D02*Y26400D01*
G54D23*X83131Y27409D02*X83368D01*
X82131D02*X82368D01*
G54D27*X85000Y29100D02*Y28450D01*
X84500Y29100D02*Y28450D01*
G54D23*X83131Y28590D02*X83368D01*
X82131D02*X82368D01*
G54D27*X81000Y29850D02*Y29250D01*
X80500Y29850D02*Y29250D01*
X80000Y29850D02*Y29250D01*
X79500Y29850D02*Y29250D01*
X79000Y29850D02*Y29250D01*
X78500Y29850D02*Y29250D01*
X78000Y29850D02*Y29250D01*
X77500Y29850D02*Y29250D01*
X77000Y29850D02*Y29250D01*
X76500Y29850D02*Y29250D01*
G54D26*X89000Y19780D02*Y19720D01*
X88220Y19780D02*Y19720D01*
X87000Y19780D02*Y19720D01*
X86220Y19780D02*Y19720D01*
X83000Y19780D02*Y19720D01*
X82610Y18960D02*Y18900D01*
X82220Y19780D02*Y19720D01*
X81000Y19780D02*Y19720D01*
X80610Y18960D02*Y18900D01*
X80220Y19780D02*Y19720D01*
X79000Y19780D02*Y19720D01*
X88610Y18960D02*Y18900D01*
X84610Y18960D02*Y18900D01*
X86610Y18960D02*Y18900D01*
X78610Y18960D02*Y18900D01*
X85000Y19780D02*Y19720D01*
X84220Y19780D02*Y19720D01*
X78220Y19780D02*Y19720D01*
G54D27*X79500Y26250D02*Y25650D01*
X80000Y26250D02*Y25650D01*
X79000Y26250D02*Y25650D01*
X80500Y26250D02*Y25650D01*
X78500Y26250D02*Y25650D01*
X78000Y26250D02*Y25650D01*
X77500Y26250D02*Y25650D01*
X77000Y26250D02*Y25650D01*
X81000Y26250D02*Y25650D01*
X76500Y26250D02*Y25650D01*
G54D26*X77000Y19780D02*Y19720D01*
X76610Y18960D02*Y18900D01*
X76220Y19780D02*Y19720D01*
X75000Y19780D02*Y19720D01*
X74610Y18960D02*Y18900D01*
X74220Y19780D02*Y19720D01*
X73000Y19780D02*Y19720D01*
X72610Y18960D02*Y18900D01*
X72220Y19780D02*Y19720D01*
X70610Y18960D02*Y18900D01*
G54D27*X72000Y27050D02*Y26400D01*
X71500Y27050D02*Y26400D01*
X71000Y27050D02*Y26400D01*
X70500Y27050D02*Y26400D01*
G54D26*X71000Y19780D02*Y19720D01*
X70220Y19780D02*Y19720D01*
X69000Y19780D02*Y19720D01*
G54D27*X72000Y29100D02*Y28450D01*
X71500Y29100D02*Y28450D01*
X71000Y29100D02*Y28450D01*
X70500Y29100D02*Y28450D01*
X70000Y29100D02*Y28450D01*
X69500Y29100D02*Y28450D01*
X69000Y29100D02*Y28450D01*
X68500Y29100D02*Y28450D01*
X69000Y27050D02*Y26400D01*
X69500Y27050D02*Y26400D01*
X70000Y27050D02*Y26400D01*
X68500Y27050D02*Y26400D01*
G54D23*X81881Y8159D02*X82118D01*
X80631D02*X80868D01*
G54D24*X78420Y8250D02*X79080D01*
G54D23*X81881Y9340D02*X82118D01*
G54D24*X78420Y9150D02*X79080D01*
G54D23*X80631Y9340D02*X80868D01*
G54D24*X78420Y10060D02*X79080D01*
G54D25*X76310Y9600D02*Y8700D01*
G54D30*X73820Y11250D02*X74180D01*
X73820Y12250D02*X74180D01*
G54D26*X68610Y18960D02*Y18900D01*
X68220Y19780D02*Y19720D01*
X67000Y19780D02*Y19720D01*
X66610Y18960D02*Y18900D01*
X66220Y19780D02*Y19720D01*
X65000Y19780D02*Y19720D01*
X64610Y18960D02*Y18900D01*
X64220Y19780D02*Y19720D01*
X63000Y19780D02*Y19720D01*
X62610Y18960D02*Y18900D01*
X60610Y18960D02*Y18900D01*
X58610Y18960D02*Y18900D01*
X62220Y19780D02*Y19720D01*
X61000Y19780D02*Y19720D01*
X60220Y19780D02*Y19720D01*
X59000Y19780D02*Y19720D01*
X58220Y19780D02*Y19720D01*
X57000Y19780D02*Y19720D01*
X56220Y19780D02*Y19720D01*
X55000Y19780D02*Y19720D01*
X54220Y19780D02*Y19720D01*
X53000Y19780D02*Y19720D01*
X52220Y19780D02*Y19720D01*
X51000Y19780D02*Y19720D01*
X56610Y18960D02*Y18900D01*
X54610Y18960D02*Y18900D01*
X52610Y18960D02*Y18900D01*
X50610Y18960D02*Y18900D01*
G54D27*X65000Y29850D02*Y29250D01*
X64500Y29850D02*Y29250D01*
X64000Y29850D02*Y29250D01*
X63500Y29850D02*Y29250D01*
X63000Y29850D02*Y29250D01*
X62500Y29850D02*Y29250D01*
X62000Y29850D02*Y29250D01*
X61500Y29850D02*Y29250D01*
X61000Y29850D02*Y29250D01*
X60500Y29850D02*Y29250D01*
X63500Y26250D02*Y25650D01*
X64000Y26250D02*Y25650D01*
X63000Y26250D02*Y25650D01*
X62500Y26250D02*Y25650D01*
X62000Y26250D02*Y25650D01*
X61500Y26250D02*Y25650D01*
X61000Y26250D02*Y25650D01*
X64500Y26250D02*Y25650D01*
X60500Y26250D02*Y25650D01*
X65000Y26250D02*Y25650D01*
G54D23*X66131Y27409D02*X66368D01*
X67131Y28590D02*X67368D01*
X66131D02*X66368D01*
X67131Y27409D02*X67368D01*
G54D27*X55500Y29100D02*Y28450D01*
G54D31*X57690Y29300D02*X57810D01*
X57690Y28200D02*X57810D01*
G54D27*X56000Y29100D02*Y28450D01*
Y27050D02*Y26400D01*
X55500Y27050D02*Y26400D01*
X55000Y27050D02*Y26400D01*
Y29100D02*Y28450D01*
X54500Y29100D02*Y28450D01*
X54000Y29100D02*Y28450D01*
X53500Y29100D02*Y28450D01*
X52250Y38500D02*X52850D01*
X52250Y39000D02*X52850D01*
X52250Y39500D02*X52850D01*
X52250Y40000D02*X52850D01*
X52250Y40500D02*X52850D01*
X52250Y41000D02*X52850D01*
X52250Y41500D02*X52850D01*
X52250Y42000D02*X52850D01*
G54D23*X59090Y45118D02*Y44881D01*
X57909Y45118D02*Y44881D01*
G54D27*X52250Y42500D02*X52850D01*
G54D23*X51840Y37368D02*Y37131D01*
X50659Y37368D02*Y37131D01*
G54D27*X54500Y27050D02*Y26400D01*
X54000Y27050D02*Y26400D01*
X53500Y27050D02*Y26400D01*
X53000Y27050D02*Y26400D01*
G54D23*X55474Y30659D02*X56025D01*
X55474Y31840D02*X56025D01*
X54224Y30659D02*X54775D01*
X54224Y31840D02*X54775D01*
X52974Y30659D02*X53525D01*
X52974Y31840D02*X53525D01*
G54D27*X52500Y27050D02*Y26400D01*
G54D23*X51131Y27409D02*X51368D01*
X50131D02*X50368D01*
G54D27*X53000Y29100D02*Y28450D01*
X52500Y29100D02*Y28450D01*
G54D23*X51131Y28590D02*X51368D01*
X50131D02*X50368D01*
G54D26*X48220Y19780D02*Y19720D01*
X47000Y19780D02*Y19720D01*
X46610Y18960D02*Y18900D01*
X46220Y19780D02*Y19720D01*
X45000Y19780D02*Y19720D01*
X44610Y18960D02*Y18900D01*
X49000Y19780D02*Y19720D01*
X50220Y19780D02*Y19720D01*
X48610Y18960D02*Y18900D01*
X44220Y19780D02*Y19720D01*
G54D23*X49881Y8159D02*X50118D01*
X48631D02*X48868D01*
G54D24*X46420Y8250D02*X47080D01*
G54D23*X49881Y9340D02*X50118D01*
X48631D02*X48868D01*
G54D24*X46420Y9150D02*X47080D01*
X46420Y10060D02*X47080D01*
G54D25*X44310Y9600D02*Y8700D01*
G54D30*X41820Y11250D02*X42180D01*
X41820Y12250D02*X42180D01*
G54D26*X41000Y19780D02*Y19720D01*
X40610Y18960D02*Y18900D01*
X40220Y19780D02*Y19720D01*
X39000Y19780D02*Y19720D01*
X38610Y18960D02*Y18900D01*
X38220Y19780D02*Y19720D01*
X43000Y19780D02*Y19720D01*
X42610Y18960D02*Y18900D01*
X42220Y19780D02*Y19720D01*
X37000Y19780D02*Y19720D01*
X36610Y18960D02*Y18900D01*
X36220Y19780D02*Y19720D01*
G54D27*X48650Y38500D02*X49250D01*
X48650Y39000D02*X49250D01*
X48650Y40000D02*X49250D01*
X48650Y39500D02*X49250D01*
X48650Y40500D02*X49250D01*
X48650Y41000D02*X49250D01*
X48650Y41500D02*X49250D01*
G54D23*X48909Y44118D02*Y43881D01*
G54D27*X48650Y42000D02*X49250D01*
G54D23*X50090Y44118D02*Y43881D01*
G54D27*X48650Y42500D02*X49250D01*
G54D23*X46381Y41909D02*X46618D01*
X46381Y43090D02*X46618D01*
G54D27*X49000Y29850D02*Y29250D01*
X48500Y29850D02*Y29250D01*
X48000Y29850D02*Y29250D01*
X47500Y29850D02*Y29250D01*
X47000Y29850D02*Y29250D01*
X46500Y29850D02*Y29250D01*
X46000Y29850D02*Y29250D01*
X45500Y29850D02*Y29250D01*
X45000Y29850D02*Y29250D01*
X49000Y26250D02*Y25650D01*
X48500Y26250D02*Y25650D01*
X48000Y26250D02*Y25650D01*
X47000Y26250D02*Y25650D01*
X47500Y26250D02*Y25650D01*
X46500Y26250D02*Y25650D01*
X44500Y29850D02*Y29250D01*
X46000Y26250D02*Y25650D01*
X45500Y26250D02*Y25650D01*
X45000Y26250D02*Y25650D01*
X44500Y26250D02*Y25650D01*
X39400Y37000D02*X40050D01*
X39400Y37500D02*X40050D01*
X39400Y38000D02*X40050D01*
X41450Y34500D02*X42100D01*
X39400D02*X40050D01*
X41450Y35000D02*X42100D01*
X39400D02*X40050D01*
X41450Y35500D02*X42100D01*
X39400D02*X40050D01*
G54D23*X42090Y39118D02*Y38881D01*
X40909Y39118D02*Y38881D01*
G54D27*X41450Y36000D02*X42100D01*
X39400D02*X40050D01*
X41450Y36500D02*X42100D01*
X41450Y37000D02*X42100D01*
X41450Y37500D02*X42100D01*
X41450Y38000D02*X42100D01*
X39400Y36500D02*X40050D01*
X40000Y27050D02*Y26400D01*
Y29100D02*Y28450D01*
X39500Y27050D02*Y26400D01*
Y29100D02*Y28450D01*
X39000Y27050D02*Y26400D01*
Y29100D02*Y28450D01*
X38500Y27050D02*Y26400D01*
Y29100D02*Y28450D01*
X37000Y27050D02*Y26400D01*
X37500Y27050D02*Y26400D01*
X36500Y27050D02*Y26400D01*
X38000Y27050D02*Y26400D01*
Y29100D02*Y28450D01*
X37500Y29100D02*Y28450D01*
X37000Y29100D02*Y28450D01*
X36500Y29100D02*Y28450D01*
X31700Y32250D02*X32350D01*
X31700Y32750D02*X32350D01*
X31700Y33250D02*X32350D01*
X31700Y33750D02*X32350D01*
X31700Y34250D02*X32350D01*
X31700Y34750D02*X32350D01*
X31700Y35250D02*X32350D01*
X29650Y32750D02*X30300D01*
X29650Y33250D02*X30300D01*
X29650Y32250D02*X30300D01*
X29650Y33750D02*X30300D01*
X29650Y34250D02*X30300D01*
X29650Y34750D02*X30300D01*
X29650Y35250D02*X30300D01*
G54D23*X35131Y27409D02*X35368D01*
X35131Y28590D02*X35368D01*
X34131Y27409D02*X34368D01*
X34131Y28590D02*X34368D01*
G54D27*X33000Y29850D02*Y29250D01*
X32500Y29850D02*Y29250D01*
X32000Y29850D02*Y29250D01*
G54D26*X35000Y19780D02*Y19720D01*
X34610Y18960D02*Y18900D01*
X34220Y19780D02*Y19720D01*
X33000Y19780D02*Y19720D01*
X32610Y18960D02*Y18900D01*
X32220Y19780D02*Y19720D01*
X31000Y19780D02*Y19720D01*
X30610Y18960D02*Y18900D01*
X30220Y19780D02*Y19720D01*
X29000Y19780D02*Y19720D01*
G54D27*X31500Y29850D02*Y29250D01*
X31000Y29850D02*Y29250D01*
X30500Y29850D02*Y29250D01*
X30000Y29850D02*Y29250D01*
X29500Y29850D02*Y29250D01*
X29000Y29850D02*Y29250D01*
X28500Y29850D02*Y29250D01*
X31500Y26250D02*Y25650D01*
X31000Y26250D02*Y25650D01*
X30500Y26250D02*Y25650D01*
X30000Y26250D02*Y25650D01*
X32500Y26250D02*Y25650D01*
X33000Y26250D02*Y25650D01*
X32000Y26250D02*Y25650D01*
X29000Y26250D02*Y25650D01*
X29500Y26250D02*Y25650D01*
X28500Y26250D02*Y25650D01*
G54D26*X28610Y18960D02*Y18900D01*
X28220Y19780D02*Y19720D01*
X27000Y19780D02*Y19720D01*
X26610Y18960D02*Y18900D01*
X26220Y19780D02*Y19720D01*
X25000Y19780D02*Y19720D01*
X24610Y18960D02*Y18900D01*
X24220Y19780D02*Y19720D01*
X23000Y19780D02*Y19720D01*
X22610Y18960D02*Y18900D01*
X22220Y19780D02*Y19720D01*
X21000Y19780D02*Y19720D01*
X20610Y18960D02*Y18900D01*
X20220Y19780D02*Y19720D01*
X19000Y19780D02*Y19720D01*
X18610Y18960D02*Y18900D01*
X18220Y19780D02*Y19720D01*
X17000Y19780D02*Y19720D01*
X16610Y18960D02*Y18900D01*
X16220Y19780D02*Y19720D01*
X15000Y19780D02*Y19720D01*
X14610Y18960D02*Y18900D01*
G54D24*X14420Y10060D02*X15080D01*
G54D23*X16631Y8159D02*X16868D01*
X17881D02*X18118D01*
G54D24*X14420Y8250D02*X15080D01*
G54D23*X16631Y9340D02*X16868D01*
X17881D02*X18118D01*
G54D24*X14420Y9150D02*X15080D01*
G54D26*X14220Y19780D02*Y19720D01*
X13000Y19780D02*Y19720D01*
X12610Y18960D02*Y18900D01*
X12220Y19780D02*Y19720D01*
G54D25*X12310Y9600D02*Y8700D01*
G54D30*X9820Y11250D02*X10180D01*
X9820Y12250D02*X10180D01*
G54D27*X23000Y27050D02*Y26400D01*
Y29100D02*Y28450D01*
X21000Y27050D02*Y26400D01*
X21500Y27050D02*Y26400D01*
X22000Y27050D02*Y26400D01*
X20500Y27050D02*Y26400D01*
X22500Y27050D02*Y26400D01*
Y29100D02*Y28450D01*
X22000Y29100D02*Y28450D01*
X21500Y29100D02*Y28450D01*
X21000Y29100D02*Y28450D01*
X20500Y29100D02*Y28450D01*
G54D23*X19131Y27409D02*X19368D01*
X19131Y28590D02*X19368D01*
X18131D02*X18368D01*
X18131Y27409D02*X18368D01*
G54D27*X17000Y26250D02*Y25650D01*
G54D23*X27840Y31368D02*Y31131D01*
X26659Y31368D02*Y31131D01*
G54D27*X24000Y27050D02*Y26400D01*
Y29100D02*Y28450D01*
X23500Y27050D02*Y26400D01*
Y29100D02*Y28450D01*
X17000Y29850D02*Y29250D01*
X16500Y29850D02*Y29250D01*
X16000Y29850D02*Y29250D01*
X15700Y32250D02*X16350D01*
X15500Y29850D02*Y29250D01*
X15000Y29850D02*Y29250D01*
X14500Y29850D02*Y29250D01*
X15000Y26250D02*Y25650D01*
X15500Y26250D02*Y25650D01*
X14500Y26250D02*Y25650D01*
X14000Y26250D02*Y25650D01*
X16000Y26250D02*Y25650D01*
X16500Y26250D02*Y25650D01*
X14000Y29850D02*Y29250D01*
X13500Y26250D02*Y25650D01*
Y29850D02*Y29250D01*
X13000Y26250D02*Y25650D01*
Y29850D02*Y29250D01*
X12500Y26250D02*Y25650D01*
Y29850D02*Y29250D01*
X15700Y32750D02*X16350D01*
X15700Y33250D02*X16350D01*
X15700Y33750D02*X16350D01*
X15700Y34250D02*X16350D01*
X13650Y33750D02*X14300D01*
X13650Y34250D02*X14300D01*
X15700Y34750D02*X16350D01*
X15700Y35250D02*X16350D01*
X13650Y34750D02*X14300D01*
X13650Y35250D02*X14300D01*
X13650Y32250D02*X14300D01*
X13650Y32750D02*X14300D01*
X13650Y33250D02*X14300D01*
G54D23*X12090Y31368D02*Y31131D01*
X10909Y31368D02*Y31131D01*
X9090Y41618D02*Y41381D01*
X7909Y41618D02*Y41381D01*
G54D32*%LNGROUP1_C3*%
%LPC*%
G54D33*G54D15*G54D33*G54D15*G54D33*G54D32*G54D33*G54D32*G54D33*G54D32*G54D33*G54D32*G54D33*G54D32*G54D33*G54D32*G54D33*G54D32*G54D33*G54D15*G54D32*G54D33*G54D32*G54D33*G54D32*G54D34*G54D32*G54D11*G54D32*G54D11*G54D33*G54D32*G54D11*G54D35*G54D34*G54D11*G54D34*G54D11*G54D35*G54D11*G54D34*G54D11*G54D34*G54D11*G54D34*G54D11*G54D34*G54D11*G54D34*G54D11*G54D34*G54D11*G54D34*G54D11*G54D34*G54D11*G54D34*G54D35*G54D11*G54D34*G54D35*M02*
