G04 start of page 2 for group 0 idx 0
G04 Title: (unknown), solder *
G04 Creator: pcb-bin 20060822 *
G04 CreationDate: Mon Jun 23 06:34:48 2008 UTC *
G04 For: pete *
G04 Format: Gerber/RS-274X *
G04 PCB-Dimensions: 1500000 500000 *
G04 PCB-Coordinate-Origin: lower left *
%MOIN*%
%FSLAX24Y24*%
%LNGROUP0*%
%ADD11C,0.0200*%
%ADD12C,0.0800*%
%ADD13C,0.0600*%
%ADD14C,0.0300*%
%ADD15C,0.0150*%
%ADD16C,0.1000*%
%ADD17R,0.0800X0.0800*%
%ADD18C,0.0500*%
%ADD19R,0.0500X0.0500*%
%ADD20R,0.0600X0.0600*%
%ADD21C,0.0400*%
%ADD22C,0.3120*%
%ADD23C,0.0420*%
%ADD24C,0.0280*%
%ADD25C,0.0350*%
%ADD26C,0.2188*%
G54D11*G36*
X140750Y21000D02*X142750D01*
Y18250D01*
X140750D01*
Y21000D01*
G37*
G36*
X11000D02*X140750D01*
Y18250D01*
X11000D01*
Y21000D01*
G37*
G36*
X116000Y10500D02*X9500D01*
Y7750D01*
X116000D01*
Y10500D01*
G37*
G54D12*%LNGROUP0_C1*%
%LPC*%
X112500Y10250D03*
X80500D03*
X48500D03*
X16500D03*
G54D13*X142500Y18750D03*
Y19750D03*
X142250Y19250D03*
X142000Y19750D03*
X142500Y20750D03*
X142250Y20250D03*
X142000Y20750D03*
X141750Y20250D03*
X141500Y20750D03*
X141250Y20250D03*
X141500Y19750D03*
X141250Y19250D03*
X141750D03*
X141000Y19750D03*
X142000Y18750D03*
X141500D03*
X141000D03*
X140500D03*
X140750Y19250D03*
X140500Y19750D03*
X141000Y20750D03*
X140500D03*
X140750Y20250D03*
X141000Y19750D03*
Y18750D03*
X140500D03*
X140750Y19250D03*
X140500Y19750D03*
X140250Y19250D03*
X141000Y20750D03*
X140500D03*
X140750Y20250D03*
X140250D03*
X136250Y20500D03*
X134250D03*
X138250D03*
X132250D03*
X130250D03*
X128250D03*
X126250D03*
X124250D03*
X118250D03*
X120250D03*
X116250D03*
X122250D03*
X114250D03*
X112250D03*
X110250D03*
X108250D03*
X106250D03*
X104250D03*
X100250D03*
X102250D03*
X98250D03*
X96250D03*
X94250D03*
X92250D03*
X90250D03*
X88250D03*
X86250D03*
X82250D03*
X84250D03*
X80250D03*
X78250D03*
X76250D03*
X74250D03*
X72250D03*
X70250D03*
X68250D03*
X64250D03*
X66250D03*
X62250D03*
X60250D03*
X58250D03*
X56250D03*
X54250D03*
X52250D03*
X50250D03*
X48250D03*
X44250D03*
X46250D03*
X42250D03*
X40250D03*
X38250D03*
X36250D03*
X34250D03*
X32250D03*
X30250D03*
X28250D03*
X26250D03*
X22250D03*
X24250D03*
X20250D03*
X18250D03*
X16250D03*
X14250D03*
X12250D03*
G54D12*X112500Y10250D03*
X80500D03*
X48500D03*
X16500D03*
G54D13*X142500Y18750D03*
Y19750D03*
X142250Y19250D03*
X142000Y19750D03*
X142500Y20750D03*
X142250Y20250D03*
X142000Y20750D03*
X141750Y20250D03*
X141500Y20750D03*
X141250Y20250D03*
X141500Y19750D03*
X141250Y19250D03*
X141750D03*
X141000Y19750D03*
X142000Y18750D03*
X141500D03*
X141000D03*
X140500D03*
X140750Y19250D03*
X140500Y19750D03*
X141000Y20750D03*
X140500D03*
X140750Y20250D03*
X141000Y19750D03*
Y18750D03*
X140500D03*
X140750Y19250D03*
X140500Y19750D03*
X140250Y19250D03*
X141000Y20750D03*
X140500D03*
X140750Y20250D03*
X140250D03*
X136250Y20500D03*
X134250D03*
X138250D03*
X132250D03*
X130250D03*
X128250D03*
X126250D03*
X124250D03*
X118250D03*
X120250D03*
X116250D03*
X122250D03*
X114250D03*
X112250D03*
X110250D03*
X108250D03*
X106250D03*
X104250D03*
X100250D03*
X102250D03*
X98250D03*
X96250D03*
X94250D03*
X92250D03*
X90250D03*
X88250D03*
X86250D03*
X82250D03*
X84250D03*
X80250D03*
X78250D03*
X76250D03*
X74250D03*
X72250D03*
X70250D03*
X68250D03*
X64250D03*
X66250D03*
X62250D03*
X60250D03*
X58250D03*
X56250D03*
X54250D03*
X52250D03*
X50250D03*
X48250D03*
X44250D03*
X46250D03*
X42250D03*
X40250D03*
X38250D03*
X36250D03*
X34250D03*
X32250D03*
X30250D03*
X28250D03*
X26250D03*
X22250D03*
X24250D03*
X20250D03*
X18250D03*
X16250D03*
X14250D03*
X12250D03*
G54D12*X112500Y10250D03*
X80500D03*
X48500D03*
X16500D03*
G54D13*X142500Y18750D03*
Y19750D03*
X142250Y19250D03*
X142000Y19750D03*
X142500Y20750D03*
X142250Y20250D03*
X142000Y20750D03*
X141750Y20250D03*
X141500Y20750D03*
X141250Y20250D03*
X141500Y19750D03*
X141250Y19250D03*
X141750D03*
X141000Y19750D03*
X142000Y18750D03*
X141500D03*
X141000D03*
X140500D03*
X140750Y19250D03*
X140500Y19750D03*
X141000Y20750D03*
X140500D03*
X140750Y20250D03*
X141000Y19750D03*
Y18750D03*
X140500D03*
X140750Y19250D03*
X140500Y19750D03*
X140250Y19250D03*
X141000Y20750D03*
X140500D03*
X140750Y20250D03*
X140250D03*
X136250Y20500D03*
X134250D03*
X138250D03*
X132250D03*
X130250D03*
X128250D03*
X126250D03*
X124250D03*
X118250D03*
X120250D03*
X116250D03*
X122250D03*
X114250D03*
X112250D03*
X110250D03*
X108250D03*
X106250D03*
X104250D03*
X100250D03*
X102250D03*
X98250D03*
X96250D03*
X94250D03*
X92250D03*
X90250D03*
X88250D03*
X86250D03*
X82250D03*
X84250D03*
X80250D03*
X78250D03*
X76250D03*
X74250D03*
X72250D03*
X70250D03*
X68250D03*
X64250D03*
X66250D03*
X62250D03*
X60250D03*
X58250D03*
X56250D03*
X54250D03*
X52250D03*
X50250D03*
X48250D03*
X44250D03*
X46250D03*
X42250D03*
X40250D03*
X38250D03*
X36250D03*
X34250D03*
X32250D03*
X30250D03*
X28250D03*
X26250D03*
X22250D03*
X24250D03*
X20250D03*
X18250D03*
X16250D03*
X14250D03*
X12250D03*
G54D14*%LNGROUP0_D2*%
%LPD*%
X40750Y38000D02*Y34000D01*
X41500Y33250D01*
G54D15*X51250Y43500D02*X50750Y44000D01*
X48000D01*
G54D14*X42750Y39000D02*X41750D01*
X40750Y38000D01*
G54D15*X38750Y35500D02*X40750D01*
X28500Y24500D02*Y26750D01*
X12500Y24500D02*Y25750D01*
X27750Y30000D02*Y27000D01*
X12500Y25250D02*Y26500D01*
X11750Y27000D02*Y29750D01*
G54D16*X11250Y26750D02*X139000D01*
G54D15*X53000Y47500D02*X55000Y45500D01*
X52500Y47000D02*X54500Y45000D01*
X52000Y46500D02*X54000Y44500D01*
X30000Y47000D02*X52500D01*
X30500Y46500D02*X52000D01*
X29500Y47500D02*X53000D01*
X27500Y45500D02*X29500Y47500D01*
X5500Y44500D02*Y5000D01*
X5000Y50000D02*Y0D01*
X4500Y5500D02*Y44500D01*
G54D14*X5000Y5000D02*X4500Y5500D01*
G54D15*Y4500D02*Y0D01*
Y5500D02*X0D01*
X5000Y45000D02*X5500Y45500D01*
X5000Y45000D02*X5500Y44500D01*
Y45500D02*X4500Y44500D01*
Y45500D02*X5500Y44500D01*
G54D14*X4500Y45500D02*X5500Y44500D01*
Y45500D02*X4500Y44500D01*
X5500Y45500D01*
X4500D02*X5500Y44500D01*
G54D15*Y45500D02*Y50000D01*
X4500Y44500D02*X0D01*
X4500Y45500D02*Y50000D01*
Y45500D02*X0D01*
G54D14*X30000Y37500D02*Y37000D01*
X33750Y41250D02*X30000Y37500D01*
X10750Y36250D02*X8250Y38750D01*
G54D15*X28500Y44500D02*X30500Y46500D01*
X28000Y45000D02*X30000Y47000D01*
X5500Y44500D02*X28500D01*
X5500Y45500D02*X27500D01*
X0Y45000D02*X28000D01*
X49000Y12000D02*Y18500D01*
X50000Y11000D02*X49000Y12000D01*
G54D14*X43000Y14000D02*Y18250D01*
X42000Y13000D02*X43000Y14000D01*
X11250Y18500D02*X10000Y17250D01*
G54D15*X5500Y4500D02*Y0D01*
X5000Y5000D02*X5500Y4500D01*
G54D14*X5000Y5000D02*X4500Y4500D01*
G54D15*X17000Y12000D02*Y18500D01*
X18000Y11000D02*X17000Y12000D01*
G54D14*X10000Y13000D02*Y17250D01*
G54D15*X4500Y4500D02*X0D01*
X145500D02*X150000D01*
X145500Y5500D02*X150000D01*
X145500Y4500D02*Y0D01*
X144500Y4500D02*Y0D01*
X145000Y5000D02*X144500Y4500D01*
Y5500D02*X145500Y4500D01*
X144500D02*X145500Y5500D01*
Y4500D02*X144500Y5500D01*
X145500Y44500D02*X150000D01*
X145500Y45500D02*X150000D01*
X145000Y45000D02*X145500Y44500D01*
Y45500D02*Y50000D01*
G54D14*X145000Y45000D02*X145500Y45500D01*
G54D15*X144500D02*Y50000D01*
G54D14*Y44500D02*X145500Y45500D01*
X145000Y45000D02*X144500Y45500D01*
X145500Y44500D01*
G54D15*Y5500D01*
X145000Y50000D02*Y0D01*
X144500Y5500D02*Y44500D01*
X143000Y16500D02*X145500D01*
X142500Y16000D02*X143500Y17000D01*
X145500D01*
X142500Y16000D02*X145500D01*
G54D14*X142500Y15250D02*Y16000D01*
G54D16*X142250Y20500D02*Y18750D01*
X141750Y19750D02*Y19500D01*
X141500Y19250D01*
X140500Y18750D02*X141250D01*
X141500Y19250D02*X140250D01*
X142250Y18750D02*X140250D01*
Y20500D01*
X140500Y19750D02*X141750D01*
X140250Y20500D02*X142250D01*
X140500D02*X139050D01*
G54D15*X113000Y12000D02*Y18500D01*
X114000Y11000D02*X113000Y12000D01*
G54D14*X107000Y14000D02*Y18250D01*
X106000Y13000D02*X107000Y14000D01*
G54D15*X54500Y45000D02*X150000D01*
X55000Y45500D02*X145000D01*
X54000Y44500D02*X145000D01*
G54D16*X138250Y20500D02*X12250D01*
G54D15*X81000Y12000D02*Y18500D01*
X82000Y11000D02*X81000Y12000D01*
G54D14*X75000Y14000D02*Y18500D01*
X74000Y13000D02*X75000Y14000D01*
G54D15*X144500Y4500D02*X5000D01*
G54D14*X137000Y9750D03*
X142500Y15250D01*
G54D15*X144500Y5500D02*X5000D01*
X0Y5000D02*X150000D01*
X136000Y22750D02*Y23750D01*
X135000Y23250D02*Y22750D01*
X134750Y22500D01*
Y22000D02*X135500Y22750D01*
Y23500D01*
X134750Y21500D02*X136000Y22750D01*
X127000Y23000D02*X129250D01*
X127000D02*X134500D01*
X126500Y23500D02*X129500D01*
X126500D02*X134000D01*
X126000Y24000D02*X129750D01*
X126000D02*X133500D01*
X125500Y24500D02*X130000D01*
X125500D02*X133000D01*
X125000Y25000D02*X130250D01*
X125000D02*X132500D01*
X127500Y22500D02*X129000D01*
X128000Y22000D02*X134750D01*
X127500Y22500D02*X134750D01*
X128500Y21500D02*X125000D01*
X134750D01*
X111500Y22500D02*X113000D01*
X111000Y23000D02*X113250D01*
X120000Y22750D02*Y23750D01*
X119000Y23250D02*Y22750D01*
X118750Y22500D01*
X111500D02*X118750D01*
X119500Y22750D02*Y23500D01*
X111000Y23000D02*X118500D01*
X110500Y23500D02*X113500D01*
X110500D02*X118000D01*
X110000Y24000D02*X113750D01*
X110000D02*X117500D01*
X109500Y24500D02*X114000D01*
X109500D02*X117000D01*
X109000Y25000D02*X114250D01*
X109000D02*X116500D01*
X135000Y35000D02*Y32500D01*
X136000Y35000D02*Y31500D01*
X134000Y35000D02*Y33500D01*
X133750Y36250D02*X135000Y35000D01*
X134250Y36750D02*X136000Y35000D01*
X133250Y35750D02*X134000Y35000D01*
X131000Y35750D02*X133250D01*
X132750Y35250D02*X133000Y35000D01*
Y34500D01*
X131250Y35250D02*X132750D01*
X131000Y35000D02*X131250Y35250D01*
X130750Y35500D02*X131000Y35750D01*
X130750Y36250D02*X133750D01*
X130500Y36750D02*X134250D01*
X126500Y35500D02*X130750D01*
X107750D02*X107500D01*
X94000Y24000D02*X97750D01*
X93500Y24500D02*X98000D01*
X93000Y25000D02*X98250D01*
X104000Y22750D02*Y23750D01*
X103000Y23250D02*Y22750D01*
X103500D02*Y23500D01*
X103000Y22750D02*X102750Y22500D01*
X95500D02*X102750D01*
X95500D02*X97000D01*
X95000Y23000D02*X97250D01*
X95000D02*X102500D01*
X94500Y23500D02*X97500D01*
X94500D02*X102000D01*
X94000Y24000D02*X101500D01*
X93500Y24500D02*X101000D01*
X93000Y25000D02*X100500D01*
X118750Y22000D02*X119500Y22750D01*
X118750Y21500D02*X120000Y22750D01*
X102750Y22000D02*X103500Y22750D01*
X102750Y21500D02*X104000Y22750D01*
X112000Y22000D02*X118750D01*
X109000Y21500D02*X118750D01*
X96000Y22000D02*X102750D01*
X86750Y21500D02*X88000Y22750D01*
X80000Y22000D02*X86750D01*
X87500Y22750D01*
X77000Y21500D02*X86750D01*
X112500D02*X109000D01*
X96500D02*X93000D01*
X80500D02*X77000D01*
X93000D02*X102750D01*
X61000D02*X70750D01*
X61000Y41000D02*X59000D01*
X61500Y40000D02*X59000D01*
X62000Y39000D02*X59000D01*
X54750Y40000D02*X56000D01*
X54500Y41000D02*X56000D01*
X54250Y39500D02*X54750Y40000D01*
X53500Y39500D02*X54250D01*
X53500Y40000D02*X54500Y41000D01*
X56000Y38000D02*X53500D01*
Y39000D02*X56000D01*
X54750Y43750D02*X53000Y42000D01*
X51750Y43250D02*Y45250D01*
X53500Y38000D02*X50000Y41500D01*
X51750Y45250D02*X51250Y45750D01*
X53000Y42000D02*X49750D01*
X48750Y41000D01*
X88000Y22750D02*Y23750D01*
X87500Y22750D02*Y23500D01*
X87000Y23250D02*Y22750D01*
X86750Y22500D01*
X79000Y23000D02*X86500D01*
X79500Y22500D02*X86750D01*
X78500Y23500D02*X86000D01*
X79500Y22500D02*X81000D01*
X79000Y23000D02*X81250D01*
X78500Y23500D02*X81500D01*
X78000Y24000D02*X81750D01*
X77500Y24500D02*X82000D01*
X78000Y24000D02*X85500D01*
X77500Y24500D02*X85000D01*
X77000Y25000D02*X82250D01*
X77000D02*X84500D01*
X72000Y22750D02*Y23750D01*
X71000Y23250D02*Y22750D01*
X70750Y22500D01*
Y22000D02*X71500Y22750D01*
Y23500D01*
X70750Y21500D02*X72000Y22750D01*
X64000Y22000D02*X70750D01*
X63500Y22500D02*X70750D01*
X63000Y23000D02*X70500D01*
X62500Y23500D02*X70000D01*
X63500Y22500D02*X65000D01*
X63000Y23000D02*X65250D01*
X62500Y23500D02*X65500D01*
X62000Y24000D02*X65750D01*
X61500Y24500D02*X66000D01*
X61000Y25000D02*X66250D01*
X62000Y24000D02*X69500D01*
X61500Y24500D02*X69000D01*
X61000Y25000D02*X68500D01*
X130500Y36000D02*X130750Y36250D01*
X128500Y36500D02*X130250D01*
X130500Y36750D01*
X127500Y36000D02*X130500D01*
X47500Y32000D02*X127500D01*
X47000Y32500D02*X129000D01*
X46500Y33000D02*X126500D01*
X46000Y33500D02*X129000D01*
X45500Y34000D02*X125500D01*
X45000Y34500D02*X129000D01*
X107500Y35500D02*X43250D01*
X75750Y36500D02*X43250D01*
X43000Y37000D02*X59750D01*
X91750Y36000D02*X43000D01*
X125500Y35000D02*X131000D01*
X43000D02*X123750D01*
X48500Y31000D02*X128500D01*
X48000Y31500D02*X129000D01*
Y30500D02*X33000D01*
X32000Y31250D02*Y31750D01*
X31500Y31000D02*Y32000D01*
X31000Y30750D02*Y32250D01*
X33750Y34250D02*X34500D01*
X33500Y33250D02*X34500D01*
X32000Y31750D02*X33500Y33250D01*
X34000Y35250D02*X34500D01*
X31500Y32000D02*X33750Y34250D01*
X31000Y32250D02*X34000Y35250D01*
X33000Y35000D02*X30750Y32750D01*
X48750Y41000D02*X46500D01*
X48000Y42000D02*X46000D01*
X45000Y41000D01*
X43000D01*
G54D14*X47500Y42500D02*X47250Y42750D01*
G54D15*X43000Y41000D02*X42750Y40750D01*
G54D14*X47250Y42750D02*X41750D01*
X40750Y41750D01*
G54D15*X42750Y40750D02*X38500D01*
G54D14*X40750Y41750D02*X39000D01*
X30750Y45750D02*X51250D01*
G54D15*X30500Y31000D02*X29750D01*
X29500Y31750D02*Y31250D01*
X29250Y31000D01*
X30000Y30500D02*X29500Y30000D01*
X29750Y31000D02*X29250Y30500D01*
X33000D02*X30250Y27750D01*
X30750Y32750D02*X29000D01*
X29250Y30500D02*X28500D01*
X29500Y30000D02*X28500D01*
X30250Y27750D02*X28250D01*
X39250Y38000D02*Y40000D01*
X38500D02*Y38500D01*
X38250Y37000D02*X39250Y38000D01*
X38500Y38500D02*X38000Y38000D01*
X37500D01*
Y37000D02*X38250D01*
X37500Y39750D02*Y39000D01*
G54D14*X39000Y41750D02*X38500Y42250D01*
G54D15*Y40750D02*X37500Y39750D01*
G54D14*X38500Y42250D02*X31750D01*
X29750Y40250D02*X31750Y42250D01*
G54D15*X30500Y23500D02*X33500D01*
X30000Y24000D02*X33750D01*
X29500Y24500D02*X34000D01*
X29000Y25000D02*X34250D01*
X24000Y22750D02*Y23750D01*
X23000Y22750D02*X22750Y22500D01*
Y22000D02*X23500Y22750D01*
X22750Y21500D02*X24000Y22750D01*
X28500Y34750D02*X28000Y35250D01*
X29250Y31000D02*X28750D01*
X29000Y31500D02*X28500Y32000D01*
X28750Y31000D02*X28000Y31750D01*
X28500Y32000D02*Y34750D01*
X28000Y31750D02*Y34000D01*
X27750Y34250D01*
X28500Y30000D02*X27500Y31000D01*
X27250Y31750D02*Y32250D01*
X28500Y30500D02*X27250Y31750D01*
X27500Y31000D02*X27000D01*
X26250Y31750D02*Y32750D01*
X26750Y33250D01*
X27250D01*
X27000Y31000D02*X26250Y31750D01*
X27750Y34250D02*X27250D01*
X28000Y35250D02*X27250D01*
G54D14*X19250Y34250D02*X30750Y45750D01*
G54D15*X46500Y23500D02*X54000D01*
X46000Y24000D02*X53500D01*
X45500Y24500D02*X53000D01*
X47000Y23000D02*X49250D01*
X46500Y23500D02*X49500D01*
X46000Y24000D02*X49750D01*
X45500Y24500D02*X50000D01*
X45000Y25000D02*X50250D01*
X45000D02*X52500D01*
X56000Y22750D02*Y23750D01*
X55500Y22750D02*Y23500D01*
X55000Y23250D02*Y22750D01*
X54750Y22500D01*
Y22000D02*X55500Y22750D01*
X54750Y21500D02*X56000Y22750D01*
X47500Y22500D02*X49000D01*
X47500D02*X54750D01*
X47000Y23000D02*X54500D01*
X48000Y22000D02*X54750D01*
X45000Y21500D02*X54750D01*
X40000Y22750D02*Y23750D01*
X39000Y23250D02*Y22750D01*
X38750Y22500D01*
Y22000D02*X39500Y22750D01*
Y23500D01*
X38750Y21500D02*X40000Y22750D01*
X31000Y23000D02*X33250D01*
X31000D02*X38500D01*
X30500Y23500D02*X38000D01*
X30000Y24000D02*X37500D01*
X29500Y24500D02*X37000D01*
X29000Y25000D02*X36500D01*
G54D16*X127750Y7000D02*X124750Y10000D01*
G54D14*X143500Y15250D02*Y15000D01*
X137250Y8750D01*
X130500D02*X137250D01*
X129500Y9750D02*X130500Y8750D01*
G54D16*X124750Y10000D02*X116750D01*
G54D15*X32000Y22000D02*X38750D01*
X31500Y22500D02*X33000D01*
X31500D02*X38750D01*
X64500Y21500D02*X61000D01*
X48500D02*X45000D01*
X32500D02*X29000D01*
X38750D01*
G54D16*X16750Y10000D02*X117000D01*
G54D14*X19250Y34250D02*X18500D01*
G54D15*X17750D02*X19250D01*
X17500Y33250D02*X18500D01*
X16000Y31750D02*X17500Y33250D01*
X15500Y32000D02*X17750Y34250D01*
X18000Y35250D02*X18500D01*
X15000Y32250D02*X18000Y35250D01*
X18750Y36250D02*X19750D01*
X14750Y32750D02*X17000Y35000D01*
X14500Y35750D02*X15500D01*
X16000Y31250D02*Y31750D01*
X15500Y31000D02*Y32000D01*
X15000Y30750D02*Y32250D01*
X14500Y31000D02*X14250D01*
X13750D02*X14250D01*
G54D16*X16500Y10250D02*X16750Y10000D01*
G54D15*X13000Y32750D02*X14750D01*
X23500Y22750D02*Y23500D01*
X23000Y23250D02*Y22750D01*
X14000Y24000D02*X21500D01*
X13500Y24500D02*X21000D01*
X13000Y25000D02*X20500D01*
X15000Y23000D02*X22500D01*
X15500Y22500D02*X22750D01*
X14500Y23500D02*X22000D01*
X16000Y22000D02*X22750D01*
X13000Y21500D02*X22750D01*
X12250Y31500D02*Y34000D01*
X12500Y31999D02*Y34749D01*
X12000Y34250D02*X12250Y34000D01*
X12500Y34749D02*X12000Y35250D01*
X11500Y34250D02*X12000D01*
Y35250D02*X11500D01*
X11000Y33250D02*X11500D01*
X10750Y31500D02*Y33000D01*
X11500Y31500D02*Y32250D01*
X10750Y33000D02*X11000Y33250D01*
X13500Y31750D02*Y31250D01*
X13250Y31000D01*
Y30500D02*X13750Y31000D01*
X14000Y30500D02*X13250Y29750D01*
X12500D01*
X13250Y31000D02*X12750D01*
X12500Y30500D02*X13250D01*
X13000Y31500D02*X12500Y31999D01*
X12750Y31000D02*X12250Y31500D01*
X12500Y30500D02*X11500Y31500D01*
X12500Y29750D02*X10750Y31500D01*
G54D17*X143500Y15000D03*
X142500Y16000D03*
G54D18*X138000Y14250D03*
Y15250D03*
Y16250D03*
G54D19*Y17250D03*
G54D18*X136000Y14250D03*
Y15250D03*
Y16250D03*
G54D19*Y17250D03*
G54D20*Y9750D03*
G54D18*X134000Y14250D03*
G54D13*X137000Y9750D03*
G54D18*X134000Y15250D03*
Y16250D03*
G54D19*Y17250D03*
G54D17*X139000Y26750D03*
X137000Y30500D03*
X136000D03*
Y31500D03*
X135000D03*
Y32500D03*
X134000Y33500D03*
X133000D03*
Y34500D03*
X134000Y32500D03*
X132000Y34500D03*
G54D18*Y14250D03*
Y15250D03*
Y16250D03*
G54D19*Y17250D03*
G54D18*X130000Y14250D03*
Y15250D03*
Y16250D03*
G54D19*Y17250D03*
G54D18*X128000Y14250D03*
Y15250D03*
Y16250D03*
G54D19*Y17250D03*
G54D18*X126000Y14250D03*
Y15250D03*
Y16250D03*
G54D19*Y17250D03*
G54D18*X124000Y15250D03*
Y16250D03*
G54D19*Y17250D03*
G54D18*X122000Y15250D03*
Y16250D03*
G54D19*Y17250D03*
G54D18*X120000Y15250D03*
Y16250D03*
G54D19*Y17250D03*
G54D18*X124000Y14250D03*
X122000D03*
X120000D03*
X118000D03*
Y15250D03*
Y16250D03*
G54D19*Y17250D03*
G54D18*X116000Y16250D03*
G54D19*Y17250D03*
G54D18*X114000Y15250D03*
Y16250D03*
X112000Y14250D03*
G54D19*X114000Y17250D03*
G54D18*X112000Y15250D03*
Y16250D03*
G54D19*Y17250D03*
G54D18*X116000Y14250D03*
X110000D03*
X106000D03*
X104000D03*
X102000D03*
X116000Y15250D03*
X110000D03*
X104000D03*
X102000D03*
X108000Y14250D03*
Y15250D03*
Y16250D03*
G54D19*Y17250D03*
G54D18*X106000Y15250D03*
Y16250D03*
G54D19*Y17250D03*
G54D18*X104000Y16250D03*
G54D19*Y17250D03*
G54D18*X102000Y16250D03*
G54D19*Y17250D03*
G54D18*X100000Y16250D03*
G54D19*Y17250D03*
G54D18*Y14250D03*
X98000D03*
X100000Y15250D03*
X98000D03*
Y16250D03*
G54D19*Y17250D03*
G54D18*X110000Y16250D03*
G54D19*Y17250D03*
G54D17*X123750Y24000D03*
X107750D03*
X91750D03*
G54D18*X96000Y14250D03*
Y15250D03*
Y16250D03*
G54D19*Y17250D03*
G54D18*X94000Y14250D03*
Y15250D03*
Y16250D03*
G54D19*Y17250D03*
G54D18*X92000Y16250D03*
G54D19*Y17250D03*
G54D17*X106250Y6750D03*
G54D18*X114000Y14250D03*
X92000D03*
X90000D03*
X88000D03*
X92000Y15250D03*
X90000D03*
Y16250D03*
G54D19*Y17250D03*
G54D18*X88000Y15250D03*
Y16250D03*
G54D19*Y17250D03*
G54D18*X86000Y14250D03*
Y15250D03*
Y16250D03*
G54D19*Y17250D03*
G54D18*X84000Y14250D03*
Y15250D03*
Y16250D03*
G54D19*Y17250D03*
G54D18*X82000Y15250D03*
Y16250D03*
G54D19*Y17250D03*
G54D18*Y14250D03*
X80000D03*
Y15250D03*
Y16250D03*
G54D19*Y17250D03*
G54D18*X78000Y14250D03*
X76000D03*
X78000Y15250D03*
Y16250D03*
G54D19*Y17250D03*
G54D18*X76000Y15250D03*
Y16250D03*
G54D19*Y17250D03*
G54D18*X74000Y16250D03*
G54D19*Y17250D03*
G54D17*X74250Y6750D03*
G54D18*X74000Y15250D03*
X72000D03*
Y16250D03*
G54D19*Y17250D03*
G54D18*X74000Y14250D03*
X72000D03*
X70000D03*
Y15250D03*
Y16250D03*
G54D19*Y17250D03*
G54D18*X66000Y14250D03*
Y15250D03*
Y16250D03*
G54D19*Y17250D03*
G54D18*X68000Y14250D03*
X64000D03*
X68000Y15250D03*
X64000D03*
X68000Y16250D03*
X64000D03*
G54D19*X68000Y17250D03*
X64000D03*
G54D18*X62000Y14250D03*
Y15250D03*
X60000Y14250D03*
Y15250D03*
X62000Y16250D03*
X60000D03*
X58000D03*
X56000D03*
G54D19*X62000Y17250D03*
X60000D03*
X58000D03*
X56000D03*
G54D18*X58000Y14250D03*
Y15250D03*
X56000Y14250D03*
X54000D03*
X56000Y15250D03*
X54000D03*
G54D19*Y17250D03*
X48000D03*
X46000D03*
G54D18*X52000Y15250D03*
Y16250D03*
G54D19*Y17250D03*
G54D18*Y14250D03*
X50000D03*
Y15250D03*
Y16250D03*
G54D19*Y17250D03*
G54D18*X48000Y14250D03*
Y15250D03*
X54000Y16250D03*
X48000D03*
X46000D03*
G54D17*X42250Y6750D03*
G54D13*X59000Y38000D03*
G54D17*X59750Y24000D03*
G54D13*X59000Y39000D03*
G54D17*X75750Y24000D03*
G54D13*X59000Y40000D03*
X58750Y43750D03*
X57750D03*
X59750D03*
X56750D03*
X55750D03*
G54D20*X54750D03*
G54D17*X51250Y45750D03*
G54D13*X59000Y41000D03*
G54D17*X46500D03*
G54D13*X56000Y38000D03*
Y39000D03*
Y40000D03*
G54D20*Y41000D03*
G54D17*X43750Y24000D03*
X43000Y34000D03*
X39000Y41750D03*
X37500Y37000D03*
Y38000D03*
X38500Y33500D03*
X37500Y39000D03*
X34500Y33250D03*
Y34250D03*
Y32250D03*
Y35250D03*
G54D13*X33750Y39250D03*
Y41250D03*
X29750Y40250D03*
G54D17*X27250Y32250D03*
Y33250D03*
Y34250D03*
Y35250D03*
Y36250D03*
X18500Y33250D03*
Y32250D03*
Y34250D03*
Y35250D03*
G54D18*X16750Y38500D03*
Y41500D03*
G54D17*X11500Y32250D03*
Y33250D03*
Y35250D03*
X11250Y23500D03*
X11500Y34250D03*
X11250Y24500D03*
G54D18*X10750Y38500D03*
Y41500D03*
X44000Y16250D03*
G54D19*Y17250D03*
G54D18*X46000Y14250D03*
Y15250D03*
X44000Y14250D03*
Y15250D03*
X42000Y16250D03*
G54D19*Y17250D03*
G54D18*X40000Y16250D03*
G54D19*Y17250D03*
G54D18*X42000Y14250D03*
Y15250D03*
X40000Y14250D03*
Y15250D03*
X38000D03*
Y16250D03*
G54D19*Y17250D03*
G54D18*Y14250D03*
X36000D03*
Y15250D03*
Y16250D03*
G54D19*Y17250D03*
G54D18*X34000Y14250D03*
Y15250D03*
Y16250D03*
G54D19*Y17250D03*
G54D18*X32000Y14250D03*
Y15250D03*
Y16250D03*
G54D19*Y17250D03*
G54D18*X30000Y14250D03*
Y15250D03*
Y16250D03*
X28000Y14250D03*
G54D19*X30000Y17250D03*
G54D18*X28000Y15250D03*
Y16250D03*
G54D19*Y17250D03*
G54D18*X26000Y14250D03*
Y15250D03*
Y16250D03*
G54D19*Y17250D03*
G54D18*X24000Y14250D03*
X22000D03*
X20000D03*
X18000D03*
X24000Y15250D03*
X22000D03*
X20000D03*
X18000D03*
X16000D03*
X14000D03*
X24000Y16250D03*
X22000D03*
X20000D03*
X18000D03*
X16000D03*
X14000D03*
G54D19*X24000Y17250D03*
X22000D03*
X20000D03*
X18000D03*
X16000D03*
X14000D03*
G54D18*X12000Y15250D03*
Y16250D03*
G54D19*Y17250D03*
G54D18*X16000Y14250D03*
X14000D03*
X12000D03*
G54D17*X10250Y6750D03*
G54D21*X142500Y18750D03*
Y19750D03*
X142250Y19250D03*
X142000Y19750D03*
X142500Y20750D03*
X142250Y20250D03*
X142000Y20750D03*
X141750Y20250D03*
X141500Y20750D03*
X141250Y20250D03*
X141500Y19750D03*
X141250Y19250D03*
X141750D03*
X141000Y19750D03*
X142000Y18750D03*
X141500D03*
X141000D03*
X140500D03*
X140750Y19250D03*
X140500Y19750D03*
X140250Y19250D03*
X141000Y20750D03*
X140500D03*
X140750Y20250D03*
X140250D03*
G54D22*X145000Y5000D03*
G54D13*X127750Y7000D03*
G54D21*X136250Y20500D03*
X134250D03*
X138250D03*
X132250D03*
X130250D03*
X114000Y11000D03*
G54D13*X112500Y10250D03*
X129500Y9750D03*
X106000Y13000D03*
G54D21*X134500Y23000D03*
X135500Y23500D03*
X136000Y23750D03*
X135000Y23250D03*
X134000Y23500D03*
X129500D03*
X128500Y21500D03*
X128250Y20500D03*
X128000Y22000D03*
X127500Y22500D03*
X129000D03*
X127000Y23000D03*
X129250D03*
X126500Y23500D03*
X126250Y20500D03*
X133000Y24500D03*
X130000D03*
X133500Y24000D03*
X129750D03*
X126000D03*
X125500Y24500D03*
X131250Y26750D03*
X130250Y25000D03*
X132500D03*
X125000D03*
Y21500D03*
X124250Y20500D03*
X119500Y23500D03*
X119000Y23250D03*
X120000Y23750D03*
X118500Y23000D03*
X118000Y23500D03*
X118250Y20500D03*
X120250D03*
X116250D03*
X122250D03*
X114250D03*
X115250Y26750D03*
X112500Y21500D03*
X112250Y20500D03*
X112000Y22000D03*
X113000Y22500D03*
X113250Y23000D03*
X111500Y22500D03*
X113500Y23500D03*
X111000Y23000D03*
X110500Y23500D03*
X117500Y24000D03*
X117000Y24500D03*
X114000D03*
X113750Y24000D03*
X110000D03*
X109500Y24500D03*
X114250Y25000D03*
X116500D03*
X109000D03*
X93000D03*
X129000Y30500D03*
Y31500D03*
Y32500D03*
Y33500D03*
Y34500D03*
X128500Y36500D03*
X128000Y31500D03*
X128500Y31000D03*
X127500Y32000D03*
X127000Y32500D03*
X126500Y33000D03*
X126000Y33500D03*
X125500Y34000D03*
X126500Y35500D03*
X127500Y36000D03*
X125500Y35000D03*
G54D22*X145000Y45000D03*
G54D21*X125000Y34500D03*
X123750Y35000D03*
X113000Y30500D03*
X112000Y31500D03*
X112500Y31000D03*
X111500Y32000D03*
X111000Y32500D03*
X110500Y33000D03*
X110000Y33500D03*
X109500Y34000D03*
X109000Y34500D03*
X107750Y35500D03*
X110250Y20500D03*
X109000Y21500D03*
X108250Y20500D03*
X106250D03*
X104250D03*
X103500Y23500D03*
X104000Y23750D03*
X103000Y23250D03*
X102500Y23000D03*
X102000Y23500D03*
X98250Y25000D03*
X98000Y24500D03*
X100500Y25000D03*
X97750Y24000D03*
X101000Y24500D03*
X101500Y24000D03*
X94000D03*
X96000Y31500D03*
X96500Y31000D03*
X95500Y32000D03*
X97000Y30500D03*
X96000Y22000D03*
X93500Y24500D03*
X94500Y33000D03*
X94000Y33500D03*
X95000Y32500D03*
X93500Y34000D03*
X93000Y34500D03*
X91750Y36000D03*
X81000Y30500D03*
X80000Y31500D03*
X80500Y31000D03*
X79500Y32000D03*
X79000Y32500D03*
X78500Y33000D03*
X78000Y33500D03*
X77500Y34000D03*
X77000Y34500D03*
X75750Y36500D03*
X82000Y11000D03*
G54D13*X80500Y10250D03*
X74000Y13000D03*
G54D21*X100250Y20500D03*
X102250D03*
X98250D03*
X96500Y21500D03*
X97000Y22500D03*
X97250Y23000D03*
X95500Y22500D03*
X95000Y23000D03*
X94500Y23500D03*
X93000Y21500D03*
X99250Y26750D03*
X97500Y23500D03*
X96250Y20500D03*
X94250D03*
X92250D03*
X90250D03*
X88250D03*
X87500Y23500D03*
X88000Y23750D03*
X87000Y23250D03*
X86500Y23000D03*
X86000Y23500D03*
X85500Y24000D03*
X85000Y24500D03*
X84500Y25000D03*
X83250Y26750D03*
X82250Y25000D03*
X81750Y24000D03*
X82000Y24500D03*
X81500Y23500D03*
X81250Y23000D03*
X81000Y22500D03*
X80500Y21500D03*
X79000Y23000D03*
X78500Y23500D03*
X78000Y24000D03*
X80000Y22000D03*
X79500Y22500D03*
X77000Y21500D03*
X86250Y20500D03*
X82250D03*
X84250D03*
X80250D03*
X78250D03*
X76250D03*
X74250D03*
X72250D03*
X70250D03*
X71500Y23500D03*
X71000Y23250D03*
X72000Y23750D03*
X70500Y23000D03*
X70000Y23500D03*
X69500Y24000D03*
X77500Y24500D03*
X77000Y25000D03*
X69000Y24500D03*
X68500Y25000D03*
X65750Y24000D03*
X64000Y22000D03*
X66250Y25000D03*
X66000Y24500D03*
X61500D03*
X61000Y25000D03*
X68250Y20500D03*
X64250D03*
X66250D03*
X62250D03*
X60250D03*
X58250D03*
X56250D03*
X54250D03*
X52250D03*
X67250Y26750D03*
X65500Y23500D03*
X63500Y22500D03*
X63000Y23000D03*
X62500Y23500D03*
X65000Y22500D03*
X65250Y23000D03*
X62000Y24000D03*
X55000Y23250D03*
X54500Y23000D03*
X55500Y23500D03*
X54000D03*
X56000Y23750D03*
X53500Y24000D03*
X53000Y24500D03*
X52500Y25000D03*
X45500Y24500D03*
X45000Y25000D03*
X64500Y21500D03*
X61000D03*
X48500D03*
X48000Y22000D03*
X45000Y21500D03*
X50250Y25000D03*
X50000Y24500D03*
X51250Y26750D03*
X49750Y24000D03*
X49250Y23000D03*
X49000Y22500D03*
X49500Y23500D03*
X47500Y22500D03*
X47000Y23000D03*
X46500Y23500D03*
X46000Y24000D03*
X39000Y23250D03*
X38500Y23000D03*
X39500Y23500D03*
X38000D03*
X40000Y23750D03*
X37500Y24000D03*
X37000Y24500D03*
X36500Y25000D03*
X50250Y20500D03*
X48250D03*
X44250D03*
X46250D03*
X42250D03*
G54D13*X48500Y10250D03*
G54D21*X50000Y11000D03*
G54D13*X42000Y13000D03*
G54D21*X40250Y20500D03*
X38250D03*
X36250D03*
X34250D03*
X65000Y30500D03*
X64000Y31500D03*
X64500Y31000D03*
X63500Y32000D03*
X63000Y32500D03*
X62500Y33000D03*
X62000Y33500D03*
X61500Y34000D03*
X61000Y34500D03*
X61500Y40000D03*
X62000Y39000D03*
X61000Y41000D03*
X59750Y37000D03*
X58750Y30500D03*
X58250Y32000D03*
G54D13*X57750Y26750D03*
G54D21*X57500Y32500D03*
X50000Y31000D03*
X49000Y30500D03*
X48000Y31500D03*
X48500Y31000D03*
X47500Y32000D03*
X47000Y32500D03*
X46500Y33000D03*
X46000Y33500D03*
X53500Y33000D03*
X45500Y34000D03*
G54D13*X41500Y33250D03*
G54D21*X38750Y35500D03*
X53500Y39000D03*
Y39500D03*
Y40000D03*
X51750Y43250D03*
X45000Y34500D03*
X43250Y35500D03*
Y36500D03*
X43000Y35000D03*
Y36000D03*
X51250Y43500D03*
X50000Y41500D03*
X48000Y42000D03*
Y44000D03*
X47500Y42500D03*
X43000Y37000D03*
X42750Y39000D03*
X39250Y40000D03*
X38500D03*
X33500Y23500D03*
X33750Y24000D03*
X33250Y23000D03*
X35250Y26750D03*
X33000Y22500D03*
X32500Y21500D03*
X31500Y22500D03*
X32000Y22000D03*
X31000Y23000D03*
G54D13*X41500Y26750D03*
G54D21*X34250Y25000D03*
X34000Y24500D03*
X29500D03*
X29000Y25000D03*
X28500Y24500D03*
X33000Y35000D03*
X30000Y24000D03*
X33000Y30500D03*
X32000Y31250D03*
X31500Y31000D03*
X31000Y30750D03*
X30500Y23500D03*
Y31000D03*
X30000Y30500D03*
G54D13*Y37000D03*
G54D21*X29500Y31750D03*
X29000Y21500D03*
Y31500D03*
Y32750D03*
X28250Y27750D03*
X27750Y30000D03*
X32250Y20500D03*
X30250D03*
X28250D03*
X26250D03*
X22250D03*
X24250D03*
X20250D03*
X23000Y23250D03*
X24000Y23750D03*
X23500Y23500D03*
X22500Y23000D03*
X22000Y23500D03*
X21500Y24000D03*
X21000Y24500D03*
X20500Y25000D03*
X18250D03*
X19250Y26750D03*
X18000Y24500D03*
Y11000D03*
X17750Y24000D03*
X17500Y23500D03*
G54D13*X16500Y10250D03*
G54D21*X17000Y22500D03*
X17250Y23000D03*
X16500Y21500D03*
X16000Y22000D03*
X15500Y22500D03*
X14000Y24000D03*
X13500Y24500D03*
X13000Y25000D03*
X15000Y23000D03*
X14500Y23500D03*
X13000Y21500D03*
X18250Y20500D03*
X16250D03*
X14250D03*
X12250D03*
X12500Y24500D03*
G54D13*X11250Y26750D03*
X10000Y13000D03*
G54D22*X5000Y5000D03*
G54D21*X16000Y31250D03*
X17000Y35000D03*
X18750Y36250D03*
X15500Y35750D03*
X19750Y36250D03*
X14500Y35750D03*
X13000Y32750D03*
X14000Y30500D03*
X14500Y31000D03*
X13500Y31750D03*
X15000Y30750D03*
X15500Y31000D03*
X13000Y31500D03*
X11750Y29750D03*
G54D13*X10750Y36250D03*
X8250Y38750D03*
G54D22*X5000Y45000D03*
G54D23*%LNGROUP0_C3*%
%LPC*%
G54D24*G54D14*G54D24*G54D14*G54D24*G54D23*G54D24*G54D23*G54D24*G54D23*G54D24*G54D23*G54D24*G54D23*G54D24*G54D23*G54D24*G54D23*G54D24*G54D14*G54D23*G54D24*G54D23*G54D24*G54D23*G54D25*G54D23*G54D11*G54D23*G54D11*G54D24*G54D23*G54D11*G54D26*G54D25*G54D11*G54D25*G54D11*G54D26*G54D11*G54D25*G54D11*G54D25*G54D11*G54D25*G54D11*G54D25*G54D11*G54D25*G54D11*G54D25*G54D11*G54D25*G54D11*G54D25*G54D11*G54D25*G54D26*G54D11*G54D25*G54D26*M02*
