M48
INCH,TZ
T11C0.042
T12C0.028
T13C0.030
T14C0.035
T15C0.020
T16C0.219
%
T15
X016750Y038500
X016750Y041500
X010750Y038500
X010750Y041500
X142500Y018750
X142500Y019750
X142250Y019250
X142000Y019750
X142500Y020750
X142250Y020250
X142000Y020750
X141750Y020250
X141500Y020750
X141250Y020250
X141500Y019750
X141250Y019250
X141750Y019250
X141000Y019750
X142000Y018750
X141500Y018750
X141000Y018750
X140500Y018750
X140750Y019250
X140500Y019750
X140250Y019250
X141000Y020750
X140500Y020750
X140750Y020250
X140250Y020250
X136250Y020500
X134250Y020500
X138250Y020500
X132250Y020500
X130250Y020500
X114000Y011000
X134500Y023000
X135500Y023500
X136000Y023750
X135000Y023250
X134000Y023500
X129500Y023500
X128500Y021500
X128250Y020500
X128000Y022000
X127500Y022500
X129000Y022500
X127000Y023000
X129250Y023000
X126500Y023500
X126250Y020500
X133000Y024500
X130000Y024500
X133500Y024000
X129750Y024000
X126000Y024000
X125500Y024500
X131250Y026750
X130250Y025000
X132500Y025000
X125000Y025000
X125000Y021500
X124250Y020500
X119500Y023500
X119000Y023250
X120000Y023750
X118500Y023000
X118000Y023500
X118250Y020500
X120250Y020500
X116250Y020500
X122250Y020500
X114250Y020500
X115250Y026750
X112500Y021500
X112250Y020500
X112000Y022000
X113000Y022500
X113250Y023000
X111500Y022500
X113500Y023500
X111000Y023000
X110500Y023500
X117500Y024000
X117000Y024500
X114000Y024500
X113750Y024000
X110000Y024000
X109500Y024500
X114250Y025000
X116500Y025000
X109000Y025000
X093000Y025000
X129000Y030500
X129000Y031500
X129000Y032500
X129000Y033500
X129000Y034500
X128500Y036500
X128000Y031500
X128500Y031000
X127500Y032000
X127000Y032500
X126500Y033000
X126000Y033500
X125500Y034000
X126500Y035500
X127500Y036000
X125500Y035000
X125000Y034500
X123750Y035000
X113000Y030500
X112000Y031500
X112500Y031000
X111500Y032000
X111000Y032500
X110500Y033000
X110000Y033500
X109500Y034000
X109000Y034500
X107750Y035500
X110250Y020500
X109000Y021500
X108250Y020500
X106250Y020500
X104250Y020500
X103500Y023500
X104000Y023750
X103000Y023250
X102500Y023000
X102000Y023500
X098250Y025000
X098000Y024500
X100500Y025000
X097750Y024000
X101000Y024500
X101500Y024000
X094000Y024000
X096000Y031500
X096500Y031000
X095500Y032000
X097000Y030500
X096000Y022000
X093500Y024500
X094500Y033000
X094000Y033500
X095000Y032500
X093500Y034000
X093000Y034500
X091750Y036000
X081000Y030500
X080000Y031500
X080500Y031000
X079500Y032000
X079000Y032500
X078500Y033000
X078000Y033500
X077500Y034000
X077000Y034500
X075750Y036500
X082000Y011000
X100250Y020500
X102250Y020500
X098250Y020500
X096500Y021500
X097000Y022500
X097250Y023000
X095500Y022500
X095000Y023000
X094500Y023500
X093000Y021500
X099250Y026750
X097500Y023500
X096250Y020500
X094250Y020500
X092250Y020500
X090250Y020500
X088250Y020500
X087500Y023500
X088000Y023750
X087000Y023250
X086500Y023000
X086000Y023500
X085500Y024000
X085000Y024500
X084500Y025000
X083250Y026750
X082250Y025000
X081750Y024000
X082000Y024500
X081500Y023500
X081250Y023000
X081000Y022500
X080500Y021500
X079000Y023000
X078500Y023500
X078000Y024000
X080000Y022000
X079500Y022500
X077000Y021500
X086250Y020500
X082250Y020500
X084250Y020500
X080250Y020500
X078250Y020500
X076250Y020500
X074250Y020500
X072250Y020500
X070250Y020500
X071500Y023500
X071000Y023250
X072000Y023750
X070500Y023000
X070000Y023500
X069500Y024000
X077500Y024500
X077000Y025000
X069000Y024500
X068500Y025000
X065750Y024000
X064000Y022000
X066250Y025000
X066000Y024500
X061500Y024500
X061000Y025000
X068250Y020500
X064250Y020500
X066250Y020500
X062250Y020500
X060250Y020500
X058250Y020500
X056250Y020500
X054250Y020500
X052250Y020500
X067250Y026750
X065500Y023500
X063500Y022500
X063000Y023000
X062500Y023500
X065000Y022500
X065250Y023000
X062000Y024000
X055000Y023250
X054500Y023000
X055500Y023500
X054000Y023500
X056000Y023750
X053500Y024000
X053000Y024500
X052500Y025000
X045500Y024500
X045000Y025000
X064500Y021500
X061000Y021500
X048500Y021500
X048000Y022000
X045000Y021500
X050250Y025000
X050000Y024500
X051250Y026750
X049750Y024000
X049250Y023000
X049000Y022500
X049500Y023500
X047500Y022500
X047000Y023000
X046500Y023500
X046000Y024000
X039000Y023250
X038500Y023000
X039500Y023500
X038000Y023500
X040000Y023750
X037500Y024000
X037000Y024500
X036500Y025000
X050250Y020500
X048250Y020500
X044250Y020500
X046250Y020500
X042250Y020500
X050000Y011000
X040250Y020500
X038250Y020500
X036250Y020500
X034250Y020500
X065000Y030500
X064000Y031500
X064500Y031000
X063500Y032000
X063000Y032500
X062500Y033000
X062000Y033500
X061500Y034000
X061000Y034500
X061500Y040000
X062000Y039000
X061000Y041000
X059750Y037000
X058750Y030500
X058250Y032000
X057500Y032500
X050000Y031000
X049000Y030500
X048000Y031500
X048500Y031000
X047500Y032000
X047000Y032500
X046500Y033000
X046000Y033500
X053500Y033000
X045500Y034000
X038750Y035500
X053500Y039000
X053500Y039500
X053500Y040000
X051750Y043250
X045000Y034500
X043250Y035500
X043250Y036500
X043000Y035000
X043000Y036000
X051250Y043500
X050000Y041500
X048000Y042000
X048000Y044000
X047500Y042500
X043000Y037000
X042750Y039000
X039250Y040000
X038500Y040000
X033500Y023500
X033750Y024000
X033250Y023000
X035250Y026750
X033000Y022500
X032500Y021500
X031500Y022500
X032000Y022000
X031000Y023000
X034250Y025000
X034000Y024500
X029500Y024500
X029000Y025000
X028500Y024500
X033000Y035000
X030000Y024000
X033000Y030500
X032000Y031250
X031500Y031000
X031000Y030750
X030500Y023500
X030500Y031000
X030000Y030500
X029500Y031750
X029000Y021500
X029000Y031500
X029000Y032750
X028250Y027750
X027750Y030000
X032250Y020500
X030250Y020500
X028250Y020500
X026250Y020500
X022250Y020500
X024250Y020500
X020250Y020500
X023000Y023250
X024000Y023750
X023500Y023500
X022500Y023000
X022000Y023500
X021500Y024000
X021000Y024500
X020500Y025000
X018250Y025000
X019250Y026750
X018000Y024500
X018000Y011000
X017750Y024000
X017500Y023500
X017000Y022500
X017250Y023000
X016500Y021500
X016000Y022000
X015500Y022500
X014000Y024000
X013500Y024500
X013000Y025000
X015000Y023000
X014500Y023500
X013000Y021500
X018250Y020500
X016250Y020500
X014250Y020500
X012250Y020500
X012500Y024500
X016000Y031250
X017000Y035000
X018750Y036250
X015500Y035750
X019750Y036250
X014500Y035750
X013000Y032750
X014000Y030500
X014500Y031000
X013500Y031750
X015000Y030750
X015500Y031000
X013000Y031500
X011750Y029750
T12
X138000Y014250
X138000Y015250
X138000Y016250
X138000Y017250
X136000Y014250
X136000Y015250
X136000Y016250
X136000Y017250
X134000Y014250
X134000Y015250
X134000Y016250
X134000Y017250
X132000Y014250
X132000Y015250
X132000Y016250
X132000Y017250
X130000Y014250
X130000Y015250
X130000Y016250
X130000Y017250
X128000Y014250
X128000Y015250
X128000Y016250
X128000Y017250
X126000Y014250
X126000Y015250
X126000Y016250
X126000Y017250
X124000Y015250
X124000Y016250
X124000Y017250
X122000Y015250
X122000Y016250
X122000Y017250
X120000Y015250
X120000Y016250
X120000Y017250
X124000Y014250
X122000Y014250
X120000Y014250
X118000Y014250
X118000Y015250
X118000Y016250
X118000Y017250
X116000Y016250
X116000Y017250
X114000Y015250
X114000Y016250
X112000Y014250
X114000Y017250
X112000Y015250
X112000Y016250
X112000Y017250
X116000Y014250
X110000Y014250
X106000Y014250
X104000Y014250
X102000Y014250
X116000Y015250
X110000Y015250
X104000Y015250
X102000Y015250
X108000Y014250
X108000Y015250
X108000Y016250
X108000Y017250
X106000Y015250
X106000Y016250
X106000Y017250
X104000Y016250
X104000Y017250
X102000Y016250
X102000Y017250
X100000Y016250
X100000Y017250
X100000Y014250
X098000Y014250
X100000Y015250
X098000Y015250
X098000Y016250
X098000Y017250
X110000Y016250
X110000Y017250
X096000Y014250
X096000Y015250
X096000Y016250
X096000Y017250
X094000Y014250
X094000Y015250
X094000Y016250
X094000Y017250
X092000Y016250
X092000Y017250
X114000Y014250
X092000Y014250
X090000Y014250
X088000Y014250
X092000Y015250
X090000Y015250
X090000Y016250
X090000Y017250
X088000Y015250
X088000Y016250
X088000Y017250
X086000Y014250
X086000Y015250
X086000Y016250
X086000Y017250
X084000Y014250
X084000Y015250
X084000Y016250
X084000Y017250
X082000Y015250
X082000Y016250
X082000Y017250
X082000Y014250
X080000Y014250
X080000Y015250
X080000Y016250
X080000Y017250
X078000Y014250
X076000Y014250
X078000Y015250
X078000Y016250
X078000Y017250
X076000Y015250
X076000Y016250
X076000Y017250
X074000Y016250
X074000Y017250
X074000Y015250
X072000Y015250
X072000Y016250
X072000Y017250
X074000Y014250
X072000Y014250
X070000Y014250
X070000Y015250
X070000Y016250
X070000Y017250
X066000Y014250
X066000Y015250
X066000Y016250
X066000Y017250
X068000Y014250
X064000Y014250
X068000Y015250
X064000Y015250
X068000Y016250
X064000Y016250
X068000Y017250
X064000Y017250
X062000Y014250
X062000Y015250
X060000Y014250
X060000Y015250
X062000Y016250
X060000Y016250
X058000Y016250
X056000Y016250
X062000Y017250
X060000Y017250
X058000Y017250
X056000Y017250
X058000Y014250
X058000Y015250
X056000Y014250
X054000Y014250
X056000Y015250
X054000Y015250
X054000Y017250
X048000Y017250
X046000Y017250
X052000Y015250
X052000Y016250
X052000Y017250
X052000Y014250
X050000Y014250
X050000Y015250
X050000Y016250
X050000Y017250
X048000Y014250
X048000Y015250
X054000Y016250
X048000Y016250
X046000Y016250
X059000Y038000
X059000Y039000
X059000Y040000
X059000Y041000
X056000Y038000
X056000Y039000
X056000Y040000
X056000Y041000
X044000Y016250
X044000Y017250
X046000Y014250
X046000Y015250
X044000Y014250
X044000Y015250
X042000Y016250
X042000Y017250
X040000Y016250
X040000Y017250
X042000Y014250
X042000Y015250
X040000Y014250
X040000Y015250
X038000Y015250
X038000Y016250
X038000Y017250
X038000Y014250
X036000Y014250
X036000Y015250
X036000Y016250
X036000Y017250
X034000Y014250
X034000Y015250
X034000Y016250
X034000Y017250
X032000Y014250
X032000Y015250
X032000Y016250
X032000Y017250
X030000Y014250
X030000Y015250
X030000Y016250
X028000Y014250
X030000Y017250
X028000Y015250
X028000Y016250
X028000Y017250
X026000Y014250
X026000Y015250
X026000Y016250
X026000Y017250
X024000Y014250
X022000Y014250
X020000Y014250
X018000Y014250
X024000Y015250
X022000Y015250
X020000Y015250
X018000Y015250
X016000Y015250
X014000Y015250
X024000Y016250
X022000Y016250
X020000Y016250
X018000Y016250
X016000Y016250
X014000Y016250
X024000Y017250
X022000Y017250
X020000Y017250
X018000Y017250
X016000Y017250
X014000Y017250
X012000Y015250
X012000Y016250
X012000Y017250
X016000Y014250
X014000Y014250
X012000Y014250
T13
X136000Y009750
X137000Y009750
X058750Y043750
X057750Y043750
X059750Y043750
X056750Y043750
X055750Y043750
X054750Y043750
T14
X033750Y039250
X033750Y041250
X029750Y040250
X127750Y007000
X112500Y010250
X129500Y009750
X106000Y013000
X080500Y010250
X074000Y013000
X048500Y010250
X042000Y013000
X057750Y026750
X041500Y033250
X041500Y026750
X030000Y037000
X016500Y010250
X011250Y026750
X010000Y013000
X010750Y036250
X008250Y038750
T11
X143500Y015000
X142500Y016000
X139000Y026750
X137000Y030500
X136000Y030500
X136000Y031500
X135000Y031500
X135000Y032500
X134000Y033500
X133000Y033500
X133000Y034500
X134000Y032500
X132000Y034500
X123750Y024000
X107750Y024000
X091750Y024000
X106250Y006750
X074250Y006750
X042250Y006750
X059750Y024000
X075750Y024000
X051250Y045750
X046500Y041000
X043750Y024000
X043000Y034000
X039000Y041750
X037500Y037000
X037500Y038000
X038500Y033500
X037500Y039000
X034500Y033250
X034500Y034250
X034500Y032250
X034500Y035250
X027250Y032250
X027250Y033250
X027250Y034250
X027250Y035250
X027250Y036250
X018500Y033250
X018500Y032250
X018500Y034250
X018500Y035250
X011500Y032250
X011500Y033250
X011500Y035250
X011250Y023500
X011500Y034250
X011250Y024500
X010250Y006750
T16
X145000Y005000
X145000Y045000
X005000Y005000
X005000Y045000
M30
