G04 start of page 9 for group -3984 idx -3984
G04 Title: (unknown), fab *
G04 Creator: pcb-bin 20060822 *
G04 CreationDate: Mon Jun 23 06:34:48 2008 UTC *
G04 For: pete *
G04 Format: Gerber/RS-274X *
G04 PCB-Dimensions: 1500000 500000 *
G04 PCB-Coordinate-Origin: lower left *
%MOIN*%
%FSLAX24Y24*%
%LNFAB*%
%ADD11R,0.0080X0.0080*%
%ADD12C,0.0100*%
G54D11*X145000Y5000D02*Y4680D01*
Y5000D02*X145277Y5160D01*
X145000Y5000D02*X144722Y5160D01*
X144840Y5000D02*G75*G03X145160Y5000I160J0D01*G01*
G75*G03X144840Y5000I-160J0D01*G01*
X5000Y45000D02*Y44680D01*
Y45000D02*X5277Y45160D01*
X5000Y45000D02*X4722Y45160D01*
X4840Y45000D02*G75*G03X5160Y45000I160J0D01*G01*
G75*G03X4840Y45000I-160J0D01*G01*
X5000Y5000D02*Y4680D01*
Y5000D02*X5277Y5160D01*
X5000Y5000D02*X4722Y5160D01*
X4840Y5000D02*G75*G03X5160Y5000I160J0D01*G01*
G75*G03X4840Y5000I-160J0D01*G01*
X145000Y45000D02*Y44680D01*
Y45000D02*X145277Y45160D01*
X145000Y45000D02*X144722Y45160D01*
X144840Y45000D02*G75*G03X145160Y45000I160J0D01*G01*
G75*G03X144840Y45000I-160J0D01*G01*
X1500Y51125D02*Y50805D01*
Y51125D02*X1777Y51285D01*
X1500Y51125D02*X1222Y51285D01*
X1340Y51125D02*G75*G03X1660Y51125I160J0D01*G01*
G75*G03X1340Y51125I-160J0D01*G01*
G54D12*X13500Y51350D02*Y51275D01*
X13650Y51125D01*
X13800Y51275D01*
Y51350D02*Y51275D01*
X13650Y51125D02*Y50750D01*
X13980Y51050D02*X14205D01*
X13980Y50750D02*X14280D01*
X13980Y51350D02*Y50750D01*
Y51350D02*X14280D01*
X14760D02*X14835Y51275D01*
X14535Y51350D02*X14760D01*
X14460Y51275D02*X14535Y51350D01*
X14460Y51275D02*Y51125D01*
X14535Y51050D01*
X14760D01*
X14835Y50975D01*
Y50825D01*
X14760Y50750D02*X14835Y50825D01*
X14535Y50750D02*X14760D01*
X14460Y50825D02*X14535Y50750D01*
X13500Y50424D02*X15015D01*
X9800Y51050D02*X10100Y51350D01*
X9800Y51050D02*X10175D01*
X10100Y51350D02*Y50750D01*
X9800Y50424D02*X10355D01*
X4500Y50825D02*X4575Y50750D01*
X4500Y51275D02*Y50825D01*
Y51275D02*X4575Y51350D01*
X4725D01*
X4800Y51275D01*
Y50825D01*
X4725Y50750D02*X4800Y50825D01*
X4575Y50750D02*X4725D01*
X4500Y50900D02*X4800Y51200D01*
X4980Y50750D02*X5055D01*
X5235Y51275D02*X5310Y51350D01*
X5535D01*
X5610Y51275D01*
Y51125D01*
X5235Y50750D02*X5610Y51125D01*
X5235Y50750D02*X5610D01*
X5865D02*X6015D01*
X5940Y51350D02*Y50750D01*
X5790Y51200D02*X5940Y51350D01*
X6195Y50750D02*X6495Y51050D01*
Y51275D02*Y51050D01*
X6420Y51350D02*X6495Y51275D01*
X6270Y51350D02*X6420D01*
X6195Y51275D02*X6270Y51350D01*
X6195Y51275D02*Y51125D01*
X6270Y51050D01*
X6495D01*
X4500Y50424D02*X6675D01*
X134840Y31660D02*X135160D01*
X134840D02*Y31340D01*
X135160D01*
Y31660D02*Y31340D01*
X135840Y31660D02*X136160D01*
X135840D02*Y31340D01*
X136160D01*
Y31660D02*Y31340D01*
X135840Y30660D02*X136160D01*
X135840D02*Y30340D01*
X136160D01*
Y30660D02*Y30340D01*
X10090Y6910D02*X10410D01*
X10090D02*Y6590D01*
X10410D01*
Y6910D02*Y6590D01*
X42090Y6910D02*X42410D01*
X42090D02*Y6590D01*
X42410D01*
Y6910D02*Y6590D01*
X74090Y6910D02*X74410D01*
X74090D02*Y6590D01*
X74410D01*
Y6910D02*Y6590D01*
X106090Y6910D02*X106410D01*
X106090D02*Y6590D01*
X106410D01*
Y6910D02*Y6590D01*
X11340Y34410D02*X11660D01*
X11340D02*Y34090D01*
X11660D01*
Y34410D02*Y34090D01*
X91590Y24160D02*X91910D01*
X91590D02*Y23840D01*
X91910D01*
Y24160D02*Y23840D01*
X107590Y24160D02*X107910D01*
X107590D02*Y23840D01*
X107910D01*
Y24160D02*Y23840D01*
X143340Y15160D02*X143660D01*
X143340D02*Y14840D01*
X143660D01*
Y15160D02*Y14840D01*
X11340Y35410D02*X11660D01*
X11340D02*Y35090D01*
X11660D01*
Y35410D02*Y35090D01*
X136840Y30660D02*X137160D01*
X136840D02*Y30340D01*
X137160D01*
Y30660D02*Y30340D01*
X11090Y24660D02*X11410D01*
X11090D02*Y24340D01*
X11410D01*
Y24660D02*Y24340D01*
X51090Y45910D02*X51410D01*
X51090D02*Y45590D01*
X51410D01*
Y45910D02*Y45590D01*
X75590Y24160D02*X75910D01*
X75590D02*Y23840D01*
X75910D01*
Y24160D02*Y23840D01*
X34340Y33410D02*X34660D01*
X34340D02*Y33090D01*
X34660D01*
Y33410D02*Y33090D01*
X133840Y32660D02*X134160D01*
X133840D02*Y32340D01*
X134160D01*
Y32660D02*Y32340D01*
X27090Y34410D02*X27410D01*
X27090D02*Y34090D01*
X27410D01*
Y34410D02*Y34090D01*
X34340Y32410D02*X34660D01*
X34340D02*Y32090D01*
X34660D01*
Y32410D02*Y32090D01*
X138840Y26910D02*X139160D01*
X138840D02*Y26590D01*
X139160D01*
Y26910D02*Y26590D01*
X18340Y34410D02*X18660D01*
X18340D02*Y34090D01*
X18660D01*
Y34410D02*Y34090D01*
X27090Y36410D02*X27410D01*
X27090D02*Y36090D01*
X27410D01*
Y36410D02*Y36090D01*
X42840Y34160D02*X43160D01*
X42840D02*Y33840D01*
X43160D01*
Y34160D02*Y33840D01*
X43590Y24160D02*X43910D01*
X43590D02*Y23840D01*
X43910D01*
Y24160D02*Y23840D01*
X18340Y32410D02*X18660D01*
X18340D02*Y32090D01*
X18660D01*
Y32410D02*Y32090D01*
X34340Y34410D02*X34660D01*
X34340D02*Y34090D01*
X34660D01*
Y34410D02*Y34090D01*
X133840Y33660D02*X134160D01*
X133840D02*Y33340D01*
X134160D01*
Y33660D02*Y33340D01*
X123590Y24160D02*X123910D01*
X123590D02*Y23840D01*
X123910D01*
Y24160D02*Y23840D01*
X38340Y33660D02*X38660D01*
X38340D02*Y33340D01*
X38660D01*
Y33660D02*Y33340D01*
X59590Y24160D02*X59910D01*
X59590D02*Y23840D01*
X59910D01*
Y24160D02*Y23840D01*
X37340Y37160D02*X37660D01*
X37340D02*Y36840D01*
X37660D01*
Y37160D02*Y36840D01*
X132840Y33660D02*X133160D01*
X132840D02*Y33340D01*
X133160D01*
Y33660D02*Y33340D01*
X134840Y32660D02*X135160D01*
X134840D02*Y32340D01*
X135160D01*
Y32660D02*Y32340D01*
X46340Y41160D02*X46660D01*
X46340D02*Y40840D01*
X46660D01*
Y41160D02*Y40840D01*
X27090Y33410D02*X27410D01*
X27090D02*Y33090D01*
X27410D01*
Y33410D02*Y33090D01*
X132840Y34660D02*X133160D01*
X132840D02*Y34340D01*
X133160D01*
Y34660D02*Y34340D01*
X27090Y32410D02*X27410D01*
X27090D02*Y32090D01*
X27410D01*
Y32410D02*Y32090D01*
X11340Y32410D02*X11660D01*
X11340D02*Y32090D01*
X11660D01*
Y32410D02*Y32090D01*
X37340Y39160D02*X37660D01*
X37340D02*Y38840D01*
X37660D01*
Y39160D02*Y38840D01*
X18340Y33410D02*X18660D01*
X18340D02*Y33090D01*
X18660D01*
Y33410D02*Y33090D01*
X18340Y35410D02*X18660D01*
X18340D02*Y35090D01*
X18660D01*
Y35410D02*Y35090D01*
X27090Y35410D02*X27410D01*
X27090D02*Y35090D01*
X27410D01*
Y35410D02*Y35090D01*
X11340Y33410D02*X11660D01*
X11340D02*Y33090D01*
X11660D01*
Y33410D02*Y33090D01*
X37340Y38160D02*X37660D01*
X37340D02*Y37840D01*
X37660D01*
Y38160D02*Y37840D01*
X11090Y23660D02*X11410D01*
X11090D02*Y23340D01*
X11410D01*
Y23660D02*Y23340D01*
X142340Y16160D02*X142660D01*
X142340D02*Y15840D01*
X142660D01*
Y16160D02*Y15840D01*
X38840Y41910D02*X39160D01*
X38840D02*Y41590D01*
X39160D01*
Y41910D02*Y41590D01*
X131840Y34660D02*X132160D01*
X131840D02*Y34340D01*
X132160D01*
Y34660D02*Y34340D01*
X34340Y35410D02*X34660D01*
X34340D02*Y35090D01*
X34660D01*
Y35410D02*Y35090D01*
X1340Y52785D02*X1660D01*
X1340D02*Y52465D01*
X1660D01*
Y52785D02*Y52465D01*
X13500Y52850D02*Y52775D01*
X13650Y52625D01*
X13800Y52775D01*
Y52850D02*Y52775D01*
X13650Y52625D02*Y52250D01*
X13980Y52550D02*X14205D01*
X13980Y52250D02*X14280D01*
X13980Y52850D02*Y52250D01*
Y52850D02*X14280D01*
X14760D02*X14835Y52775D01*
X14535Y52850D02*X14760D01*
X14460Y52775D02*X14535Y52850D01*
X14460Y52775D02*Y52625D01*
X14535Y52550D01*
X14760D01*
X14835Y52475D01*
Y52325D01*
X14760Y52250D02*X14835Y52325D01*
X14535Y52250D02*X14760D01*
X14460Y52325D02*X14535Y52250D01*
X13500Y51924D02*X15015D01*
X9800Y52850D02*X10100D01*
X9800D02*Y52550D01*
X9875Y52625D01*
X10025D01*
X10100Y52550D01*
Y52325D01*
X10025Y52250D02*X10100Y52325D01*
X9875Y52250D02*X10025D01*
X9800Y52325D02*X9875Y52250D01*
X10280Y52325D02*X10355Y52250D01*
X10280Y52775D02*Y52325D01*
Y52775D02*X10355Y52850D01*
X10505D01*
X10580Y52775D01*
Y52325D01*
X10505Y52250D02*X10580Y52325D01*
X10355Y52250D02*X10505D01*
X10280Y52400D02*X10580Y52700D01*
X9800Y51924D02*X10760D01*
X4500Y52325D02*X4575Y52250D01*
X4500Y52775D02*Y52325D01*
Y52775D02*X4575Y52850D01*
X4725D01*
X4800Y52775D01*
Y52325D01*
X4725Y52250D02*X4800Y52325D01*
X4575Y52250D02*X4725D01*
X4500Y52400D02*X4800Y52700D01*
X4980Y52250D02*X5055D01*
X5235Y52325D02*X5310Y52250D01*
X5235Y52775D02*Y52325D01*
Y52775D02*X5310Y52850D01*
X5460D01*
X5535Y52775D01*
Y52325D01*
X5460Y52250D02*X5535Y52325D01*
X5310Y52250D02*X5460D01*
X5235Y52400D02*X5535Y52700D01*
X5715Y52550D02*X6015Y52850D01*
X5715Y52550D02*X6090D01*
X6015Y52850D02*Y52250D01*
X6270Y52775D02*X6345Y52850D01*
X6570D01*
X6645Y52775D01*
Y52625D01*
X6270Y52250D02*X6645Y52625D01*
X6270Y52250D02*X6645D01*
X4500Y51924D02*X6825D01*
X33670Y39250D02*G75*G03X33830Y39250I80J0D01*G01*
G75*G03X33670Y39250I-80J0D01*G01*
Y41250D02*G75*G03X33830Y41250I80J0D01*G01*
G75*G03X33670Y41250I-80J0D01*G01*
X29670Y40250D02*G75*G03X29830Y40250I80J0D01*G01*
G75*G03X29670Y40250I-80J0D01*G01*
X11170Y26750D02*G75*G03X11330Y26750I80J0D01*G01*
G75*G03X11170Y26750I-80J0D01*G01*
X10670Y36250D02*G75*G03X10830Y36250I80J0D01*G01*
G75*G03X10670Y36250I-80J0D01*G01*
X8170Y38750D02*G75*G03X8330Y38750I80J0D01*G01*
G75*G03X8170Y38750I-80J0D01*G01*
X57670Y26750D02*G75*G03X57830Y26750I80J0D01*G01*
G75*G03X57670Y26750I-80J0D01*G01*
X41420Y33250D02*G75*G03X41580Y33250I80J0D01*G01*
G75*G03X41420Y33250I-80J0D01*G01*
Y26750D02*G75*G03X41580Y26750I80J0D01*G01*
G75*G03X41420Y26750I-80J0D01*G01*
X29920Y37000D02*G75*G03X30080Y37000I80J0D01*G01*
G75*G03X29920Y37000I-80J0D01*G01*
X9920Y13000D02*G75*G03X10080Y13000I80J0D01*G01*
G75*G03X9920Y13000I-80J0D01*G01*
X16420Y10250D02*G75*G03X16580Y10250I80J0D01*G01*
G75*G03X16420Y10250I-80J0D01*G01*
X48420D02*G75*G03X48580Y10250I80J0D01*G01*
G75*G03X48420Y10250I-80J0D01*G01*
X80420D02*G75*G03X80580Y10250I80J0D01*G01*
G75*G03X80420Y10250I-80J0D01*G01*
X112420D02*G75*G03X112580Y10250I80J0D01*G01*
G75*G03X112420Y10250I-80J0D01*G01*
X41920Y13000D02*G75*G03X42080Y13000I80J0D01*G01*
G75*G03X41920Y13000I-80J0D01*G01*
X73920D02*G75*G03X74080Y13000I80J0D01*G01*
G75*G03X73920Y13000I-80J0D01*G01*
X105920D02*G75*G03X106080Y13000I80J0D01*G01*
G75*G03X105920Y13000I-80J0D01*G01*
X127670Y7000D02*G75*G03X127830Y7000I80J0D01*G01*
G75*G03X127670Y7000I-80J0D01*G01*
X129420Y9750D02*G75*G03X129580Y9750I80J0D01*G01*
G75*G03X129420Y9750I-80J0D01*G01*
X1420Y54125D02*G75*G03X1580Y54125I80J0D01*G01*
G75*G03X1420Y54125I-80J0D01*G01*
X13500Y54350D02*Y54275D01*
X13650Y54125D01*
X13800Y54275D01*
Y54350D02*Y54275D01*
X13650Y54125D02*Y53750D01*
X13980Y54050D02*X14205D01*
X13980Y53750D02*X14280D01*
X13980Y54350D02*Y53750D01*
Y54350D02*X14280D01*
X14760D02*X14835Y54275D01*
X14535Y54350D02*X14760D01*
X14460Y54275D02*X14535Y54350D01*
X14460Y54275D02*Y54125D01*
X14535Y54050D01*
X14760D01*
X14835Y53975D01*
Y53825D01*
X14760Y53750D02*X14835Y53825D01*
X14535Y53750D02*X14760D01*
X14460Y53825D02*X14535Y53750D01*
X13500Y53424D02*X15015D01*
X9800Y54275D02*X9875Y54350D01*
X10100D01*
X10175Y54275D01*
Y54125D01*
X9800Y53750D02*X10175Y54125D01*
X9800Y53750D02*X10175D01*
X10355Y53825D02*X10430Y53750D01*
X10355Y54275D02*Y53825D01*
Y54275D02*X10430Y54350D01*
X10580D01*
X10655Y54275D01*
Y53825D01*
X10580Y53750D02*X10655Y53825D01*
X10430Y53750D02*X10580D01*
X10355Y53900D02*X10655Y54200D01*
X9800Y53424D02*X10835D01*
X4500Y53825D02*X4575Y53750D01*
X4500Y54275D02*Y53825D01*
Y54275D02*X4575Y54350D01*
X4725D01*
X4800Y54275D01*
Y53825D01*
X4725Y53750D02*X4800Y53825D01*
X4575Y53750D02*X4725D01*
X4500Y53900D02*X4800Y54200D01*
X4980Y53750D02*X5055D01*
X5235Y53825D02*X5310Y53750D01*
X5235Y54275D02*Y53825D01*
Y54275D02*X5310Y54350D01*
X5460D01*
X5535Y54275D01*
Y53825D01*
X5460Y53750D02*X5535Y53825D01*
X5310Y53750D02*X5460D01*
X5235Y53900D02*X5535Y54200D01*
X5715Y54275D02*X5790Y54350D01*
X5940D01*
X6015Y54275D01*
Y53825D01*
X5940Y53750D02*X6015Y53825D01*
X5790Y53750D02*X5940D01*
X5715Y53825D02*X5790Y53750D01*
Y54050D02*X6015D01*
X6195Y54350D02*X6495D01*
X6195D02*Y54050D01*
X6270Y54125D01*
X6420D01*
X6495Y54050D01*
Y53825D01*
X6420Y53750D02*X6495Y53825D01*
X6270Y53750D02*X6420D01*
X6195Y53825D02*X6270Y53750D01*
X4500Y53424D02*X6675D01*
X135880Y9870D02*X136120Y9630D01*
X135880D02*X136120Y9870D01*
X136880D02*X137120Y9630D01*
X136880D02*X137120Y9870D01*
X54630Y43870D02*X54870Y43630D01*
X54630D02*X54870Y43870D01*
X55630D02*X55870Y43630D01*
X55630D02*X55870Y43870D01*
X56630D02*X56870Y43630D01*
X56630D02*X56870Y43870D01*
X57630D02*X57870Y43630D01*
X57630D02*X57870Y43870D01*
X58630D02*X58870Y43630D01*
X58630D02*X58870Y43870D01*
X59630D02*X59870Y43630D01*
X59630D02*X59870Y43870D01*
X1380Y55745D02*X1620Y55505D01*
X1380D02*X1620Y55745D01*
X13500Y55850D02*Y55775D01*
X13650Y55625D01*
X13800Y55775D01*
Y55850D02*Y55775D01*
X13650Y55625D02*Y55250D01*
X13980Y55550D02*X14205D01*
X13980Y55250D02*X14280D01*
X13980Y55850D02*Y55250D01*
Y55850D02*X14280D01*
X14760D02*X14835Y55775D01*
X14535Y55850D02*X14760D01*
X14460Y55775D02*X14535Y55850D01*
X14460Y55775D02*Y55625D01*
X14535Y55550D01*
X14760D01*
X14835Y55475D01*
Y55325D01*
X14760Y55250D02*X14835Y55325D01*
X14535Y55250D02*X14760D01*
X14460Y55325D02*X14535Y55250D01*
X13500Y54924D02*X15015D01*
X9800Y55325D02*X9875Y55250D01*
X9800Y55475D02*Y55325D01*
Y55475D02*X9875Y55550D01*
X10025D01*
X10100Y55475D01*
Y55325D01*
X10025Y55250D02*X10100Y55325D01*
X9875Y55250D02*X10025D01*
X9800Y55625D02*X9875Y55550D01*
X9800Y55775D02*Y55625D01*
Y55775D02*X9875Y55850D01*
X10025D01*
X10100Y55775D01*
Y55625D01*
X10025Y55550D02*X10100Y55625D01*
X9800Y54924D02*X10280D01*
X4500Y55325D02*X4575Y55250D01*
X4500Y55775D02*Y55325D01*
Y55775D02*X4575Y55850D01*
X4725D01*
X4800Y55775D01*
Y55325D01*
X4725Y55250D02*X4800Y55325D01*
X4575Y55250D02*X4725D01*
X4500Y55400D02*X4800Y55700D01*
X4980Y55250D02*X5055D01*
X5235Y55325D02*X5310Y55250D01*
X5235Y55775D02*Y55325D01*
Y55775D02*X5310Y55850D01*
X5460D01*
X5535Y55775D01*
Y55325D01*
X5460Y55250D02*X5535Y55325D01*
X5310Y55250D02*X5460D01*
X5235Y55400D02*X5535Y55700D01*
X5715Y55775D02*X5790Y55850D01*
X5940D01*
X6015Y55775D01*
Y55325D01*
X5940Y55250D02*X6015Y55325D01*
X5790Y55250D02*X5940D01*
X5715Y55325D02*X5790Y55250D01*
Y55550D02*X6015D01*
X6195Y55325D02*X6270Y55250D01*
X6195Y55775D02*Y55325D01*
Y55775D02*X6270Y55850D01*
X6420D01*
X6495Y55775D01*
Y55325D01*
X6420Y55250D02*X6495Y55325D01*
X6270Y55250D02*X6420D01*
X6195Y55400D02*X6495Y55700D01*
X4500Y54924D02*X6675D01*
X70000Y14410D02*Y14090D01*
X69840Y14250D02*X70160D01*
X70000Y15410D02*Y15090D01*
X69840Y15250D02*X70160D01*
X70000Y16410D02*Y16090D01*
X69840Y16250D02*X70160D01*
X70000Y17410D02*Y17090D01*
X69840Y17250D02*X70160D01*
X98000Y14410D02*Y14090D01*
X97840Y14250D02*X98160D01*
X98000Y15410D02*Y15090D01*
X97840Y15250D02*X98160D01*
X98000Y16410D02*Y16090D01*
X97840Y16250D02*X98160D01*
X98000Y17410D02*Y17090D01*
X97840Y17250D02*X98160D01*
X100000Y14410D02*Y14090D01*
X99840Y14250D02*X100160D01*
X100000Y15410D02*Y15090D01*
X99840Y15250D02*X100160D01*
X100000Y16410D02*Y16090D01*
X99840Y16250D02*X100160D01*
X100000Y17410D02*Y17090D01*
X99840Y17250D02*X100160D01*
X102000Y14410D02*Y14090D01*
X101840Y14250D02*X102160D01*
X102000Y15410D02*Y15090D01*
X101840Y15250D02*X102160D01*
X102000Y16410D02*Y16090D01*
X101840Y16250D02*X102160D01*
X102000Y17410D02*Y17090D01*
X101840Y17250D02*X102160D01*
X104000Y14410D02*Y14090D01*
X103840Y14250D02*X104160D01*
X104000Y15410D02*Y15090D01*
X103840Y15250D02*X104160D01*
X104000Y16410D02*Y16090D01*
X103840Y16250D02*X104160D01*
X104000Y17410D02*Y17090D01*
X103840Y17250D02*X104160D01*
X72000Y14410D02*Y14090D01*
X71840Y14250D02*X72160D01*
X72000Y15410D02*Y15090D01*
X71840Y15250D02*X72160D01*
X72000Y16410D02*Y16090D01*
X71840Y16250D02*X72160D01*
X72000Y17410D02*Y17090D01*
X71840Y17250D02*X72160D01*
X74000Y14410D02*Y14090D01*
X73840Y14250D02*X74160D01*
X74000Y15410D02*Y15090D01*
X73840Y15250D02*X74160D01*
X74000Y16410D02*Y16090D01*
X73840Y16250D02*X74160D01*
X74000Y17410D02*Y17090D01*
X73840Y17250D02*X74160D01*
X80000Y14410D02*Y14090D01*
X79840Y14250D02*X80160D01*
X80000Y15410D02*Y15090D01*
X79840Y15250D02*X80160D01*
X80000Y16410D02*Y16090D01*
X79840Y16250D02*X80160D01*
X80000Y17410D02*Y17090D01*
X79840Y17250D02*X80160D01*
X82000Y14410D02*Y14090D01*
X81840Y14250D02*X82160D01*
X82000Y15410D02*Y15090D01*
X81840Y15250D02*X82160D01*
X82000Y16410D02*Y16090D01*
X81840Y16250D02*X82160D01*
X82000Y17410D02*Y17090D01*
X81840Y17250D02*X82160D01*
X84000Y14410D02*Y14090D01*
X83840Y14250D02*X84160D01*
X84000Y15410D02*Y15090D01*
X83840Y15250D02*X84160D01*
X84000Y16410D02*Y16090D01*
X83840Y16250D02*X84160D01*
X84000Y17410D02*Y17090D01*
X83840Y17250D02*X84160D01*
X86000Y14410D02*Y14090D01*
X85840Y14250D02*X86160D01*
X86000Y15410D02*Y15090D01*
X85840Y15250D02*X86160D01*
X86000Y16410D02*Y16090D01*
X85840Y16250D02*X86160D01*
X86000Y17410D02*Y17090D01*
X85840Y17250D02*X86160D01*
X106000Y14410D02*Y14090D01*
X105840Y14250D02*X106160D01*
X106000Y15410D02*Y15090D01*
X105840Y15250D02*X106160D01*
X106000Y16410D02*Y16090D01*
X105840Y16250D02*X106160D01*
X106000Y17410D02*Y17090D01*
X105840Y17250D02*X106160D01*
X108000Y14410D02*Y14090D01*
X107840Y14250D02*X108160D01*
X108000Y15410D02*Y15090D01*
X107840Y15250D02*X108160D01*
X108000Y16410D02*Y16090D01*
X107840Y16250D02*X108160D01*
X108000Y17410D02*Y17090D01*
X107840Y17250D02*X108160D01*
X88000Y14410D02*Y14090D01*
X87840Y14250D02*X88160D01*
X88000Y15410D02*Y15090D01*
X87840Y15250D02*X88160D01*
X88000Y16410D02*Y16090D01*
X87840Y16250D02*X88160D01*
X88000Y17410D02*Y17090D01*
X87840Y17250D02*X88160D01*
X12000Y14410D02*Y14090D01*
X11840Y14250D02*X12160D01*
X12000Y15410D02*Y15090D01*
X11840Y15250D02*X12160D01*
X12000Y16410D02*Y16090D01*
X11840Y16250D02*X12160D01*
X12000Y17410D02*Y17090D01*
X11840Y17250D02*X12160D01*
X14000Y14410D02*Y14090D01*
X13840Y14250D02*X14160D01*
X14000Y15410D02*Y15090D01*
X13840Y15250D02*X14160D01*
X14000Y16410D02*Y16090D01*
X13840Y16250D02*X14160D01*
X14000Y17410D02*Y17090D01*
X13840Y17250D02*X14160D01*
X64000Y14410D02*Y14090D01*
X63840Y14250D02*X64160D01*
X64000Y15410D02*Y15090D01*
X63840Y15250D02*X64160D01*
X64000Y16410D02*Y16090D01*
X63840Y16250D02*X64160D01*
X64000Y17410D02*Y17090D01*
X63840Y17250D02*X64160D01*
X66000Y14410D02*Y14090D01*
X65840Y14250D02*X66160D01*
X66000Y15410D02*Y15090D01*
X65840Y15250D02*X66160D01*
X66000Y16410D02*Y16090D01*
X65840Y16250D02*X66160D01*
X66000Y17410D02*Y17090D01*
X65840Y17250D02*X66160D01*
X68000Y14410D02*Y14090D01*
X67840Y14250D02*X68160D01*
X68000Y15410D02*Y15090D01*
X67840Y15250D02*X68160D01*
X68000Y16410D02*Y16090D01*
X67840Y16250D02*X68160D01*
X68000Y17410D02*Y17090D01*
X67840Y17250D02*X68160D01*
X16000Y14410D02*Y14090D01*
X15840Y14250D02*X16160D01*
X16000Y15410D02*Y15090D01*
X15840Y15250D02*X16160D01*
X16000Y16410D02*Y16090D01*
X15840Y16250D02*X16160D01*
X16000Y17410D02*Y17090D01*
X15840Y17250D02*X16160D01*
X116000Y14410D02*Y14090D01*
X115840Y14250D02*X116160D01*
X116000Y15410D02*Y15090D01*
X115840Y15250D02*X116160D01*
X116000Y16410D02*Y16090D01*
X115840Y16250D02*X116160D01*
X116000Y17410D02*Y17090D01*
X115840Y17250D02*X116160D01*
X18000Y14410D02*Y14090D01*
X17840Y14250D02*X18160D01*
X18000Y15410D02*Y15090D01*
X17840Y15250D02*X18160D01*
X18000Y16410D02*Y16090D01*
X17840Y16250D02*X18160D01*
X18000Y17410D02*Y17090D01*
X17840Y17250D02*X18160D01*
X20000Y14410D02*Y14090D01*
X19840Y14250D02*X20160D01*
X20000Y15410D02*Y15090D01*
X19840Y15250D02*X20160D01*
X20000Y16410D02*Y16090D01*
X19840Y16250D02*X20160D01*
X20000Y17410D02*Y17090D01*
X19840Y17250D02*X20160D01*
X56000Y14410D02*Y14090D01*
X55840Y14250D02*X56160D01*
X56000Y15410D02*Y15090D01*
X55840Y15250D02*X56160D01*
X56000Y16410D02*Y16090D01*
X55840Y16250D02*X56160D01*
X56000Y17410D02*Y17090D01*
X55840Y17250D02*X56160D01*
X58000Y14410D02*Y14090D01*
X57840Y14250D02*X58160D01*
X58000Y15410D02*Y15090D01*
X57840Y15250D02*X58160D01*
X58000Y16410D02*Y16090D01*
X57840Y16250D02*X58160D01*
X58000Y17410D02*Y17090D01*
X57840Y17250D02*X58160D01*
X60000Y14410D02*Y14090D01*
X59840Y14250D02*X60160D01*
X60000Y15410D02*Y15090D01*
X59840Y15250D02*X60160D01*
X60000Y16410D02*Y16090D01*
X59840Y16250D02*X60160D01*
X60000Y17410D02*Y17090D01*
X59840Y17250D02*X60160D01*
X62000Y14410D02*Y14090D01*
X61840Y14250D02*X62160D01*
X62000Y15410D02*Y15090D01*
X61840Y15250D02*X62160D01*
X62000Y16410D02*Y16090D01*
X61840Y16250D02*X62160D01*
X62000Y17410D02*Y17090D01*
X61840Y17250D02*X62160D01*
X118000Y14410D02*Y14090D01*
X117840Y14250D02*X118160D01*
X118000Y15410D02*Y15090D01*
X117840Y15250D02*X118160D01*
X118000Y16410D02*Y16090D01*
X117840Y16250D02*X118160D01*
X118000Y17410D02*Y17090D01*
X117840Y17250D02*X118160D01*
X32000Y14410D02*Y14090D01*
X31840Y14250D02*X32160D01*
X32000Y15410D02*Y15090D01*
X31840Y15250D02*X32160D01*
X32000Y16410D02*Y16090D01*
X31840Y16250D02*X32160D01*
X32000Y17410D02*Y17090D01*
X31840Y17250D02*X32160D01*
X120000Y14410D02*Y14090D01*
X119840Y14250D02*X120160D01*
X120000Y15410D02*Y15090D01*
X119840Y15250D02*X120160D01*
X120000Y16410D02*Y16090D01*
X119840Y16250D02*X120160D01*
X120000Y17410D02*Y17090D01*
X119840Y17250D02*X120160D01*
X30000Y14410D02*Y14090D01*
X29840Y14250D02*X30160D01*
X30000Y15410D02*Y15090D01*
X29840Y15250D02*X30160D01*
X30000Y16410D02*Y16090D01*
X29840Y16250D02*X30160D01*
X30000Y17410D02*Y17090D01*
X29840Y17250D02*X30160D01*
X22000Y14410D02*Y14090D01*
X21840Y14250D02*X22160D01*
X22000Y15410D02*Y15090D01*
X21840Y15250D02*X22160D01*
X22000Y16410D02*Y16090D01*
X21840Y16250D02*X22160D01*
X22000Y17410D02*Y17090D01*
X21840Y17250D02*X22160D01*
X24000Y14410D02*Y14090D01*
X23840Y14250D02*X24160D01*
X24000Y15410D02*Y15090D01*
X23840Y15250D02*X24160D01*
X24000Y16410D02*Y16090D01*
X23840Y16250D02*X24160D01*
X24000Y17410D02*Y17090D01*
X23840Y17250D02*X24160D01*
X122000Y14410D02*Y14090D01*
X121840Y14250D02*X122160D01*
X122000Y15410D02*Y15090D01*
X121840Y15250D02*X122160D01*
X122000Y16410D02*Y16090D01*
X121840Y16250D02*X122160D01*
X122000Y17410D02*Y17090D01*
X121840Y17250D02*X122160D01*
X124000Y14410D02*Y14090D01*
X123840Y14250D02*X124160D01*
X124000Y15410D02*Y15090D01*
X123840Y15250D02*X124160D01*
X124000Y16410D02*Y16090D01*
X123840Y16250D02*X124160D01*
X124000Y17410D02*Y17090D01*
X123840Y17250D02*X124160D01*
X36000Y14410D02*Y14090D01*
X35840Y14250D02*X36160D01*
X36000Y15410D02*Y15090D01*
X35840Y15250D02*X36160D01*
X36000Y16410D02*Y16090D01*
X35840Y16250D02*X36160D01*
X36000Y17410D02*Y17090D01*
X35840Y17250D02*X36160D01*
X48000Y14410D02*Y14090D01*
X47840Y14250D02*X48160D01*
X48000Y15410D02*Y15090D01*
X47840Y15250D02*X48160D01*
X48000Y16410D02*Y16090D01*
X47840Y16250D02*X48160D01*
X48000Y17410D02*Y17090D01*
X47840Y17250D02*X48160D01*
X26000Y14410D02*Y14090D01*
X25840Y14250D02*X26160D01*
X26000Y15410D02*Y15090D01*
X25840Y15250D02*X26160D01*
X26000Y16410D02*Y16090D01*
X25840Y16250D02*X26160D01*
X26000Y17410D02*Y17090D01*
X25840Y17250D02*X26160D01*
X28000Y14410D02*Y14090D01*
X27840Y14250D02*X28160D01*
X28000Y15410D02*Y15090D01*
X27840Y15250D02*X28160D01*
X28000Y16410D02*Y16090D01*
X27840Y16250D02*X28160D01*
X28000Y17410D02*Y17090D01*
X27840Y17250D02*X28160D01*
X40000Y14410D02*Y14090D01*
X39840Y14250D02*X40160D01*
X40000Y15410D02*Y15090D01*
X39840Y15250D02*X40160D01*
X40000Y16410D02*Y16090D01*
X39840Y16250D02*X40160D01*
X40000Y17410D02*Y17090D01*
X39840Y17250D02*X40160D01*
X34000Y14410D02*Y14090D01*
X33840Y14250D02*X34160D01*
X34000Y15410D02*Y15090D01*
X33840Y15250D02*X34160D01*
X34000Y16410D02*Y16090D01*
X33840Y16250D02*X34160D01*
X34000Y17410D02*Y17090D01*
X33840Y17250D02*X34160D01*
X126000Y14410D02*Y14090D01*
X125840Y14250D02*X126160D01*
X126000Y15410D02*Y15090D01*
X125840Y15250D02*X126160D01*
X126000Y16410D02*Y16090D01*
X125840Y16250D02*X126160D01*
X126000Y17410D02*Y17090D01*
X125840Y17250D02*X126160D01*
X128000Y14410D02*Y14090D01*
X127840Y14250D02*X128160D01*
X128000Y15410D02*Y15090D01*
X127840Y15250D02*X128160D01*
X128000Y16410D02*Y16090D01*
X127840Y16250D02*X128160D01*
X128000Y17410D02*Y17090D01*
X127840Y17250D02*X128160D01*
X38000Y14410D02*Y14090D01*
X37840Y14250D02*X38160D01*
X38000Y15410D02*Y15090D01*
X37840Y15250D02*X38160D01*
X38000Y16410D02*Y16090D01*
X37840Y16250D02*X38160D01*
X38000Y17410D02*Y17090D01*
X37840Y17250D02*X38160D01*
X42000Y14410D02*Y14090D01*
X41840Y14250D02*X42160D01*
X42000Y15410D02*Y15090D01*
X41840Y15250D02*X42160D01*
X42000Y16410D02*Y16090D01*
X41840Y16250D02*X42160D01*
X42000Y17410D02*Y17090D01*
X41840Y17250D02*X42160D01*
X44000Y14410D02*Y14090D01*
X43840Y14250D02*X44160D01*
X44000Y15410D02*Y15090D01*
X43840Y15250D02*X44160D01*
X44000Y16410D02*Y16090D01*
X43840Y16250D02*X44160D01*
X44000Y17410D02*Y17090D01*
X43840Y17250D02*X44160D01*
X46000Y14410D02*Y14090D01*
X45840Y14250D02*X46160D01*
X46000Y15410D02*Y15090D01*
X45840Y15250D02*X46160D01*
X46000Y16410D02*Y16090D01*
X45840Y16250D02*X46160D01*
X46000Y17410D02*Y17090D01*
X45840Y17250D02*X46160D01*
X50000Y14410D02*Y14090D01*
X49840Y14250D02*X50160D01*
X50000Y15410D02*Y15090D01*
X49840Y15250D02*X50160D01*
X50000Y16410D02*Y16090D01*
X49840Y16250D02*X50160D01*
X50000Y17410D02*Y17090D01*
X49840Y17250D02*X50160D01*
X52000Y14410D02*Y14090D01*
X51840Y14250D02*X52160D01*
X52000Y15410D02*Y15090D01*
X51840Y15250D02*X52160D01*
X52000Y16410D02*Y16090D01*
X51840Y16250D02*X52160D01*
X52000Y17410D02*Y17090D01*
X51840Y17250D02*X52160D01*
X54000Y14410D02*Y14090D01*
X53840Y14250D02*X54160D01*
X54000Y15410D02*Y15090D01*
X53840Y15250D02*X54160D01*
X54000Y16410D02*Y16090D01*
X53840Y16250D02*X54160D01*
X54000Y17410D02*Y17090D01*
X53840Y17250D02*X54160D01*
X130000Y14410D02*Y14090D01*
X129840Y14250D02*X130160D01*
X130000Y15410D02*Y15090D01*
X129840Y15250D02*X130160D01*
X130000Y16410D02*Y16090D01*
X129840Y16250D02*X130160D01*
X130000Y17410D02*Y17090D01*
X129840Y17250D02*X130160D01*
X132000Y14410D02*Y14090D01*
X131840Y14250D02*X132160D01*
X132000Y15410D02*Y15090D01*
X131840Y15250D02*X132160D01*
X132000Y16410D02*Y16090D01*
X131840Y16250D02*X132160D01*
X132000Y17410D02*Y17090D01*
X131840Y17250D02*X132160D01*
X134000Y14410D02*Y14090D01*
X133840Y14250D02*X134160D01*
X134000Y15410D02*Y15090D01*
X133840Y15250D02*X134160D01*
X134000Y16410D02*Y16090D01*
X133840Y16250D02*X134160D01*
X134000Y17410D02*Y17090D01*
X133840Y17250D02*X134160D01*
X136000Y14410D02*Y14090D01*
X135840Y14250D02*X136160D01*
X136000Y15410D02*Y15090D01*
X135840Y15250D02*X136160D01*
X136000Y16410D02*Y16090D01*
X135840Y16250D02*X136160D01*
X136000Y17410D02*Y17090D01*
X135840Y17250D02*X136160D01*
X138000Y14410D02*Y14090D01*
X137840Y14250D02*X138160D01*
X138000Y15410D02*Y15090D01*
X137840Y15250D02*X138160D01*
X138000Y16410D02*Y16090D01*
X137840Y16250D02*X138160D01*
X138000Y17410D02*Y17090D01*
X137840Y17250D02*X138160D01*
X76000Y14410D02*Y14090D01*
X75840Y14250D02*X76160D01*
X76000Y15410D02*Y15090D01*
X75840Y15250D02*X76160D01*
X76000Y16410D02*Y16090D01*
X75840Y16250D02*X76160D01*
X76000Y17410D02*Y17090D01*
X75840Y17250D02*X76160D01*
X90000Y14410D02*Y14090D01*
X89840Y14250D02*X90160D01*
X90000Y15410D02*Y15090D01*
X89840Y15250D02*X90160D01*
X90000Y16410D02*Y16090D01*
X89840Y16250D02*X90160D01*
X90000Y17410D02*Y17090D01*
X89840Y17250D02*X90160D01*
X110000Y14410D02*Y14090D01*
X109840Y14250D02*X110160D01*
X110000Y15410D02*Y15090D01*
X109840Y15250D02*X110160D01*
X110000Y16410D02*Y16090D01*
X109840Y16250D02*X110160D01*
X110000Y17410D02*Y17090D01*
X109840Y17250D02*X110160D01*
X112000Y14410D02*Y14090D01*
X111840Y14250D02*X112160D01*
X112000Y15410D02*Y15090D01*
X111840Y15250D02*X112160D01*
X112000Y16410D02*Y16090D01*
X111840Y16250D02*X112160D01*
X112000Y17410D02*Y17090D01*
X111840Y17250D02*X112160D01*
X114000Y14410D02*Y14090D01*
X113840Y14250D02*X114160D01*
X114000Y15410D02*Y15090D01*
X113840Y15250D02*X114160D01*
X114000Y16410D02*Y16090D01*
X113840Y16250D02*X114160D01*
X114000Y17410D02*Y17090D01*
X113840Y17250D02*X114160D01*
X78000Y14410D02*Y14090D01*
X77840Y14250D02*X78160D01*
X78000Y15410D02*Y15090D01*
X77840Y15250D02*X78160D01*
X78000Y16410D02*Y16090D01*
X77840Y16250D02*X78160D01*
X78000Y17410D02*Y17090D01*
X77840Y17250D02*X78160D01*
X92000Y14410D02*Y14090D01*
X91840Y14250D02*X92160D01*
X92000Y15410D02*Y15090D01*
X91840Y15250D02*X92160D01*
X92000Y16410D02*Y16090D01*
X91840Y16250D02*X92160D01*
X92000Y17410D02*Y17090D01*
X91840Y17250D02*X92160D01*
X94000Y14410D02*Y14090D01*
X93840Y14250D02*X94160D01*
X94000Y15410D02*Y15090D01*
X93840Y15250D02*X94160D01*
X94000Y16410D02*Y16090D01*
X93840Y16250D02*X94160D01*
X94000Y17410D02*Y17090D01*
X93840Y17250D02*X94160D01*
X96000Y14410D02*Y14090D01*
X95840Y14250D02*X96160D01*
X96000Y15410D02*Y15090D01*
X95840Y15250D02*X96160D01*
X96000Y16410D02*Y16090D01*
X95840Y16250D02*X96160D01*
X96000Y17410D02*Y17090D01*
X95840Y17250D02*X96160D01*
X56000Y41160D02*Y40840D01*
X55840Y41000D02*X56160D01*
X56000Y40160D02*Y39840D01*
X55840Y40000D02*X56160D01*
X56000Y39160D02*Y38840D01*
X55840Y39000D02*X56160D01*
X56000Y38160D02*Y37840D01*
X55840Y38000D02*X56160D01*
X59000Y38160D02*Y37840D01*
X58840Y38000D02*X59160D01*
X59000Y39160D02*Y38840D01*
X58840Y39000D02*X59160D01*
X59000Y40160D02*Y39840D01*
X58840Y40000D02*X59160D01*
X59000Y41160D02*Y40840D01*
X58840Y41000D02*X59160D01*
X1500Y57285D02*Y56965D01*
X1340Y57125D02*X1660D01*
X13500Y57350D02*Y57275D01*
X13650Y57125D01*
X13800Y57275D01*
Y57350D02*Y57275D01*
X13650Y57125D02*Y56750D01*
X13980Y57050D02*X14205D01*
X13980Y56750D02*X14280D01*
X13980Y57350D02*Y56750D01*
Y57350D02*X14280D01*
X14760D02*X14835Y57275D01*
X14535Y57350D02*X14760D01*
X14460Y57275D02*X14535Y57350D01*
X14460Y57275D02*Y57125D01*
X14535Y57050D01*
X14760D01*
X14835Y56975D01*
Y56825D01*
X14760Y56750D02*X14835Y56825D01*
X14535Y56750D02*X14760D01*
X14460Y56825D02*X14535Y56750D01*
X13500Y56424D02*X15015D01*
X9800Y57275D02*X9875Y57350D01*
X10100D01*
X10175Y57275D01*
Y57125D01*
X9800Y56750D02*X10175Y57125D01*
X9800Y56750D02*X10175D01*
X10580Y57350D02*X10655Y57275D01*
X10430Y57350D02*X10580D01*
X10355Y57275D02*X10430Y57350D01*
X10355Y57275D02*Y56825D01*
X10430Y56750D01*
X10580Y57050D02*X10655Y56975D01*
X10355Y57050D02*X10580D01*
X10430Y56750D02*X10580D01*
X10655Y56825D01*
Y56975D02*Y56825D01*
X10835Y57050D02*X11135Y57350D01*
X10835Y57050D02*X11210D01*
X11135Y57350D02*Y56750D01*
X9800Y56424D02*X11390D01*
X4500Y56825D02*X4575Y56750D01*
X4500Y57275D02*Y56825D01*
Y57275D02*X4575Y57350D01*
X4725D01*
X4800Y57275D01*
Y56825D01*
X4725Y56750D02*X4800Y56825D01*
X4575Y56750D02*X4725D01*
X4500Y56900D02*X4800Y57200D01*
X4980Y56750D02*X5055D01*
X5235Y56825D02*X5310Y56750D01*
X5235Y57275D02*Y56825D01*
Y57275D02*X5310Y57350D01*
X5460D01*
X5535Y57275D01*
Y56825D01*
X5460Y56750D02*X5535Y56825D01*
X5310Y56750D02*X5460D01*
X5235Y56900D02*X5535Y57200D01*
X5715Y57275D02*X5790Y57350D01*
X6015D01*
X6090Y57275D01*
Y57125D01*
X5715Y56750D02*X6090Y57125D01*
X5715Y56750D02*X6090D01*
X6270Y56825D02*X6345Y56750D01*
X6270Y56975D02*Y56825D01*
Y56975D02*X6345Y57050D01*
X6495D01*
X6570Y56975D01*
Y56825D01*
X6495Y56750D02*X6570Y56825D01*
X6345Y56750D02*X6495D01*
X6270Y57125D02*X6345Y57050D01*
X6270Y57275D02*Y57125D01*
Y57275D02*X6345Y57350D01*
X6495D01*
X6570Y57275D01*
Y57125D01*
X6495Y57050D02*X6570Y57125D01*
X4500Y56424D02*X6750D01*
X10750Y38500D02*Y38340D01*
Y38500D02*X10888Y38580D01*
X10750Y38500D02*X10611Y38580D01*
X16750Y38500D02*Y38340D01*
Y38500D02*X16888Y38580D01*
X16750Y38500D02*X16611Y38580D01*
X16750Y41500D02*Y41340D01*
Y41500D02*X16888Y41580D01*
X16750Y41500D02*X16611Y41580D01*
X10750Y41500D02*Y41340D01*
Y41500D02*X10888Y41580D01*
X10750Y41500D02*X10611Y41580D01*
X12250Y20500D02*Y20340D01*
Y20500D02*X12388Y20580D01*
X12250Y20500D02*X12111Y20580D01*
X14250Y20500D02*Y20340D01*
Y20500D02*X14388Y20580D01*
X14250Y20500D02*X14111Y20580D01*
X16250Y20500D02*Y20340D01*
Y20500D02*X16388Y20580D01*
X16250Y20500D02*X16111Y20580D01*
X18250Y20500D02*Y20340D01*
Y20500D02*X18388Y20580D01*
X18250Y20500D02*X18111Y20580D01*
X20250Y20500D02*Y20340D01*
Y20500D02*X20388Y20580D01*
X20250Y20500D02*X20111Y20580D01*
X22250Y20500D02*Y20340D01*
Y20500D02*X22388Y20580D01*
X22250Y20500D02*X22111Y20580D01*
X24250Y20500D02*Y20340D01*
Y20500D02*X24388Y20580D01*
X24250Y20500D02*X24111Y20580D01*
X26250Y20500D02*Y20340D01*
Y20500D02*X26388Y20580D01*
X26250Y20500D02*X26111Y20580D01*
X18250Y25000D02*Y24840D01*
Y25000D02*X18388Y25080D01*
X18250Y25000D02*X18111Y25080D01*
X16500Y21500D02*Y21340D01*
Y21500D02*X16638Y21580D01*
X16500Y21500D02*X16361Y21580D01*
X13000Y25000D02*Y24840D01*
Y25000D02*X13138Y25080D01*
X13000Y25000D02*X12861Y25080D01*
X15500Y22500D02*Y22340D01*
Y22500D02*X15638Y22580D01*
X15500Y22500D02*X15361Y22580D01*
X15000Y23000D02*Y22840D01*
Y23000D02*X15138Y23080D01*
X15000Y23000D02*X14861Y23080D01*
X14500Y23500D02*Y23340D01*
Y23500D02*X14638Y23580D01*
X14500Y23500D02*X14361Y23580D01*
X14000Y24000D02*Y23840D01*
Y24000D02*X14138Y24080D01*
X14000Y24000D02*X13861Y24080D01*
X13500Y24500D02*Y24340D01*
Y24500D02*X13638Y24580D01*
X13500Y24500D02*X13361Y24580D01*
X13000Y21500D02*Y21340D01*
Y21500D02*X13138Y21580D01*
X13000Y21500D02*X12861Y21580D01*
X17000Y22500D02*Y22340D01*
Y22500D02*X17138Y22580D01*
X17000Y22500D02*X16861Y22580D01*
X17250Y23000D02*Y22840D01*
Y23000D02*X17388Y23080D01*
X17250Y23000D02*X17111Y23080D01*
X17500Y23500D02*Y23340D01*
Y23500D02*X17638Y23580D01*
X17500Y23500D02*X17361Y23580D01*
X17750Y24000D02*Y23840D01*
Y24000D02*X17888Y24080D01*
X17750Y24000D02*X17611Y24080D01*
X18000Y24500D02*Y24340D01*
Y24500D02*X18138Y24580D01*
X18000Y24500D02*X17861Y24580D01*
X28250Y20500D02*Y20340D01*
Y20500D02*X28388Y20580D01*
X28250Y20500D02*X28111Y20580D01*
X30250Y20500D02*Y20340D01*
Y20500D02*X30388Y20580D01*
X30250Y20500D02*X30111Y20580D01*
X32250Y20500D02*Y20340D01*
Y20500D02*X32388Y20580D01*
X32250Y20500D02*X32111Y20580D01*
X34250Y20500D02*Y20340D01*
Y20500D02*X34388Y20580D01*
X34250Y20500D02*X34111Y20580D01*
X36250Y20500D02*Y20340D01*
Y20500D02*X36388Y20580D01*
X36250Y20500D02*X36111Y20580D01*
X38250Y20500D02*Y20340D01*
Y20500D02*X38388Y20580D01*
X38250Y20500D02*X38111Y20580D01*
X40250Y20500D02*Y20340D01*
Y20500D02*X40388Y20580D01*
X40250Y20500D02*X40111Y20580D01*
X42250Y20500D02*Y20340D01*
Y20500D02*X42388Y20580D01*
X42250Y20500D02*X42111Y20580D01*
X34250Y25000D02*Y24840D01*
Y25000D02*X34388Y25080D01*
X34250Y25000D02*X34111Y25080D01*
X32500Y21500D02*Y21340D01*
Y21500D02*X32638Y21580D01*
X32500Y21500D02*X32361Y21580D01*
X29000Y25000D02*Y24840D01*
Y25000D02*X29138Y25080D01*
X29000Y25000D02*X28861Y25080D01*
X31500Y22500D02*Y22340D01*
Y22500D02*X31638Y22580D01*
X31500Y22500D02*X31361Y22580D01*
X31000Y23000D02*Y22840D01*
Y23000D02*X31138Y23080D01*
X31000Y23000D02*X30861Y23080D01*
X30500Y23500D02*Y23340D01*
Y23500D02*X30638Y23580D01*
X30500Y23500D02*X30361Y23580D01*
X30000Y24000D02*Y23840D01*
Y24000D02*X30138Y24080D01*
X30000Y24000D02*X29861Y24080D01*
X29500Y24500D02*Y24340D01*
Y24500D02*X29638Y24580D01*
X29500Y24500D02*X29361Y24580D01*
X29000Y21500D02*Y21340D01*
Y21500D02*X29138Y21580D01*
X29000Y21500D02*X28861Y21580D01*
X33000Y22500D02*Y22340D01*
Y22500D02*X33138Y22580D01*
X33000Y22500D02*X32861Y22580D01*
X33250Y23000D02*Y22840D01*
Y23000D02*X33388Y23080D01*
X33250Y23000D02*X33111Y23080D01*
X33500Y23500D02*Y23340D01*
Y23500D02*X33638Y23580D01*
X33500Y23500D02*X33361Y23580D01*
X33750Y24000D02*Y23840D01*
Y24000D02*X33888Y24080D01*
X33750Y24000D02*X33611Y24080D01*
X34000Y24500D02*Y24340D01*
Y24500D02*X34138Y24580D01*
X34000Y24500D02*X33861Y24580D01*
X44250Y20500D02*Y20340D01*
Y20500D02*X44388Y20580D01*
X44250Y20500D02*X44111Y20580D01*
X46250Y20500D02*Y20340D01*
Y20500D02*X46388Y20580D01*
X46250Y20500D02*X46111Y20580D01*
X48250Y20500D02*Y20340D01*
Y20500D02*X48388Y20580D01*
X48250Y20500D02*X48111Y20580D01*
X50250Y20500D02*Y20340D01*
Y20500D02*X50388Y20580D01*
X50250Y20500D02*X50111Y20580D01*
X52250Y20500D02*Y20340D01*
Y20500D02*X52388Y20580D01*
X52250Y20500D02*X52111Y20580D01*
X54250Y20500D02*Y20340D01*
Y20500D02*X54388Y20580D01*
X54250Y20500D02*X54111Y20580D01*
X56250Y20500D02*Y20340D01*
Y20500D02*X56388Y20580D01*
X56250Y20500D02*X56111Y20580D01*
X58250Y20500D02*Y20340D01*
Y20500D02*X58388Y20580D01*
X58250Y20500D02*X58111Y20580D01*
X50250Y25000D02*Y24840D01*
Y25000D02*X50388Y25080D01*
X50250Y25000D02*X50111Y25080D01*
X48500Y21500D02*Y21340D01*
Y21500D02*X48638Y21580D01*
X48500Y21500D02*X48361Y21580D01*
X45000Y25000D02*Y24840D01*
Y25000D02*X45138Y25080D01*
X45000Y25000D02*X44861Y25080D01*
X47500Y22500D02*Y22340D01*
Y22500D02*X47638Y22580D01*
X47500Y22500D02*X47361Y22580D01*
X47000Y23000D02*Y22840D01*
Y23000D02*X47138Y23080D01*
X47000Y23000D02*X46861Y23080D01*
X46500Y23500D02*Y23340D01*
Y23500D02*X46638Y23580D01*
X46500Y23500D02*X46361Y23580D01*
X46000Y24000D02*Y23840D01*
Y24000D02*X46138Y24080D01*
X46000Y24000D02*X45861Y24080D01*
X45500Y24500D02*Y24340D01*
Y24500D02*X45638Y24580D01*
X45500Y24500D02*X45361Y24580D01*
X45000Y21500D02*Y21340D01*
Y21500D02*X45138Y21580D01*
X45000Y21500D02*X44861Y21580D01*
X49000Y22500D02*Y22340D01*
Y22500D02*X49138Y22580D01*
X49000Y22500D02*X48861Y22580D01*
X49250Y23000D02*Y22840D01*
Y23000D02*X49388Y23080D01*
X49250Y23000D02*X49111Y23080D01*
X49500Y23500D02*Y23340D01*
Y23500D02*X49638Y23580D01*
X49500Y23500D02*X49361Y23580D01*
X49750Y24000D02*Y23840D01*
Y24000D02*X49888Y24080D01*
X49750Y24000D02*X49611Y24080D01*
X50000Y24500D02*Y24340D01*
Y24500D02*X50138Y24580D01*
X50000Y24500D02*X49861Y24580D01*
X60250Y20500D02*Y20340D01*
Y20500D02*X60388Y20580D01*
X60250Y20500D02*X60111Y20580D01*
X62250Y20500D02*Y20340D01*
Y20500D02*X62388Y20580D01*
X62250Y20500D02*X62111Y20580D01*
X64250Y20500D02*Y20340D01*
Y20500D02*X64388Y20580D01*
X64250Y20500D02*X64111Y20580D01*
X66250Y20500D02*Y20340D01*
Y20500D02*X66388Y20580D01*
X66250Y20500D02*X66111Y20580D01*
X68250Y20500D02*Y20340D01*
Y20500D02*X68388Y20580D01*
X68250Y20500D02*X68111Y20580D01*
X70250Y20500D02*Y20340D01*
Y20500D02*X70388Y20580D01*
X70250Y20500D02*X70111Y20580D01*
X72250Y20500D02*Y20340D01*
Y20500D02*X72388Y20580D01*
X72250Y20500D02*X72111Y20580D01*
X74250Y20500D02*Y20340D01*
Y20500D02*X74388Y20580D01*
X74250Y20500D02*X74111Y20580D01*
X66250Y25000D02*Y24840D01*
Y25000D02*X66388Y25080D01*
X66250Y25000D02*X66111Y25080D01*
X64500Y21500D02*Y21340D01*
Y21500D02*X64638Y21580D01*
X64500Y21500D02*X64361Y21580D01*
X61000Y25000D02*Y24840D01*
Y25000D02*X61138Y25080D01*
X61000Y25000D02*X60861Y25080D01*
X63500Y22500D02*Y22340D01*
Y22500D02*X63638Y22580D01*
X63500Y22500D02*X63361Y22580D01*
X63000Y23000D02*Y22840D01*
Y23000D02*X63138Y23080D01*
X63000Y23000D02*X62861Y23080D01*
X62500Y23500D02*Y23340D01*
Y23500D02*X62638Y23580D01*
X62500Y23500D02*X62361Y23580D01*
X62000Y24000D02*Y23840D01*
Y24000D02*X62138Y24080D01*
X62000Y24000D02*X61861Y24080D01*
X61500Y24500D02*Y24340D01*
Y24500D02*X61638Y24580D01*
X61500Y24500D02*X61361Y24580D01*
X61000Y21500D02*Y21340D01*
Y21500D02*X61138Y21580D01*
X61000Y21500D02*X60861Y21580D01*
X65000Y22500D02*Y22340D01*
Y22500D02*X65138Y22580D01*
X65000Y22500D02*X64861Y22580D01*
X65250Y23000D02*Y22840D01*
Y23000D02*X65388Y23080D01*
X65250Y23000D02*X65111Y23080D01*
X65500Y23500D02*Y23340D01*
Y23500D02*X65638Y23580D01*
X65500Y23500D02*X65361Y23580D01*
X65750Y24000D02*Y23840D01*
Y24000D02*X65888Y24080D01*
X65750Y24000D02*X65611Y24080D01*
X66000Y24500D02*Y24340D01*
Y24500D02*X66138Y24580D01*
X66000Y24500D02*X65861Y24580D01*
X76250Y20500D02*Y20340D01*
Y20500D02*X76388Y20580D01*
X76250Y20500D02*X76111Y20580D01*
X78250Y20500D02*Y20340D01*
Y20500D02*X78388Y20580D01*
X78250Y20500D02*X78111Y20580D01*
X80250Y20500D02*Y20340D01*
Y20500D02*X80388Y20580D01*
X80250Y20500D02*X80111Y20580D01*
X82250Y20500D02*Y20340D01*
Y20500D02*X82388Y20580D01*
X82250Y20500D02*X82111Y20580D01*
X84250Y20500D02*Y20340D01*
Y20500D02*X84388Y20580D01*
X84250Y20500D02*X84111Y20580D01*
X86250Y20500D02*Y20340D01*
Y20500D02*X86388Y20580D01*
X86250Y20500D02*X86111Y20580D01*
X88250Y20500D02*Y20340D01*
Y20500D02*X88388Y20580D01*
X88250Y20500D02*X88111Y20580D01*
X90250Y20500D02*Y20340D01*
Y20500D02*X90388Y20580D01*
X90250Y20500D02*X90111Y20580D01*
X82250Y25000D02*Y24840D01*
Y25000D02*X82388Y25080D01*
X82250Y25000D02*X82111Y25080D01*
X80500Y21500D02*Y21340D01*
Y21500D02*X80638Y21580D01*
X80500Y21500D02*X80361Y21580D01*
X77000Y25000D02*Y24840D01*
Y25000D02*X77138Y25080D01*
X77000Y25000D02*X76861Y25080D01*
X79500Y22500D02*Y22340D01*
Y22500D02*X79638Y22580D01*
X79500Y22500D02*X79361Y22580D01*
X79000Y23000D02*Y22840D01*
Y23000D02*X79138Y23080D01*
X79000Y23000D02*X78861Y23080D01*
X78500Y23500D02*Y23340D01*
Y23500D02*X78638Y23580D01*
X78500Y23500D02*X78361Y23580D01*
X78000Y24000D02*Y23840D01*
Y24000D02*X78138Y24080D01*
X78000Y24000D02*X77861Y24080D01*
X77500Y24500D02*Y24340D01*
Y24500D02*X77638Y24580D01*
X77500Y24500D02*X77361Y24580D01*
X77000Y21500D02*Y21340D01*
Y21500D02*X77138Y21580D01*
X77000Y21500D02*X76861Y21580D01*
X81000Y22500D02*Y22340D01*
Y22500D02*X81138Y22580D01*
X81000Y22500D02*X80861Y22580D01*
X81250Y23000D02*Y22840D01*
Y23000D02*X81388Y23080D01*
X81250Y23000D02*X81111Y23080D01*
X81500Y23500D02*Y23340D01*
Y23500D02*X81638Y23580D01*
X81500Y23500D02*X81361Y23580D01*
X81750Y24000D02*Y23840D01*
Y24000D02*X81888Y24080D01*
X81750Y24000D02*X81611Y24080D01*
X82000Y24500D02*Y24340D01*
Y24500D02*X82138Y24580D01*
X82000Y24500D02*X81861Y24580D01*
X92250Y20500D02*Y20340D01*
Y20500D02*X92388Y20580D01*
X92250Y20500D02*X92111Y20580D01*
X94250Y20500D02*Y20340D01*
Y20500D02*X94388Y20580D01*
X94250Y20500D02*X94111Y20580D01*
X96250Y20500D02*Y20340D01*
Y20500D02*X96388Y20580D01*
X96250Y20500D02*X96111Y20580D01*
X98250Y20500D02*Y20340D01*
Y20500D02*X98388Y20580D01*
X98250Y20500D02*X98111Y20580D01*
X100250Y20500D02*Y20340D01*
Y20500D02*X100388Y20580D01*
X100250Y20500D02*X100111Y20580D01*
X102250Y20500D02*Y20340D01*
Y20500D02*X102388Y20580D01*
X102250Y20500D02*X102111Y20580D01*
X104250Y20500D02*Y20340D01*
Y20500D02*X104388Y20580D01*
X104250Y20500D02*X104111Y20580D01*
X106250Y20500D02*Y20340D01*
Y20500D02*X106388Y20580D01*
X106250Y20500D02*X106111Y20580D01*
X98250Y25000D02*Y24840D01*
Y25000D02*X98388Y25080D01*
X98250Y25000D02*X98111Y25080D01*
X96500Y21500D02*Y21340D01*
Y21500D02*X96638Y21580D01*
X96500Y21500D02*X96361Y21580D01*
X93000Y25000D02*Y24840D01*
Y25000D02*X93138Y25080D01*
X93000Y25000D02*X92861Y25080D01*
X95500Y22500D02*Y22340D01*
Y22500D02*X95638Y22580D01*
X95500Y22500D02*X95361Y22580D01*
X95000Y23000D02*Y22840D01*
Y23000D02*X95138Y23080D01*
X95000Y23000D02*X94861Y23080D01*
X94500Y23500D02*Y23340D01*
Y23500D02*X94638Y23580D01*
X94500Y23500D02*X94361Y23580D01*
X94000Y24000D02*Y23840D01*
Y24000D02*X94138Y24080D01*
X94000Y24000D02*X93861Y24080D01*
X93500Y24500D02*Y24340D01*
Y24500D02*X93638Y24580D01*
X93500Y24500D02*X93361Y24580D01*
X93000Y21500D02*Y21340D01*
Y21500D02*X93138Y21580D01*
X93000Y21500D02*X92861Y21580D01*
X97000Y22500D02*Y22340D01*
Y22500D02*X97138Y22580D01*
X97000Y22500D02*X96861Y22580D01*
X97250Y23000D02*Y22840D01*
Y23000D02*X97388Y23080D01*
X97250Y23000D02*X97111Y23080D01*
X97500Y23500D02*Y23340D01*
Y23500D02*X97638Y23580D01*
X97500Y23500D02*X97361Y23580D01*
X97750Y24000D02*Y23840D01*
Y24000D02*X97888Y24080D01*
X97750Y24000D02*X97611Y24080D01*
X98000Y24500D02*Y24340D01*
Y24500D02*X98138Y24580D01*
X98000Y24500D02*X97861Y24580D01*
X108250Y20500D02*Y20340D01*
Y20500D02*X108388Y20580D01*
X108250Y20500D02*X108111Y20580D01*
X110250Y20500D02*Y20340D01*
Y20500D02*X110388Y20580D01*
X110250Y20500D02*X110111Y20580D01*
X112250Y20500D02*Y20340D01*
Y20500D02*X112388Y20580D01*
X112250Y20500D02*X112111Y20580D01*
X114250Y20500D02*Y20340D01*
Y20500D02*X114388Y20580D01*
X114250Y20500D02*X114111Y20580D01*
X116250Y20500D02*Y20340D01*
Y20500D02*X116388Y20580D01*
X116250Y20500D02*X116111Y20580D01*
X118250Y20500D02*Y20340D01*
Y20500D02*X118388Y20580D01*
X118250Y20500D02*X118111Y20580D01*
X120250Y20500D02*Y20340D01*
Y20500D02*X120388Y20580D01*
X120250Y20500D02*X120111Y20580D01*
X122250Y20500D02*Y20340D01*
Y20500D02*X122388Y20580D01*
X122250Y20500D02*X122111Y20580D01*
X114250Y25000D02*Y24840D01*
Y25000D02*X114388Y25080D01*
X114250Y25000D02*X114111Y25080D01*
X112500Y21500D02*Y21340D01*
Y21500D02*X112638Y21580D01*
X112500Y21500D02*X112361Y21580D01*
X109000Y25000D02*Y24840D01*
Y25000D02*X109138Y25080D01*
X109000Y25000D02*X108861Y25080D01*
X111500Y22500D02*Y22340D01*
Y22500D02*X111638Y22580D01*
X111500Y22500D02*X111361Y22580D01*
X111000Y23000D02*Y22840D01*
Y23000D02*X111138Y23080D01*
X111000Y23000D02*X110861Y23080D01*
X110500Y23500D02*Y23340D01*
Y23500D02*X110638Y23580D01*
X110500Y23500D02*X110361Y23580D01*
X110000Y24000D02*Y23840D01*
Y24000D02*X110138Y24080D01*
X110000Y24000D02*X109861Y24080D01*
X109500Y24500D02*Y24340D01*
Y24500D02*X109638Y24580D01*
X109500Y24500D02*X109361Y24580D01*
X109000Y21500D02*Y21340D01*
Y21500D02*X109138Y21580D01*
X109000Y21500D02*X108861Y21580D01*
X113000Y22500D02*Y22340D01*
Y22500D02*X113138Y22580D01*
X113000Y22500D02*X112861Y22580D01*
X113250Y23000D02*Y22840D01*
Y23000D02*X113388Y23080D01*
X113250Y23000D02*X113111Y23080D01*
X113500Y23500D02*Y23340D01*
Y23500D02*X113638Y23580D01*
X113500Y23500D02*X113361Y23580D01*
X113750Y24000D02*Y23840D01*
Y24000D02*X113888Y24080D01*
X113750Y24000D02*X113611Y24080D01*
X114000Y24500D02*Y24340D01*
Y24500D02*X114138Y24580D01*
X114000Y24500D02*X113861Y24580D01*
X124250Y20500D02*Y20340D01*
Y20500D02*X124388Y20580D01*
X124250Y20500D02*X124111Y20580D01*
X126250Y20500D02*Y20340D01*
Y20500D02*X126388Y20580D01*
X126250Y20500D02*X126111Y20580D01*
X128250Y20500D02*Y20340D01*
Y20500D02*X128388Y20580D01*
X128250Y20500D02*X128111Y20580D01*
X130250Y20500D02*Y20340D01*
Y20500D02*X130388Y20580D01*
X130250Y20500D02*X130111Y20580D01*
X132250Y20500D02*Y20340D01*
Y20500D02*X132388Y20580D01*
X132250Y20500D02*X132111Y20580D01*
X134250Y20500D02*Y20340D01*
Y20500D02*X134388Y20580D01*
X134250Y20500D02*X134111Y20580D01*
X136250Y20500D02*Y20340D01*
Y20500D02*X136388Y20580D01*
X136250Y20500D02*X136111Y20580D01*
X138250Y20500D02*Y20340D01*
Y20500D02*X138388Y20580D01*
X138250Y20500D02*X138111Y20580D01*
X130250Y25000D02*Y24840D01*
Y25000D02*X130388Y25080D01*
X130250Y25000D02*X130111Y25080D01*
X128500Y21500D02*Y21340D01*
Y21500D02*X128638Y21580D01*
X128500Y21500D02*X128361Y21580D01*
X125000Y25000D02*Y24840D01*
Y25000D02*X125138Y25080D01*
X125000Y25000D02*X124861Y25080D01*
X127500Y22500D02*Y22340D01*
Y22500D02*X127638Y22580D01*
X127500Y22500D02*X127361Y22580D01*
X127000Y23000D02*Y22840D01*
Y23000D02*X127138Y23080D01*
X127000Y23000D02*X126861Y23080D01*
X126500Y23500D02*Y23340D01*
Y23500D02*X126638Y23580D01*
X126500Y23500D02*X126361Y23580D01*
X126000Y24000D02*Y23840D01*
Y24000D02*X126138Y24080D01*
X126000Y24000D02*X125861Y24080D01*
X125500Y24500D02*Y24340D01*
Y24500D02*X125638Y24580D01*
X125500Y24500D02*X125361Y24580D01*
X125000Y21500D02*Y21340D01*
Y21500D02*X125138Y21580D01*
X125000Y21500D02*X124861Y21580D01*
X129000Y22500D02*Y22340D01*
Y22500D02*X129138Y22580D01*
X129000Y22500D02*X128861Y22580D01*
X129250Y23000D02*Y22840D01*
Y23000D02*X129388Y23080D01*
X129250Y23000D02*X129111Y23080D01*
X129500Y23500D02*Y23340D01*
Y23500D02*X129638Y23580D01*
X129500Y23500D02*X129361Y23580D01*
X129750Y24000D02*Y23840D01*
Y24000D02*X129888Y24080D01*
X129750Y24000D02*X129611Y24080D01*
X130000Y24500D02*Y24340D01*
Y24500D02*X130138Y24580D01*
X130000Y24500D02*X129861Y24580D01*
X16000Y22000D02*Y21840D01*
Y22000D02*X16138Y22080D01*
X16000Y22000D02*X15861Y22080D01*
X21000Y24500D02*Y24340D01*
Y24500D02*X21138Y24580D01*
X21000Y24500D02*X20861Y24580D01*
X21500Y24000D02*Y23840D01*
Y24000D02*X21638Y24080D01*
X21500Y24000D02*X21361Y24080D01*
X22000Y23500D02*Y23340D01*
Y23500D02*X22138Y23580D01*
X22000Y23500D02*X21861Y23580D01*
X22500Y23000D02*Y22840D01*
Y23000D02*X22638Y23080D01*
X22500Y23000D02*X22361Y23080D01*
X23000Y23250D02*Y23090D01*
Y23250D02*X23138Y23330D01*
X23000Y23250D02*X22861Y23330D01*
X23500Y23500D02*Y23340D01*
Y23500D02*X23638Y23580D01*
X23500Y23500D02*X23361Y23580D01*
X24000Y23750D02*Y23590D01*
Y23750D02*X24138Y23830D01*
X24000Y23750D02*X23861Y23830D01*
X20500Y25000D02*Y24840D01*
Y25000D02*X20638Y25080D01*
X20500Y25000D02*X20361Y25080D01*
X19250Y26750D02*Y26590D01*
Y26750D02*X19388Y26830D01*
X19250Y26750D02*X19111Y26830D01*
X37000Y24500D02*Y24340D01*
Y24500D02*X37138Y24580D01*
X37000Y24500D02*X36861Y24580D01*
X37500Y24000D02*Y23840D01*
Y24000D02*X37638Y24080D01*
X37500Y24000D02*X37361Y24080D01*
X38000Y23500D02*Y23340D01*
Y23500D02*X38138Y23580D01*
X38000Y23500D02*X37861Y23580D01*
X38500Y23000D02*Y22840D01*
Y23000D02*X38638Y23080D01*
X38500Y23000D02*X38361Y23080D01*
X39000Y23250D02*Y23090D01*
Y23250D02*X39138Y23330D01*
X39000Y23250D02*X38861Y23330D01*
X39500Y23500D02*Y23340D01*
Y23500D02*X39638Y23580D01*
X39500Y23500D02*X39361Y23580D01*
X40000Y23750D02*Y23590D01*
Y23750D02*X40138Y23830D01*
X40000Y23750D02*X39861Y23830D01*
X36500Y25000D02*Y24840D01*
Y25000D02*X36638Y25080D01*
X36500Y25000D02*X36361Y25080D01*
X35250Y26750D02*Y26590D01*
Y26750D02*X35388Y26830D01*
X35250Y26750D02*X35111Y26830D01*
X53000Y24500D02*Y24340D01*
Y24500D02*X53138Y24580D01*
X53000Y24500D02*X52861Y24580D01*
X53500Y24000D02*Y23840D01*
Y24000D02*X53638Y24080D01*
X53500Y24000D02*X53361Y24080D01*
X54000Y23500D02*Y23340D01*
Y23500D02*X54138Y23580D01*
X54000Y23500D02*X53861Y23580D01*
X54500Y23000D02*Y22840D01*
Y23000D02*X54638Y23080D01*
X54500Y23000D02*X54361Y23080D01*
X55000Y23250D02*Y23090D01*
Y23250D02*X55138Y23330D01*
X55000Y23250D02*X54861Y23330D01*
X55500Y23500D02*Y23340D01*
Y23500D02*X55638Y23580D01*
X55500Y23500D02*X55361Y23580D01*
X56000Y23750D02*Y23590D01*
Y23750D02*X56138Y23830D01*
X56000Y23750D02*X55861Y23830D01*
X52500Y25000D02*Y24840D01*
Y25000D02*X52638Y25080D01*
X52500Y25000D02*X52361Y25080D01*
X51250Y26750D02*Y26590D01*
Y26750D02*X51388Y26830D01*
X51250Y26750D02*X51111Y26830D01*
X69000Y24500D02*Y24340D01*
Y24500D02*X69138Y24580D01*
X69000Y24500D02*X68861Y24580D01*
X69500Y24000D02*Y23840D01*
Y24000D02*X69638Y24080D01*
X69500Y24000D02*X69361Y24080D01*
X70000Y23500D02*Y23340D01*
Y23500D02*X70138Y23580D01*
X70000Y23500D02*X69861Y23580D01*
X70500Y23000D02*Y22840D01*
Y23000D02*X70638Y23080D01*
X70500Y23000D02*X70361Y23080D01*
X71000Y23250D02*Y23090D01*
Y23250D02*X71138Y23330D01*
X71000Y23250D02*X70861Y23330D01*
X71500Y23500D02*Y23340D01*
Y23500D02*X71638Y23580D01*
X71500Y23500D02*X71361Y23580D01*
X72000Y23750D02*Y23590D01*
Y23750D02*X72138Y23830D01*
X72000Y23750D02*X71861Y23830D01*
X68500Y25000D02*Y24840D01*
Y25000D02*X68638Y25080D01*
X68500Y25000D02*X68361Y25080D01*
X67250Y26750D02*Y26590D01*
Y26750D02*X67388Y26830D01*
X67250Y26750D02*X67111Y26830D01*
X85000Y24500D02*Y24340D01*
Y24500D02*X85138Y24580D01*
X85000Y24500D02*X84861Y24580D01*
X85500Y24000D02*Y23840D01*
Y24000D02*X85638Y24080D01*
X85500Y24000D02*X85361Y24080D01*
X86000Y23500D02*Y23340D01*
Y23500D02*X86138Y23580D01*
X86000Y23500D02*X85861Y23580D01*
X86500Y23000D02*Y22840D01*
Y23000D02*X86638Y23080D01*
X86500Y23000D02*X86361Y23080D01*
X87000Y23250D02*Y23090D01*
Y23250D02*X87138Y23330D01*
X87000Y23250D02*X86861Y23330D01*
X87500Y23500D02*Y23340D01*
Y23500D02*X87638Y23580D01*
X87500Y23500D02*X87361Y23580D01*
X88000Y23750D02*Y23590D01*
Y23750D02*X88138Y23830D01*
X88000Y23750D02*X87861Y23830D01*
X84500Y25000D02*Y24840D01*
Y25000D02*X84638Y25080D01*
X84500Y25000D02*X84361Y25080D01*
X83250Y26750D02*Y26590D01*
Y26750D02*X83388Y26830D01*
X83250Y26750D02*X83111Y26830D01*
X101000Y24500D02*Y24340D01*
Y24500D02*X101138Y24580D01*
X101000Y24500D02*X100861Y24580D01*
X101500Y24000D02*Y23840D01*
Y24000D02*X101638Y24080D01*
X101500Y24000D02*X101361Y24080D01*
X102000Y23500D02*Y23340D01*
Y23500D02*X102138Y23580D01*
X102000Y23500D02*X101861Y23580D01*
X102500Y23000D02*Y22840D01*
Y23000D02*X102638Y23080D01*
X102500Y23000D02*X102361Y23080D01*
X103000Y23250D02*Y23090D01*
Y23250D02*X103138Y23330D01*
X103000Y23250D02*X102861Y23330D01*
X103500Y23500D02*Y23340D01*
Y23500D02*X103638Y23580D01*
X103500Y23500D02*X103361Y23580D01*
X104000Y23750D02*Y23590D01*
Y23750D02*X104138Y23830D01*
X104000Y23750D02*X103861Y23830D01*
X100500Y25000D02*Y24840D01*
Y25000D02*X100638Y25080D01*
X100500Y25000D02*X100361Y25080D01*
X99250Y26750D02*Y26590D01*
Y26750D02*X99388Y26830D01*
X99250Y26750D02*X99111Y26830D01*
X117000Y24500D02*Y24340D01*
Y24500D02*X117138Y24580D01*
X117000Y24500D02*X116861Y24580D01*
X117500Y24000D02*Y23840D01*
Y24000D02*X117638Y24080D01*
X117500Y24000D02*X117361Y24080D01*
X118000Y23500D02*Y23340D01*
Y23500D02*X118138Y23580D01*
X118000Y23500D02*X117861Y23580D01*
X118500Y23000D02*Y22840D01*
Y23000D02*X118638Y23080D01*
X118500Y23000D02*X118361Y23080D01*
X119000Y23250D02*Y23090D01*
Y23250D02*X119138Y23330D01*
X119000Y23250D02*X118861Y23330D01*
X119500Y23500D02*Y23340D01*
Y23500D02*X119638Y23580D01*
X119500Y23500D02*X119361Y23580D01*
X120000Y23750D02*Y23590D01*
Y23750D02*X120138Y23830D01*
X120000Y23750D02*X119861Y23830D01*
X116500Y25000D02*Y24840D01*
Y25000D02*X116638Y25080D01*
X116500Y25000D02*X116361Y25080D01*
X115250Y26750D02*Y26590D01*
Y26750D02*X115388Y26830D01*
X115250Y26750D02*X115111Y26830D01*
X133000Y24500D02*Y24340D01*
Y24500D02*X133138Y24580D01*
X133000Y24500D02*X132861Y24580D01*
X133500Y24000D02*Y23840D01*
Y24000D02*X133638Y24080D01*
X133500Y24000D02*X133361Y24080D01*
X134000Y23500D02*Y23340D01*
Y23500D02*X134138Y23580D01*
X134000Y23500D02*X133861Y23580D01*
X134500Y23000D02*Y22840D01*
Y23000D02*X134638Y23080D01*
X134500Y23000D02*X134361Y23080D01*
X135000Y23250D02*Y23090D01*
Y23250D02*X135138Y23330D01*
X135000Y23250D02*X134861Y23330D01*
X135500Y23500D02*Y23340D01*
Y23500D02*X135638Y23580D01*
X135500Y23500D02*X135361Y23580D01*
X136000Y23750D02*Y23590D01*
Y23750D02*X136138Y23830D01*
X136000Y23750D02*X135861Y23830D01*
X132500Y25000D02*Y24840D01*
Y25000D02*X132638Y25080D01*
X132500Y25000D02*X132361Y25080D01*
X131250Y26750D02*Y26590D01*
Y26750D02*X131388Y26830D01*
X131250Y26750D02*X131111Y26830D01*
X32000Y22000D02*Y21840D01*
Y22000D02*X32138Y22080D01*
X32000Y22000D02*X31861Y22080D01*
X48000Y22000D02*Y21840D01*
Y22000D02*X48138Y22080D01*
X48000Y22000D02*X47861Y22080D01*
X128000Y22000D02*Y21840D01*
Y22000D02*X128138Y22080D01*
X128000Y22000D02*X127861Y22080D01*
X112000Y22000D02*Y21840D01*
Y22000D02*X112138Y22080D01*
X112000Y22000D02*X111861Y22080D01*
X96000Y22000D02*Y21840D01*
Y22000D02*X96138Y22080D01*
X96000Y22000D02*X95861Y22080D01*
X80000Y22000D02*Y21840D01*
Y22000D02*X80138Y22080D01*
X80000Y22000D02*X79861Y22080D01*
X64000Y22000D02*Y21840D01*
Y22000D02*X64138Y22080D01*
X64000Y22000D02*X63861Y22080D01*
X12500Y24500D02*Y24340D01*
Y24500D02*X12638Y24580D01*
X12500Y24500D02*X12361Y24580D01*
X28500Y24500D02*Y24340D01*
Y24500D02*X28638Y24580D01*
X28500Y24500D02*X28361Y24580D01*
X13000Y31500D02*Y31340D01*
Y31500D02*X13138Y31580D01*
X13000Y31500D02*X12861Y31580D01*
X13500Y31750D02*Y31590D01*
Y31750D02*X13638Y31830D01*
X13500Y31750D02*X13361Y31830D01*
X14000Y30500D02*Y30340D01*
Y30500D02*X14138Y30580D01*
X14000Y30500D02*X13861Y30580D01*
X14500Y31000D02*Y30840D01*
Y31000D02*X14638Y31080D01*
X14500Y31000D02*X14361Y31080D01*
X15000Y30750D02*Y30590D01*
Y30750D02*X15138Y30830D01*
X15000Y30750D02*X14861Y30830D01*
X15500Y31000D02*Y30840D01*
Y31000D02*X15638Y31080D01*
X15500Y31000D02*X15361Y31080D01*
X16000Y31250D02*Y31090D01*
Y31250D02*X16138Y31330D01*
X16000Y31250D02*X15861Y31330D01*
X17000Y35000D02*Y34840D01*
Y35000D02*X17138Y35080D01*
X17000Y35000D02*X16861Y35080D01*
X11750Y29750D02*Y29590D01*
Y29750D02*X11888Y29830D01*
X11750Y29750D02*X11611Y29830D01*
X13000Y32750D02*Y32590D01*
Y32750D02*X13138Y32830D01*
X13000Y32750D02*X12861Y32830D01*
X27750Y30000D02*Y29840D01*
Y30000D02*X27888Y30080D01*
X27750Y30000D02*X27611Y30080D01*
X31000Y30750D02*Y30590D01*
Y30750D02*X31138Y30830D01*
X31000Y30750D02*X30861Y30830D01*
X31500Y31000D02*Y30840D01*
Y31000D02*X31638Y31080D01*
X31500Y31000D02*X31361Y31080D01*
X32000Y31250D02*Y31090D01*
Y31250D02*X32138Y31330D01*
X32000Y31250D02*X31861Y31330D01*
X29000Y31500D02*Y31340D01*
Y31500D02*X29138Y31580D01*
X29000Y31500D02*X28861Y31580D01*
X29500Y31750D02*Y31590D01*
Y31750D02*X29638Y31830D01*
X29500Y31750D02*X29361Y31830D01*
X30000Y30500D02*Y30340D01*
Y30500D02*X30138Y30580D01*
X30000Y30500D02*X29861Y30580D01*
X30500Y31000D02*Y30840D01*
Y31000D02*X30638Y31080D01*
X30500Y31000D02*X30361Y31080D01*
X29000Y32750D02*Y32590D01*
Y32750D02*X29138Y32830D01*
X29000Y32750D02*X28861Y32830D01*
X33000Y35000D02*Y34840D01*
Y35000D02*X33138Y35080D01*
X33000Y35000D02*X32861Y35080D01*
X14500Y35750D02*Y35590D01*
Y35750D02*X14638Y35830D01*
X14500Y35750D02*X14361Y35830D01*
X15500Y35750D02*Y35590D01*
Y35750D02*X15638Y35830D01*
X15500Y35750D02*X15361Y35830D01*
X18750Y36250D02*Y36090D01*
Y36250D02*X18888Y36330D01*
X18750Y36250D02*X18611Y36330D01*
X19750Y36250D02*Y36090D01*
Y36250D02*X19888Y36330D01*
X19750Y36250D02*X19611Y36330D01*
X45000Y34500D02*Y34340D01*
Y34500D02*X45138Y34580D01*
X45000Y34500D02*X44861Y34580D01*
X45500Y34000D02*Y33840D01*
Y34000D02*X45638Y34080D01*
X45500Y34000D02*X45361Y34080D01*
X46000Y33500D02*Y33340D01*
Y33500D02*X46138Y33580D01*
X46000Y33500D02*X45861Y33580D01*
X46500Y33000D02*Y32840D01*
Y33000D02*X46638Y33080D01*
X46500Y33000D02*X46361Y33080D01*
X47000Y32500D02*Y32340D01*
Y32500D02*X47138Y32580D01*
X47000Y32500D02*X46861Y32580D01*
X47500Y32000D02*Y31840D01*
Y32000D02*X47638Y32080D01*
X47500Y32000D02*X47361Y32080D01*
X48000Y31500D02*Y31340D01*
Y31500D02*X48138Y31580D01*
X48000Y31500D02*X47861Y31580D01*
X48500Y31000D02*Y30840D01*
Y31000D02*X48638Y31080D01*
X48500Y31000D02*X48361Y31080D01*
X49000Y30500D02*Y30340D01*
Y30500D02*X49138Y30580D01*
X49000Y30500D02*X48861Y30580D01*
X61000Y34500D02*Y34340D01*
Y34500D02*X61138Y34580D01*
X61000Y34500D02*X60861Y34580D01*
X61500Y34000D02*Y33840D01*
Y34000D02*X61638Y34080D01*
X61500Y34000D02*X61361Y34080D01*
X62000Y33500D02*Y33340D01*
Y33500D02*X62138Y33580D01*
X62000Y33500D02*X61861Y33580D01*
X62500Y33000D02*Y32840D01*
Y33000D02*X62638Y33080D01*
X62500Y33000D02*X62361Y33080D01*
X63000Y32500D02*Y32340D01*
Y32500D02*X63138Y32580D01*
X63000Y32500D02*X62861Y32580D01*
X63500Y32000D02*Y31840D01*
Y32000D02*X63638Y32080D01*
X63500Y32000D02*X63361Y32080D01*
X64000Y31500D02*Y31340D01*
Y31500D02*X64138Y31580D01*
X64000Y31500D02*X63861Y31580D01*
X64500Y31000D02*Y30840D01*
Y31000D02*X64638Y31080D01*
X64500Y31000D02*X64361Y31080D01*
X65000Y30500D02*Y30340D01*
Y30500D02*X65138Y30580D01*
X65000Y30500D02*X64861Y30580D01*
X77000Y34500D02*Y34340D01*
Y34500D02*X77138Y34580D01*
X77000Y34500D02*X76861Y34580D01*
X77500Y34000D02*Y33840D01*
Y34000D02*X77638Y34080D01*
X77500Y34000D02*X77361Y34080D01*
X78000Y33500D02*Y33340D01*
Y33500D02*X78138Y33580D01*
X78000Y33500D02*X77861Y33580D01*
X78500Y33000D02*Y32840D01*
Y33000D02*X78638Y33080D01*
X78500Y33000D02*X78361Y33080D01*
X79000Y32500D02*Y32340D01*
Y32500D02*X79138Y32580D01*
X79000Y32500D02*X78861Y32580D01*
X79500Y32000D02*Y31840D01*
Y32000D02*X79638Y32080D01*
X79500Y32000D02*X79361Y32080D01*
X80000Y31500D02*Y31340D01*
Y31500D02*X80138Y31580D01*
X80000Y31500D02*X79861Y31580D01*
X80500Y31000D02*Y30840D01*
Y31000D02*X80638Y31080D01*
X80500Y31000D02*X80361Y31080D01*
X81000Y30500D02*Y30340D01*
Y30500D02*X81138Y30580D01*
X81000Y30500D02*X80861Y30580D01*
X93000Y34500D02*Y34340D01*
Y34500D02*X93138Y34580D01*
X93000Y34500D02*X92861Y34580D01*
X93500Y34000D02*Y33840D01*
Y34000D02*X93638Y34080D01*
X93500Y34000D02*X93361Y34080D01*
X94000Y33500D02*Y33340D01*
Y33500D02*X94138Y33580D01*
X94000Y33500D02*X93861Y33580D01*
X94500Y33000D02*Y32840D01*
Y33000D02*X94638Y33080D01*
X94500Y33000D02*X94361Y33080D01*
X95000Y32500D02*Y32340D01*
Y32500D02*X95138Y32580D01*
X95000Y32500D02*X94861Y32580D01*
X95500Y32000D02*Y31840D01*
Y32000D02*X95638Y32080D01*
X95500Y32000D02*X95361Y32080D01*
X96000Y31500D02*Y31340D01*
Y31500D02*X96138Y31580D01*
X96000Y31500D02*X95861Y31580D01*
X96500Y31000D02*Y30840D01*
Y31000D02*X96638Y31080D01*
X96500Y31000D02*X96361Y31080D01*
X97000Y30500D02*Y30340D01*
Y30500D02*X97138Y30580D01*
X97000Y30500D02*X96861Y30580D01*
X109000Y34500D02*Y34340D01*
Y34500D02*X109138Y34580D01*
X109000Y34500D02*X108861Y34580D01*
X109500Y34000D02*Y33840D01*
Y34000D02*X109638Y34080D01*
X109500Y34000D02*X109361Y34080D01*
X110000Y33500D02*Y33340D01*
Y33500D02*X110138Y33580D01*
X110000Y33500D02*X109861Y33580D01*
X110500Y33000D02*Y32840D01*
Y33000D02*X110638Y33080D01*
X110500Y33000D02*X110361Y33080D01*
X111000Y32500D02*Y32340D01*
Y32500D02*X111138Y32580D01*
X111000Y32500D02*X110861Y32580D01*
X111500Y32000D02*Y31840D01*
Y32000D02*X111638Y32080D01*
X111500Y32000D02*X111361Y32080D01*
X112000Y31500D02*Y31340D01*
Y31500D02*X112138Y31580D01*
X112000Y31500D02*X111861Y31580D01*
X112500Y31000D02*Y30840D01*
Y31000D02*X112638Y31080D01*
X112500Y31000D02*X112361Y31080D01*
X113000Y30500D02*Y30340D01*
Y30500D02*X113138Y30580D01*
X113000Y30500D02*X112861Y30580D01*
X125000Y34500D02*Y34340D01*
Y34500D02*X125138Y34580D01*
X125000Y34500D02*X124861Y34580D01*
X125500Y34000D02*Y33840D01*
Y34000D02*X125638Y34080D01*
X125500Y34000D02*X125361Y34080D01*
X126000Y33500D02*Y33340D01*
Y33500D02*X126138Y33580D01*
X126000Y33500D02*X125861Y33580D01*
X126500Y33000D02*Y32840D01*
Y33000D02*X126638Y33080D01*
X126500Y33000D02*X126361Y33080D01*
X127000Y32500D02*Y32340D01*
Y32500D02*X127138Y32580D01*
X127000Y32500D02*X126861Y32580D01*
X127500Y32000D02*Y31840D01*
Y32000D02*X127638Y32080D01*
X127500Y32000D02*X127361Y32080D01*
X128000Y31500D02*Y31340D01*
Y31500D02*X128138Y31580D01*
X128000Y31500D02*X127861Y31580D01*
X128500Y31000D02*Y30840D01*
Y31000D02*X128638Y31080D01*
X128500Y31000D02*X128361Y31080D01*
X129000Y30500D02*Y30340D01*
Y30500D02*X129138Y30580D01*
X129000Y30500D02*X128861Y30580D01*
X123750Y35000D02*Y34840D01*
Y35000D02*X123888Y35080D01*
X123750Y35000D02*X123611Y35080D01*
X107750Y35500D02*Y35340D01*
Y35500D02*X107888Y35580D01*
X107750Y35500D02*X107611Y35580D01*
X59750Y37000D02*Y36840D01*
Y37000D02*X59888Y37080D01*
X59750Y37000D02*X59611Y37080D01*
X75750Y36500D02*Y36340D01*
Y36500D02*X75888Y36580D01*
X75750Y36500D02*X75611Y36580D01*
X91750Y36000D02*Y35840D01*
Y36000D02*X91888Y36080D01*
X91750Y36000D02*X91611Y36080D01*
X43000Y37000D02*Y36840D01*
Y37000D02*X43138Y37080D01*
X43000Y37000D02*X42861Y37080D01*
X43250Y35500D02*Y35340D01*
Y35500D02*X43388Y35580D01*
X43250Y35500D02*X43111Y35580D01*
X43000Y36000D02*Y35840D01*
Y36000D02*X43138Y36080D01*
X43000Y36000D02*X42861Y36080D01*
X43250Y36500D02*Y36340D01*
Y36500D02*X43388Y36580D01*
X43250Y36500D02*X43111Y36580D01*
X43000Y35000D02*Y34840D01*
Y35000D02*X43138Y35080D01*
X43000Y35000D02*X42861Y35080D01*
X129000Y31500D02*Y31340D01*
Y31500D02*X129138Y31580D01*
X129000Y31500D02*X128861Y31580D01*
X129000Y34500D02*Y34340D01*
Y34500D02*X129138Y34580D01*
X129000Y34500D02*X128861Y34580D01*
X129000Y33500D02*Y33340D01*
Y33500D02*X129138Y33580D01*
X129000Y33500D02*X128861Y33580D01*
X129000Y32500D02*Y32340D01*
Y32500D02*X129138Y32580D01*
X129000Y32500D02*X128861Y32580D01*
X125500Y35000D02*Y34840D01*
Y35000D02*X125638Y35080D01*
X125500Y35000D02*X125361Y35080D01*
X126500Y35500D02*Y35340D01*
Y35500D02*X126638Y35580D01*
X126500Y35500D02*X126361Y35580D01*
X127500Y36000D02*Y35840D01*
Y36000D02*X127638Y36080D01*
X127500Y36000D02*X127361Y36080D01*
X128500Y36500D02*Y36340D01*
Y36500D02*X128638Y36580D01*
X128500Y36500D02*X128361Y36580D01*
X61000Y41000D02*Y40840D01*
Y41000D02*X61138Y41080D01*
X61000Y41000D02*X60861Y41080D01*
X61500Y40000D02*Y39840D01*
Y40000D02*X61638Y40080D01*
X61500Y40000D02*X61361Y40080D01*
X62000Y39000D02*Y38840D01*
Y39000D02*X62138Y39080D01*
X62000Y39000D02*X61861Y39080D01*
X53500Y40000D02*Y39840D01*
Y40000D02*X53638Y40080D01*
X53500Y40000D02*X53361Y40080D01*
X53500Y39500D02*Y39340D01*
Y39500D02*X53638Y39580D01*
X53500Y39500D02*X53361Y39580D01*
X53500Y39000D02*Y38840D01*
Y39000D02*X53638Y39080D01*
X53500Y39000D02*X53361Y39080D01*
X53500Y33000D02*Y32840D01*
Y33000D02*X53638Y33080D01*
X53500Y33000D02*X53361Y33080D01*
X58750Y30500D02*Y30340D01*
Y30500D02*X58888Y30580D01*
X58750Y30500D02*X58611Y30580D01*
X58250Y32000D02*Y31840D01*
Y32000D02*X58388Y32080D01*
X58250Y32000D02*X58111Y32080D01*
X57500Y32500D02*Y32340D01*
Y32500D02*X57638Y32580D01*
X57500Y32500D02*X57361Y32580D01*
X50000Y31000D02*Y30840D01*
Y31000D02*X50138Y31080D01*
X50000Y31000D02*X49861Y31080D01*
X50000Y41500D02*Y41340D01*
Y41500D02*X50138Y41580D01*
X50000Y41500D02*X49861Y41580D01*
X51250Y43500D02*Y43340D01*
Y43500D02*X51388Y43580D01*
X51250Y43500D02*X51111Y43580D01*
X48000Y44000D02*Y43840D01*
Y44000D02*X48138Y44080D01*
X48000Y44000D02*X47861Y44080D01*
X42750Y39000D02*Y38840D01*
Y39000D02*X42888Y39080D01*
X42750Y39000D02*X42611Y39080D01*
X38750Y35500D02*Y35340D01*
Y35500D02*X38888Y35580D01*
X38750Y35500D02*X38611Y35580D01*
X28250Y27750D02*Y27590D01*
Y27750D02*X28388Y27830D01*
X28250Y27750D02*X28111Y27830D01*
X33000Y30500D02*Y30340D01*
Y30500D02*X33138Y30580D01*
X33000Y30500D02*X32861Y30580D01*
X51750Y43250D02*Y43090D01*
Y43250D02*X51888Y43330D01*
X51750Y43250D02*X51611Y43330D01*
X39250Y40000D02*Y39840D01*
Y40000D02*X39388Y40080D01*
X39250Y40000D02*X39111Y40080D01*
X38500Y40000D02*Y39840D01*
Y40000D02*X38638Y40080D01*
X38500Y40000D02*X38361Y40080D01*
X48000Y42000D02*Y41840D01*
Y42000D02*X48138Y42080D01*
X48000Y42000D02*X47861Y42080D01*
X47500Y42500D02*Y42340D01*
Y42500D02*X47638Y42580D01*
X47500Y42500D02*X47361Y42580D01*
X140250Y20250D02*Y20090D01*
Y20250D02*X140388Y20330D01*
X140250Y20250D02*X140111Y20330D01*
X141000Y19750D02*Y19590D01*
Y19750D02*X141138Y19830D01*
X141000Y19750D02*X140861Y19830D01*
X141750Y20250D02*Y20090D01*
Y20250D02*X141888Y20330D01*
X141750Y20250D02*X141611Y20330D01*
X142500Y20750D02*Y20590D01*
Y20750D02*X142638Y20830D01*
X142500Y20750D02*X142361Y20830D01*
X141500Y19750D02*Y19590D01*
Y19750D02*X141638Y19830D01*
X141500Y19750D02*X141361Y19830D01*
X142000Y19750D02*Y19590D01*
Y19750D02*X142138Y19830D01*
X142000Y19750D02*X141861Y19830D01*
X142250Y20250D02*Y20090D01*
Y20250D02*X142388Y20330D01*
X142250Y20250D02*X142111Y20330D01*
X142000Y20750D02*Y20590D01*
Y20750D02*X142138Y20830D01*
X142000Y20750D02*X141861Y20830D01*
X140500Y20750D02*Y20590D01*
Y20750D02*X140638Y20830D01*
X140500Y20750D02*X140361Y20830D01*
X141000Y20750D02*Y20590D01*
Y20750D02*X141138Y20830D01*
X141000Y20750D02*X140861Y20830D01*
X141500Y20750D02*Y20590D01*
Y20750D02*X141638Y20830D01*
X141500Y20750D02*X141361Y20830D01*
X140750Y20250D02*Y20090D01*
Y20250D02*X140888Y20330D01*
X140750Y20250D02*X140611Y20330D01*
X140500Y19750D02*Y19590D01*
Y19750D02*X140638Y19830D01*
X140500Y19750D02*X140361Y19830D01*
X142500Y19750D02*Y19590D01*
Y19750D02*X142638Y19830D01*
X142500Y19750D02*X142361Y19830D01*
X141250Y20250D02*Y20090D01*
Y20250D02*X141388Y20330D01*
X141250Y20250D02*X141111Y20330D01*
X140750Y19250D02*Y19090D01*
Y19250D02*X140888Y19330D01*
X140750Y19250D02*X140611Y19330D01*
X141250Y19250D02*Y19090D01*
Y19250D02*X141388Y19330D01*
X141250Y19250D02*X141111Y19330D01*
X141750Y19250D02*Y19090D01*
Y19250D02*X141888Y19330D01*
X141750Y19250D02*X141611Y19330D01*
X142250Y19250D02*Y19090D01*
Y19250D02*X142388Y19330D01*
X142250Y19250D02*X142111Y19330D01*
X142500Y18750D02*Y18590D01*
Y18750D02*X142638Y18830D01*
X142500Y18750D02*X142361Y18830D01*
X142000Y18750D02*Y18590D01*
Y18750D02*X142138Y18830D01*
X142000Y18750D02*X141861Y18830D01*
X141500Y18750D02*Y18590D01*
Y18750D02*X141638Y18830D01*
X141500Y18750D02*X141361Y18830D01*
X141000Y18750D02*Y18590D01*
Y18750D02*X141138Y18830D01*
X141000Y18750D02*X140861Y18830D01*
X140500Y18750D02*Y18590D01*
Y18750D02*X140638Y18830D01*
X140500Y18750D02*X140361Y18830D01*
X140250Y19250D02*Y19090D01*
Y19250D02*X140388Y19330D01*
X140250Y19250D02*X140111Y19330D01*
X18000Y11000D02*Y10840D01*
Y11000D02*X18138Y11080D01*
X18000Y11000D02*X17861Y11080D01*
X50000Y11000D02*Y10840D01*
Y11000D02*X50138Y11080D01*
X50000Y11000D02*X49861Y11080D01*
X82000Y11000D02*Y10840D01*
Y11000D02*X82138Y11080D01*
X82000Y11000D02*X81861Y11080D01*
X114000Y11000D02*Y10840D01*
Y11000D02*X114138Y11080D01*
X114000Y11000D02*X113861Y11080D01*
X1500Y58625D02*Y58465D01*
Y58625D02*X1638Y58705D01*
X1500Y58625D02*X1361Y58705D01*
X13500Y58850D02*Y58775D01*
X13650Y58625D01*
X13800Y58775D01*
Y58850D02*Y58775D01*
X13650Y58625D02*Y58250D01*
X13980Y58550D02*X14205D01*
X13980Y58250D02*X14280D01*
X13980Y58850D02*Y58250D01*
Y58850D02*X14280D01*
X14760D02*X14835Y58775D01*
X14535Y58850D02*X14760D01*
X14460Y58775D02*X14535Y58850D01*
X14460Y58775D02*Y58625D01*
X14535Y58550D01*
X14760D01*
X14835Y58475D01*
Y58325D01*
X14760Y58250D02*X14835Y58325D01*
X14535Y58250D02*X14760D01*
X14460Y58325D02*X14535Y58250D01*
X13500Y57924D02*X15015D01*
X9800Y58550D02*X10100Y58850D01*
X9800Y58550D02*X10175D01*
X10100Y58850D02*Y58250D01*
X10430D02*X10580D01*
X10505Y58850D02*Y58250D01*
X10355Y58700D02*X10505Y58850D01*
X10760Y58325D02*X10835Y58250D01*
X10760Y58775D02*Y58325D01*
Y58775D02*X10835Y58850D01*
X10985D01*
X11060Y58775D01*
Y58325D01*
X10985Y58250D02*X11060Y58325D01*
X10835Y58250D02*X10985D01*
X10760Y58400D02*X11060Y58700D01*
X9800Y57924D02*X11240D01*
X4500Y58325D02*X4575Y58250D01*
X4500Y58775D02*Y58325D01*
Y58775D02*X4575Y58850D01*
X4725D01*
X4800Y58775D01*
Y58325D01*
X4725Y58250D02*X4800Y58325D01*
X4575Y58250D02*X4725D01*
X4500Y58400D02*X4800Y58700D01*
X4980Y58250D02*X5055D01*
X5235Y58325D02*X5310Y58250D01*
X5235Y58775D02*Y58325D01*
Y58775D02*X5310Y58850D01*
X5460D01*
X5535Y58775D01*
Y58325D01*
X5460Y58250D02*X5535Y58325D01*
X5310Y58250D02*X5460D01*
X5235Y58400D02*X5535Y58700D01*
X5715Y58775D02*X5790Y58850D01*
X6015D01*
X6090Y58775D01*
Y58625D01*
X5715Y58250D02*X6090Y58625D01*
X5715Y58250D02*X6090D01*
X6270Y58325D02*X6345Y58250D01*
X6270Y58775D02*Y58325D01*
Y58775D02*X6345Y58850D01*
X6495D01*
X6570Y58775D01*
Y58325D01*
X6495Y58250D02*X6570Y58325D01*
X6345Y58250D02*X6495D01*
X6270Y58400D02*X6570Y58700D01*
X4500Y57924D02*X6750D01*
X300Y60350D02*X375Y60275D01*
X75Y60350D02*X300D01*
X0Y60275D02*X75Y60350D01*
X0Y60275D02*Y60125D01*
X75Y60050D01*
X300D01*
X375Y59975D01*
Y59825D01*
X300Y59750D02*X375Y59825D01*
X75Y59750D02*X300D01*
X0Y59825D02*X75Y59750D01*
X555Y60050D02*Y59825D01*
X630Y59750D01*
X855Y60050D02*Y59600D01*
X780Y59525D02*X855Y59600D01*
X630Y59525D02*X780D01*
X555Y59600D02*X630Y59525D01*
Y59750D02*X780D01*
X855Y59825D01*
X1110Y59975D02*Y59750D01*
Y59975D02*X1185Y60050D01*
X1260D01*
X1335Y59975D01*
Y59750D01*
Y59975D02*X1410Y60050D01*
X1485D01*
X1560Y59975D01*
Y59750D01*
X1035Y60050D02*X1110Y59975D01*
X1740Y60350D02*Y59750D01*
Y59825D02*X1815Y59750D01*
X1965D01*
X2040Y59825D01*
Y59975D02*Y59825D01*
X1965Y60050D02*X2040Y59975D01*
X1815Y60050D02*X1965D01*
X1740Y59975D02*X1815Y60050D01*
X2220Y59975D02*Y59825D01*
Y59975D02*X2295Y60050D01*
X2445D01*
X2520Y59975D01*
Y59825D01*
X2445Y59750D02*X2520Y59825D01*
X2295Y59750D02*X2445D01*
X2220Y59825D02*X2295Y59750D01*
X2700Y60350D02*Y59825D01*
X2775Y59750D01*
X4175Y60350D02*Y59750D01*
X4400Y60350D02*X4475Y60275D01*
Y59825D01*
X4400Y59750D02*X4475Y59825D01*
X4100Y59750D02*X4400D01*
X4100Y60350D02*X4400D01*
X4655Y60200D02*Y60125D01*
Y59975D02*Y59750D01*
X5030Y60050D02*X5105Y59975D01*
X4880Y60050D02*X5030D01*
X4805Y59975D02*X4880Y60050D01*
X4805Y59975D02*Y59825D01*
X4880Y59750D01*
X5105Y60050D02*Y59825D01*
X5180Y59750D01*
X4880D02*X5030D01*
X5105Y59825D01*
X5435Y59975D02*Y59750D01*
Y59975D02*X5510Y60050D01*
X5585D01*
X5660Y59975D01*
Y59750D01*
Y59975D02*X5735Y60050D01*
X5810D01*
X5885Y59975D01*
Y59750D01*
X5360Y60050D02*X5435Y59975D01*
X6065Y59750D02*X6140D01*
X6590Y59825D02*X6665Y59750D01*
X6590Y60275D02*X6665Y60350D01*
X6590Y60275D02*Y59825D01*
X6845Y60350D02*X6995D01*
X6920D02*Y59750D01*
X6845D02*X6995D01*
X7251Y59975D02*Y59750D01*
Y59975D02*X7326Y60050D01*
X7401D01*
X7476Y59975D01*
Y59750D01*
X7176Y60050D02*X7251Y59975D01*
X7731Y60050D02*X7956D01*
X7656Y59975D02*X7731Y60050D01*
X7656Y59975D02*Y59825D01*
X7731Y59750D01*
X7956D01*
X8136Y60350D02*Y59750D01*
Y59975D02*X8211Y60050D01*
X8361D01*
X8436Y59975D01*
Y59750D01*
X8616Y60350D02*X8691Y60275D01*
Y59825D01*
X8616Y59750D02*X8691Y59825D01*
X9575Y59750D02*X9800D01*
X9500Y59825D02*X9575Y59750D01*
X9500Y60275D02*Y59825D01*
Y60275D02*X9575Y60350D01*
X9800D01*
X9980Y59975D02*Y59825D01*
Y59975D02*X10055Y60050D01*
X10205D01*
X10280Y59975D01*
Y59825D01*
X10205Y59750D02*X10280Y59825D01*
X10055Y59750D02*X10205D01*
X9980Y59825D02*X10055Y59750D01*
X10460Y60050D02*Y59825D01*
X10535Y59750D01*
X10685D01*
X10760Y59825D01*
Y60050D02*Y59825D01*
X11015Y59975D02*Y59750D01*
Y59975D02*X11090Y60050D01*
X11165D01*
X11240Y59975D01*
Y59750D01*
X10940Y60050D02*X11015Y59975D01*
X11495Y60350D02*Y59825D01*
X11570Y59750D01*
X11420Y60125D02*X11570D01*
X13075Y60350D02*Y59750D01*
X13000Y60350D02*X13300D01*
X13375Y60275D01*
Y60125D01*
X13300Y60050D02*X13375Y60125D01*
X13075Y60050D02*X13300D01*
X13555Y60350D02*Y59825D01*
X13630Y59750D01*
X14005Y60050D02*X14080Y59975D01*
X13855Y60050D02*X14005D01*
X13780Y59975D02*X13855Y60050D01*
X13780Y59975D02*Y59825D01*
X13855Y59750D01*
X14080Y60050D02*Y59825D01*
X14155Y59750D01*
X13855D02*X14005D01*
X14080Y59825D01*
X14410Y60350D02*Y59825D01*
X14485Y59750D01*
X14335Y60125D02*X14485D01*
X14710Y59750D02*X14935D01*
X14635Y59825D02*X14710Y59750D01*
X14635Y59975D02*Y59825D01*
Y59975D02*X14710Y60050D01*
X14860D01*
X14935Y59975D01*
X14635Y59900D02*X14935D01*
Y59975D02*Y59900D01*
X15415Y60350D02*Y59750D01*
X15340D02*X15415Y59825D01*
X15190Y59750D02*X15340D01*
X15115Y59825D02*X15190Y59750D01*
X15115Y59975D02*Y59825D01*
Y59975D02*X15190Y60050D01*
X15340D01*
X15415Y59975D01*
X15745Y60050D02*Y59975D01*
Y59825D02*Y59750D01*
X15595Y60275D02*Y60200D01*
Y60275D02*X15670Y60350D01*
X15820D01*
X15895Y60275D01*
Y60200D01*
X15745Y60050D02*X15895Y60200D01*
X0Y61850D02*X300D01*
X150D02*Y61250D01*
X480Y61850D02*Y61250D01*
Y61475D02*X555Y61550D01*
X705D01*
X780Y61475D01*
Y61250D01*
X1035D02*X1260D01*
X960Y61325D02*X1035Y61250D01*
X960Y61475D02*Y61325D01*
Y61475D02*X1035Y61550D01*
X1185D01*
X1260Y61475D01*
X960Y61400D02*X1260D01*
Y61475D02*Y61400D01*
X1515Y61475D02*Y61250D01*
Y61475D02*X1590Y61550D01*
X1740D01*
X1440D02*X1515Y61475D01*
X1995Y61250D02*X2220D01*
X1920Y61325D02*X1995Y61250D01*
X1920Y61475D02*Y61325D01*
Y61475D02*X1995Y61550D01*
X2145D01*
X2220Y61475D01*
X1920Y61400D02*X2220D01*
Y61475D02*Y61400D01*
X2895Y61550D02*X2970Y61475D01*
X2745Y61550D02*X2895D01*
X2670Y61475D02*X2745Y61550D01*
X2670Y61475D02*Y61325D01*
X2745Y61250D01*
X2970Y61550D02*Y61325D01*
X3045Y61250D01*
X2745D02*X2895D01*
X2970Y61325D01*
X3300Y61475D02*Y61250D01*
Y61475D02*X3375Y61550D01*
X3525D01*
X3225D02*X3300Y61475D01*
X3781Y61250D02*X4006D01*
X3706Y61325D02*X3781Y61250D01*
X3706Y61475D02*Y61325D01*
Y61475D02*X3781Y61550D01*
X3931D01*
X4006Y61475D01*
X3706Y61400D02*X4006D01*
Y61475D02*Y61400D01*
X4681Y61850D02*X4756Y61775D01*
X4531Y61850D02*X4681D01*
X4456Y61775D02*X4531Y61850D01*
X4456Y61775D02*Y61325D01*
X4531Y61250D01*
X4681Y61550D02*X4756Y61475D01*
X4456Y61550D02*X4681D01*
X4531Y61250D02*X4681D01*
X4756Y61325D01*
Y61475D02*Y61325D01*
X5506Y61850D02*Y61250D01*
X5431D02*X5506Y61325D01*
X5281Y61250D02*X5431D01*
X5206Y61325D02*X5281Y61250D01*
X5206Y61475D02*Y61325D01*
Y61475D02*X5281Y61550D01*
X5431D01*
X5506Y61475D01*
X5686Y61700D02*Y61625D01*
Y61475D02*Y61250D01*
X5911Y61775D02*Y61250D01*
Y61775D02*X5986Y61850D01*
X6061D01*
X5836Y61550D02*X5986D01*
X6286Y61775D02*Y61250D01*
Y61775D02*X6361Y61850D01*
X6436D01*
X6211Y61550D02*X6361D01*
X6661Y61250D02*X6886D01*
X6586Y61325D02*X6661Y61250D01*
X6586Y61475D02*Y61325D01*
Y61475D02*X6661Y61550D01*
X6811D01*
X6886Y61475D01*
X6586Y61400D02*X6886D01*
Y61475D02*Y61400D01*
X7142Y61475D02*Y61250D01*
Y61475D02*X7217Y61550D01*
X7367D01*
X7067D02*X7142Y61475D01*
X7622Y61250D02*X7847D01*
X7547Y61325D02*X7622Y61250D01*
X7547Y61475D02*Y61325D01*
Y61475D02*X7622Y61550D01*
X7772D01*
X7847Y61475D01*
X7547Y61400D02*X7847D01*
Y61475D02*Y61400D01*
X8102Y61475D02*Y61250D01*
Y61475D02*X8177Y61550D01*
X8252D01*
X8327Y61475D01*
Y61250D01*
X8027Y61550D02*X8102Y61475D01*
X8582Y61850D02*Y61325D01*
X8657Y61250D01*
X8507Y61625D02*X8657D01*
X9377Y61850D02*Y61250D01*
X9302D02*X9377Y61325D01*
X9152Y61250D02*X9302D01*
X9077Y61325D02*X9152Y61250D01*
X9077Y61475D02*Y61325D01*
Y61475D02*X9152Y61550D01*
X9302D01*
X9377Y61475D01*
X9632D02*Y61250D01*
Y61475D02*X9707Y61550D01*
X9857D01*
X9557D02*X9632Y61475D01*
X10038Y61700D02*Y61625D01*
Y61475D02*Y61250D01*
X10188Y61850D02*Y61325D01*
X10263Y61250D01*
X10413Y61850D02*Y61325D01*
X10488Y61250D01*
X10983D02*X11208D01*
X11283Y61325D01*
X11208Y61400D02*X11283Y61325D01*
X10983Y61400D02*X11208D01*
X10908Y61475D02*X10983Y61400D01*
X10908Y61475D02*X10983Y61550D01*
X11208D01*
X11283Y61475D01*
X10908Y61325D02*X10983Y61250D01*
X11463Y61700D02*Y61625D01*
Y61475D02*Y61250D01*
X11613Y61550D02*X11913D01*
X11613Y61250D02*X11913Y61550D01*
X11613Y61250D02*X11913D01*
X12168D02*X12393D01*
X12093Y61325D02*X12168Y61250D01*
X12093Y61475D02*Y61325D01*
Y61475D02*X12168Y61550D01*
X12318D01*
X12393Y61475D01*
X12093Y61400D02*X12393D01*
Y61475D02*Y61400D01*
X12649Y61250D02*X12874D01*
X12949Y61325D01*
X12874Y61400D02*X12949Y61325D01*
X12649Y61400D02*X12874D01*
X12574Y61475D02*X12649Y61400D01*
X12574Y61475D02*X12649Y61550D01*
X12874D01*
X12949Y61475D01*
X12574Y61325D02*X12649Y61250D01*
X13399Y61550D02*Y61325D01*
X13474Y61250D01*
X13624D01*
X13699Y61325D01*
Y61550D02*Y61325D01*
X13954Y61250D02*X14179D01*
X14254Y61325D01*
X14179Y61400D02*X14254Y61325D01*
X13954Y61400D02*X14179D01*
X13879Y61475D02*X13954Y61400D01*
X13879Y61475D02*X13954Y61550D01*
X14179D01*
X14254Y61475D01*
X13879Y61325D02*X13954Y61250D01*
X14509D02*X14734D01*
X14434Y61325D02*X14509Y61250D01*
X14434Y61475D02*Y61325D01*
Y61475D02*X14509Y61550D01*
X14659D01*
X14734Y61475D01*
X14434Y61400D02*X14734D01*
Y61475D02*Y61400D01*
X15214Y61850D02*Y61250D01*
X15139D02*X15214Y61325D01*
X14989Y61250D02*X15139D01*
X14914Y61325D02*X14989Y61250D01*
X14914Y61475D02*Y61325D01*
Y61475D02*X14989Y61550D01*
X15139D01*
X15214Y61475D01*
X15664Y61700D02*Y61625D01*
Y61475D02*Y61250D01*
X15889Y61475D02*Y61250D01*
Y61475D02*X15964Y61550D01*
X16039D01*
X16114Y61475D01*
Y61250D01*
X15814Y61550D02*X15889Y61475D01*
X16640Y61850D02*Y61325D01*
X16715Y61250D01*
X16565Y61625D02*X16715D01*
X16865Y61850D02*Y61250D01*
Y61475D02*X16940Y61550D01*
X17090D01*
X17165Y61475D01*
Y61250D01*
X17345Y61700D02*Y61625D01*
Y61475D02*Y61250D01*
X17570D02*X17795D01*
X17870Y61325D01*
X17795Y61400D02*X17870Y61325D01*
X17570Y61400D02*X17795D01*
X17495Y61475D02*X17570Y61400D01*
X17495Y61475D02*X17570Y61550D01*
X17795D01*
X17870Y61475D01*
X17495Y61325D02*X17570Y61250D01*
X18320Y61850D02*Y61325D01*
X18395Y61250D01*
X18770Y61550D02*X18845Y61475D01*
X18620Y61550D02*X18770D01*
X18545Y61475D02*X18620Y61550D01*
X18545Y61475D02*Y61325D01*
X18620Y61250D01*
X18845Y61550D02*Y61325D01*
X18920Y61250D01*
X18620D02*X18770D01*
X18845Y61325D01*
X19101Y61550D02*Y61325D01*
X19176Y61250D01*
X19401Y61550D02*Y61100D01*
X19326Y61025D02*X19401Y61100D01*
X19176Y61025D02*X19326D01*
X19101Y61100D02*X19176Y61025D01*
Y61250D02*X19326D01*
X19401Y61325D01*
X19581Y61475D02*Y61325D01*
Y61475D02*X19656Y61550D01*
X19806D01*
X19881Y61475D01*
Y61325D01*
X19806Y61250D02*X19881Y61325D01*
X19656Y61250D02*X19806D01*
X19581Y61325D02*X19656Y61250D01*
X20061Y61550D02*Y61325D01*
X20136Y61250D01*
X20286D01*
X20361Y61325D01*
Y61550D02*Y61325D01*
X20616Y61850D02*Y61325D01*
X20691Y61250D01*
X20541Y61625D02*X20691D01*
X20841Y61100D02*X20991Y61250D01*
X21441D02*X21816Y61625D01*
Y61850D02*Y61625D01*
X21441Y61850D02*X21816D01*
X21996D02*X22296D01*
X21996D02*Y61550D01*
X22071Y61625D01*
X22221D01*
X22296Y61550D01*
Y61325D01*
X22221Y61250D02*X22296Y61325D01*
X22071Y61250D02*X22221D01*
X21996Y61325D02*X22071Y61250D01*
X22702Y61850D02*X22777Y61775D01*
X22552Y61850D02*X22702D01*
X22477Y61775D02*X22552Y61850D01*
X22477Y61775D02*Y61325D01*
X22552Y61250D01*
X22702Y61550D02*X22777Y61475D01*
X22477Y61550D02*X22702D01*
X22552Y61250D02*X22702D01*
X22777Y61325D01*
Y61475D02*Y61325D01*
X23227Y61850D02*Y61250D01*
Y61475D02*X23302Y61550D01*
X23452D01*
X23527Y61475D01*
Y61250D01*
X23707Y61475D02*Y61325D01*
Y61475D02*X23782Y61550D01*
X23932D01*
X24007Y61475D01*
Y61325D01*
X23932Y61250D02*X24007Y61325D01*
X23782Y61250D02*X23932D01*
X23707Y61325D02*X23782Y61250D01*
X24187Y61850D02*Y61325D01*
X24262Y61250D01*
X24487D02*X24712D01*
X24412Y61325D02*X24487Y61250D01*
X24412Y61475D02*Y61325D01*
Y61475D02*X24487Y61550D01*
X24637D01*
X24712Y61475D01*
X24412Y61400D02*X24712D01*
Y61475D02*Y61400D01*
X24967Y61250D02*X25192D01*
X25267Y61325D01*
X25192Y61400D02*X25267Y61325D01*
X24967Y61400D02*X25192D01*
X24892Y61475D02*X24967Y61400D01*
X24892Y61475D02*X24967Y61550D01*
X25192D01*
X25267Y61475D01*
X24892Y61325D02*X24967Y61250D01*
X25792Y61850D02*Y61325D01*
X25867Y61250D01*
X25717Y61625D02*X25867D01*
X26018Y61475D02*Y61325D01*
Y61475D02*X26093Y61550D01*
X26243D01*
X26318Y61475D01*
Y61325D01*
X26243Y61250D02*X26318Y61325D01*
X26093Y61250D02*X26243D01*
X26018Y61325D02*X26093Y61250D01*
X26573Y61850D02*Y61325D01*
X26648Y61250D01*
X26498Y61625D02*X26648D01*
X27023Y61550D02*X27098Y61475D01*
X26873Y61550D02*X27023D01*
X26798Y61475D02*X26873Y61550D01*
X26798Y61475D02*Y61325D01*
X26873Y61250D01*
X27098Y61550D02*Y61325D01*
X27173Y61250D01*
X26873D02*X27023D01*
X27098Y61325D01*
X27353Y61850D02*Y61325D01*
X27428Y61250D01*
X0Y50000D02*X150000D01*
X0D02*Y0D01*
X150000Y50000D02*Y0D01*
X0D02*X150000D01*
X20000Y51350D02*Y50750D01*
Y51350D02*X20225Y51125D01*
X20450Y51350D01*
Y50750D01*
X20855Y51050D02*X20930Y50975D01*
X20705Y51050D02*X20855D01*
X20630Y50975D02*X20705Y51050D01*
X20630Y50975D02*Y50825D01*
X20705Y50750D01*
X20930Y51050D02*Y50825D01*
X21005Y50750D01*
X20705D02*X20855D01*
X20930Y50825D01*
X21185Y51050D02*X21485Y50750D01*
X21185D02*X21485Y51050D01*
X21665Y51200D02*Y51125D01*
Y50975D02*Y50750D01*
X21890Y50975D02*Y50750D01*
Y50975D02*X21965Y51050D01*
X22040D01*
X22115Y50975D01*
Y50750D01*
Y50975D02*X22190Y51050D01*
X22265D01*
X22340Y50975D01*
Y50750D01*
X21815Y51050D02*X21890Y50975D01*
X22520Y51050D02*Y50825D01*
X22595Y50750D01*
X22745D01*
X22820Y50825D01*
Y51050D02*Y50825D01*
X23075Y50975D02*Y50750D01*
Y50975D02*X23150Y51050D01*
X23225D01*
X23300Y50975D01*
Y50750D01*
Y50975D02*X23375Y51050D01*
X23450D01*
X23525Y50975D01*
Y50750D01*
X23000Y51050D02*X23075Y50975D01*
X24051Y51350D02*Y50750D01*
X24276Y51350D02*X24351Y51275D01*
Y50825D01*
X24276Y50750D02*X24351Y50825D01*
X23976Y50750D02*X24276D01*
X23976Y51350D02*X24276D01*
X24531Y51200D02*Y51125D01*
Y50975D02*Y50750D01*
X24756Y50975D02*Y50750D01*
Y50975D02*X24831Y51050D01*
X24906D01*
X24981Y50975D01*
Y50750D01*
Y50975D02*X25056Y51050D01*
X25131D01*
X25206Y50975D01*
Y50750D01*
X24681Y51050D02*X24756Y50975D01*
X25461Y50750D02*X25686D01*
X25386Y50825D02*X25461Y50750D01*
X25386Y50975D02*Y50825D01*
Y50975D02*X25461Y51050D01*
X25611D01*
X25686Y50975D01*
X25386Y50900D02*X25686D01*
Y50975D02*Y50900D01*
X25941Y50975D02*Y50750D01*
Y50975D02*X26016Y51050D01*
X26091D01*
X26166Y50975D01*
Y50750D01*
X25866Y51050D02*X25941Y50975D01*
X26421Y50750D02*X26646D01*
X26721Y50825D01*
X26646Y50900D02*X26721Y50825D01*
X26421Y50900D02*X26646D01*
X26346Y50975D02*X26421Y50900D01*
X26346Y50975D02*X26421Y51050D01*
X26646D01*
X26721Y50975D01*
X26346Y50825D02*X26421Y50750D01*
X26901Y51200D02*Y51125D01*
Y50975D02*Y50750D01*
X27052Y50975D02*Y50825D01*
Y50975D02*X27127Y51050D01*
X27277D01*
X27352Y50975D01*
Y50825D01*
X27277Y50750D02*X27352Y50825D01*
X27127Y50750D02*X27277D01*
X27052Y50825D02*X27127Y50750D01*
X27607Y50975D02*Y50750D01*
Y50975D02*X27682Y51050D01*
X27757D01*
X27832Y50975D01*
Y50750D01*
X27532Y51050D02*X27607Y50975D01*
X28087Y50750D02*X28312D01*
X28387Y50825D01*
X28312Y50900D02*X28387Y50825D01*
X28087Y50900D02*X28312D01*
X28012Y50975D02*X28087Y50900D01*
X28012Y50975D02*X28087Y51050D01*
X28312D01*
X28387Y50975D01*
X28012Y50825D02*X28087Y50750D01*
X28567Y51125D02*X28642D01*
X28567Y50975D02*X28642D01*
X29167Y50750D02*X29317D01*
X29242Y51350D02*Y50750D01*
X29092Y51200D02*X29242Y51350D01*
X29497D02*X29797D01*
X29497D02*Y51050D01*
X29572Y51125D01*
X29722D01*
X29797Y51050D01*
Y50825D01*
X29722Y50750D02*X29797Y50825D01*
X29572Y50750D02*X29722D01*
X29497Y50825D02*X29572Y50750D01*
X29978Y50825D02*X30053Y50750D01*
X29978Y51275D02*Y50825D01*
Y51275D02*X30053Y51350D01*
X30203D01*
X30278Y51275D01*
Y50825D01*
X30203Y50750D02*X30278Y50825D01*
X30053Y50750D02*X30203D01*
X29978Y50900D02*X30278Y51200D01*
X30458Y50825D02*X30533Y50750D01*
X30458Y51275D02*Y50825D01*
Y51275D02*X30533Y51350D01*
X30683D01*
X30758Y51275D01*
Y50825D01*
X30683Y50750D02*X30758Y50825D01*
X30533Y50750D02*X30683D01*
X30458Y50900D02*X30758Y51200D01*
X30938Y50825D02*X31013Y50750D01*
X30938Y51275D02*Y50825D01*
Y51275D02*X31013Y51350D01*
X31163D01*
X31238Y51275D01*
Y50825D01*
X31163Y50750D02*X31238Y50825D01*
X31013Y50750D02*X31163D01*
X30938Y50900D02*X31238Y51200D01*
X31763Y50975D02*Y50750D01*
Y50975D02*X31838Y51050D01*
X31913D01*
X31988Y50975D01*
Y50750D01*
Y50975D02*X32063Y51050D01*
X32138D01*
X32213Y50975D01*
Y50750D01*
X31688Y51050D02*X31763Y50975D01*
X32393Y51200D02*Y51125D01*
Y50975D02*Y50750D01*
X32543Y51350D02*Y50825D01*
X32618Y50750D01*
X32843D02*X33068D01*
X33143Y50825D01*
X33068Y50900D02*X33143Y50825D01*
X32843Y50900D02*X33068D01*
X32768Y50975D02*X32843Y50900D01*
X32768Y50975D02*X32843Y51050D01*
X33068D01*
X33143Y50975D01*
X32768Y50825D02*X32843Y50750D01*
X33594Y51050D02*Y50825D01*
X33669Y50750D01*
X33744D01*
X33819Y50825D01*
Y51050D02*Y50825D01*
X33894Y50750D01*
X33969D01*
X34044Y50825D01*
Y51050D02*Y50825D01*
X34224Y51200D02*Y51125D01*
Y50975D02*Y50750D01*
X34674Y51350D02*Y50750D01*
X34599D02*X34674Y50825D01*
X34449Y50750D02*X34599D01*
X34374Y50825D02*X34449Y50750D01*
X34374Y50975D02*Y50825D01*
Y50975D02*X34449Y51050D01*
X34599D01*
X34674Y50975D01*
X34929Y50750D02*X35154D01*
X34854Y50825D02*X34929Y50750D01*
X34854Y50975D02*Y50825D01*
Y50975D02*X34929Y51050D01*
X35079D01*
X35154Y50975D01*
X34854Y50900D02*X35154D01*
Y50975D02*Y50900D01*
X35334Y50600D02*X35484Y50750D01*
X35934Y51350D02*X36234D01*
X35934D02*Y51050D01*
X36009Y51125D01*
X36159D01*
X36234Y51050D01*
Y50825D01*
X36159Y50750D02*X36234Y50825D01*
X36009Y50750D02*X36159D01*
X35934Y50825D02*X36009Y50750D01*
X36414Y50825D02*X36489Y50750D01*
X36414Y51275D02*Y50825D01*
Y51275D02*X36489Y51350D01*
X36639D01*
X36714Y51275D01*
Y50825D01*
X36639Y50750D02*X36714Y50825D01*
X36489Y50750D02*X36639D01*
X36414Y50900D02*X36714Y51200D01*
X36895Y50825D02*X36970Y50750D01*
X36895Y51275D02*Y50825D01*
Y51275D02*X36970Y51350D01*
X37120D01*
X37195Y51275D01*
Y50825D01*
X37120Y50750D02*X37195Y50825D01*
X36970Y50750D02*X37120D01*
X36895Y50900D02*X37195Y51200D01*
X37375Y50825D02*X37450Y50750D01*
X37375Y51275D02*Y50825D01*
Y51275D02*X37450Y51350D01*
X37600D01*
X37675Y51275D01*
Y50825D01*
X37600Y50750D02*X37675Y50825D01*
X37450Y50750D02*X37600D01*
X37375Y50900D02*X37675Y51200D01*
X38200Y50975D02*Y50750D01*
Y50975D02*X38275Y51050D01*
X38350D01*
X38425Y50975D01*
Y50750D01*
Y50975D02*X38500Y51050D01*
X38575D01*
X38650Y50975D01*
Y50750D01*
X38125Y51050D02*X38200Y50975D01*
X38830Y51200D02*Y51125D01*
Y50975D02*Y50750D01*
X38980Y51350D02*Y50825D01*
X39055Y50750D01*
X39280D02*X39505D01*
X39580Y50825D01*
X39505Y50900D02*X39580Y50825D01*
X39280Y50900D02*X39505D01*
X39205Y50975D02*X39280Y50900D01*
X39205Y50975D02*X39280Y51050D01*
X39505D01*
X39580Y50975D01*
X39205Y50825D02*X39280Y50750D01*
X40031Y51350D02*Y50750D01*
Y50975D02*X40106Y51050D01*
X40256D01*
X40331Y50975D01*
Y50750D01*
X40511Y51200D02*Y51125D01*
Y50975D02*Y50750D01*
X40886Y51050D02*X40961Y50975D01*
X40736Y51050D02*X40886D01*
X40661Y50975D02*X40736Y51050D01*
X40661Y50975D02*Y50825D01*
X40736Y50750D01*
X40886D01*
X40961Y50825D01*
X40661Y50600D02*X40736Y50525D01*
X40886D01*
X40961Y50600D01*
Y51050D02*Y50600D01*
X41141Y51350D02*Y50750D01*
Y50975D02*X41216Y51050D01*
X41366D01*
X41441Y50975D01*
Y50750D01*
X59020Y-950D02*X59320D01*
X59395Y-875D01*
Y-725D02*Y-875D01*
X59320Y-650D02*X59395Y-725D01*
X59095Y-650D02*X59320D01*
X59095Y-350D02*Y-950D01*
X59020Y-350D02*X59320D01*
X59395Y-425D01*
Y-575D01*
X59320Y-650D02*X59395Y-575D01*
X59575Y-725D02*Y-875D01*
Y-725D02*X59650Y-650D01*
X59800D01*
X59875Y-725D01*
Y-875D01*
X59800Y-950D02*X59875Y-875D01*
X59650Y-950D02*X59800D01*
X59575Y-875D02*X59650Y-950D01*
X60280Y-650D02*X60355Y-725D01*
X60130Y-650D02*X60280D01*
X60055Y-725D02*X60130Y-650D01*
X60055Y-725D02*Y-875D01*
X60130Y-950D01*
X60355Y-650D02*Y-875D01*
X60430Y-950D01*
X60130D02*X60280D01*
X60355Y-875D01*
X60685Y-725D02*Y-950D01*
Y-725D02*X60760Y-650D01*
X60910D01*
X60610D02*X60685Y-725D01*
X61390Y-350D02*Y-950D01*
X61315D02*X61390Y-875D01*
X61165Y-950D02*X61315D01*
X61090Y-875D02*X61165Y-950D01*
X61090Y-725D02*Y-875D01*
Y-725D02*X61165Y-650D01*
X61315D01*
X61390Y-725D01*
X61840D02*Y-875D01*
Y-725D02*X61915Y-650D01*
X62065D01*
X62140Y-725D01*
Y-875D01*
X62065Y-950D02*X62140Y-875D01*
X61915Y-950D02*X62065D01*
X61840Y-875D02*X61915Y-950D01*
X62320Y-650D02*Y-875D01*
X62395Y-950D01*
X62545D01*
X62620Y-875D01*
Y-650D02*Y-875D01*
X62876Y-350D02*Y-875D01*
X62951Y-950D01*
X62801Y-575D02*X62951D01*
X63101Y-350D02*Y-875D01*
X63176Y-950D01*
X63326Y-500D02*Y-575D01*
Y-725D02*Y-950D01*
X63551Y-725D02*Y-950D01*
Y-725D02*X63626Y-650D01*
X63701D01*
X63776Y-725D01*
Y-950D01*
X63476Y-650D02*X63551Y-725D01*
X64031Y-950D02*X64256D01*
X63956Y-875D02*X64031Y-950D01*
X63956Y-725D02*Y-875D01*
Y-725D02*X64031Y-650D01*
X64181D01*
X64256Y-725D01*
X63956Y-800D02*X64256D01*
Y-725D02*Y-800D01*
X64706Y-500D02*Y-575D01*
Y-725D02*Y-950D01*
X64931D02*X65156D01*
X65231Y-875D01*
X65156Y-800D02*X65231Y-875D01*
X64931Y-800D02*X65156D01*
X64856Y-725D02*X64931Y-800D01*
X64856Y-725D02*X64931Y-650D01*
X65156D01*
X65231Y-725D01*
X64856Y-875D02*X64931Y-950D01*
X65757Y-350D02*Y-875D01*
X65832Y-950D01*
X65682Y-575D02*X65832D01*
X65982Y-350D02*Y-950D01*
Y-725D02*X66057Y-650D01*
X66207D01*
X66282Y-725D01*
Y-950D01*
X66537D02*X66762D01*
X66462Y-875D02*X66537Y-950D01*
X66462Y-725D02*Y-875D01*
Y-725D02*X66537Y-650D01*
X66687D01*
X66762Y-725D01*
X66462Y-800D02*X66762D01*
Y-725D02*Y-800D01*
X67287Y-650D02*X67512D01*
X67212Y-725D02*X67287Y-650D01*
X67212Y-725D02*Y-875D01*
X67287Y-950D01*
X67512D01*
X67767D02*X67992D01*
X67692Y-875D02*X67767Y-950D01*
X67692Y-725D02*Y-875D01*
Y-725D02*X67767Y-650D01*
X67917D01*
X67992Y-725D01*
X67692Y-800D02*X67992D01*
Y-725D02*Y-800D01*
X68247Y-725D02*Y-950D01*
Y-725D02*X68322Y-650D01*
X68397D01*
X68472Y-725D01*
Y-950D01*
X68172Y-650D02*X68247Y-725D01*
X68728Y-350D02*Y-875D01*
X68803Y-950D01*
X68653Y-575D02*X68803D01*
X69028Y-950D02*X69253D01*
X68953Y-875D02*X69028Y-950D01*
X68953Y-725D02*Y-875D01*
Y-725D02*X69028Y-650D01*
X69178D01*
X69253Y-725D01*
X68953Y-800D02*X69253D01*
Y-725D02*Y-800D01*
X69508Y-725D02*Y-950D01*
Y-725D02*X69583Y-650D01*
X69733D01*
X69433D02*X69508Y-725D01*
X69913Y-350D02*Y-875D01*
X69988Y-950D01*
X70138Y-500D02*Y-575D01*
Y-725D02*Y-950D01*
X70363Y-725D02*Y-950D01*
Y-725D02*X70438Y-650D01*
X70513D01*
X70588Y-725D01*
Y-950D01*
X70288Y-650D02*X70363Y-725D01*
X70843Y-950D02*X71068D01*
X70768Y-875D02*X70843Y-950D01*
X70768Y-725D02*Y-875D01*
Y-725D02*X70843Y-650D01*
X70993D01*
X71068Y-725D01*
X70768Y-800D02*X71068D01*
Y-725D02*Y-800D01*
X71519Y-725D02*Y-875D01*
Y-725D02*X71594Y-650D01*
X71744D01*
X71819Y-725D01*
Y-875D01*
X71744Y-950D02*X71819Y-875D01*
X71594Y-950D02*X71744D01*
X71519Y-875D02*X71594Y-950D01*
X72074Y-425D02*Y-950D01*
Y-425D02*X72149Y-350D01*
X72224D01*
X71999Y-650D02*X72149D01*
X72719Y-350D02*Y-875D01*
X72794Y-950D01*
X72644Y-575D02*X72794D01*
X72944Y-350D02*Y-950D01*
Y-725D02*X73019Y-650D01*
X73169D01*
X73244Y-725D01*
Y-950D01*
X73424Y-500D02*Y-575D01*
Y-725D02*Y-950D01*
X73649D02*X73874D01*
X73949Y-875D01*
X73874Y-800D02*X73949Y-875D01*
X73649Y-800D02*X73874D01*
X73574Y-725D02*X73649Y-800D01*
X73574Y-725D02*X73649Y-650D01*
X73874D01*
X73949Y-725D01*
X73574Y-875D02*X73649Y-950D01*
X74474D02*X74624D01*
X74549Y-350D02*Y-950D01*
X74399Y-500D02*X74549Y-350D01*
X74805Y-875D02*X74880Y-950D01*
X74805Y-425D02*Y-875D01*
Y-425D02*X74880Y-350D01*
X75030D01*
X75105Y-425D01*
Y-875D01*
X75030Y-950D02*X75105Y-875D01*
X74880Y-950D02*X75030D01*
X74805Y-800D02*X75105Y-500D01*
X75630Y-725D02*Y-950D01*
Y-725D02*X75705Y-650D01*
X75780D01*
X75855Y-725D01*
Y-950D01*
Y-725D02*X75930Y-650D01*
X76005D01*
X76080Y-725D01*
Y-950D01*
X75555Y-650D02*X75630Y-725D01*
X76260Y-500D02*Y-575D01*
Y-725D02*Y-950D01*
X76410Y-350D02*Y-875D01*
X76485Y-950D01*
X76980Y-725D02*Y-950D01*
Y-725D02*X77055Y-650D01*
X77205D01*
X76905D02*X76980Y-725D01*
X77460Y-950D02*X77685D01*
X77385Y-875D02*X77460Y-950D01*
X77385Y-725D02*Y-875D01*
Y-725D02*X77460Y-650D01*
X77610D01*
X77685Y-725D01*
X77385Y-800D02*X77685D01*
Y-725D02*Y-800D01*
X77941Y-650D02*X78166D01*
X77866Y-725D02*X77941Y-650D01*
X77866Y-725D02*Y-875D01*
X77941Y-950D01*
X78166D01*
X78421Y-350D02*Y-875D01*
X78496Y-950D01*
X78346Y-575D02*X78496D01*
X78871Y-650D02*X78946Y-725D01*
X78721Y-650D02*X78871D01*
X78646Y-725D02*X78721Y-650D01*
X78646Y-725D02*Y-875D01*
X78721Y-950D01*
X78946Y-650D02*Y-875D01*
X79021Y-950D01*
X78721D02*X78871D01*
X78946Y-875D01*
X79276Y-725D02*Y-950D01*
Y-725D02*X79351Y-650D01*
X79426D01*
X79501Y-725D01*
Y-950D01*
X79201Y-650D02*X79276Y-725D01*
X79906Y-650D02*X79981Y-725D01*
X79756Y-650D02*X79906D01*
X79681Y-725D02*X79756Y-650D01*
X79681Y-725D02*Y-875D01*
X79756Y-950D01*
X79906D01*
X79981Y-875D01*
X79681Y-1100D02*X79756Y-1175D01*
X79906D01*
X79981Y-1100D01*
Y-650D02*Y-1100D01*
X80161Y-350D02*Y-875D01*
X80236Y-950D01*
X80461D02*X80686D01*
X80386Y-875D02*X80461Y-950D01*
X80386Y-725D02*Y-875D01*
Y-725D02*X80461Y-650D01*
X80611D01*
X80686Y-725D01*
X80386Y-800D02*X80686D01*
Y-725D02*Y-800D01*
X81137Y-650D02*X81437D01*
X81887Y-875D02*X81962Y-950D01*
X81887Y-425D02*Y-875D01*
Y-425D02*X81962Y-350D01*
X82112D01*
X82187Y-425D01*
Y-875D01*
X82112Y-950D02*X82187Y-875D01*
X81962Y-950D02*X82112D01*
X81887Y-800D02*X82187Y-500D01*
X82367Y-1100D02*X82517Y-950D01*
X82697Y-875D02*X82772Y-950D01*
X82697Y-425D02*Y-875D01*
Y-425D02*X82772Y-350D01*
X82922D01*
X82997Y-425D01*
Y-875D01*
X82922Y-950D02*X82997Y-875D01*
X82772Y-950D02*X82922D01*
X82697Y-800D02*X82997Y-500D01*
X83522Y-350D02*Y-875D01*
X83597Y-950D01*
X83447Y-575D02*X83597D01*
X83747Y-725D02*Y-875D01*
Y-725D02*X83822Y-650D01*
X83972D01*
X84047Y-725D01*
Y-875D01*
X83972Y-950D02*X84047Y-875D01*
X83822Y-950D02*X83972D01*
X83747Y-875D02*X83822Y-950D01*
X84572D02*X84722D01*
X84647Y-350D02*Y-950D01*
X84497Y-500D02*X84647Y-350D01*
X84903D02*X85203D01*
X84903D02*Y-650D01*
X84978Y-575D01*
X85128D01*
X85203Y-650D01*
Y-875D01*
X85128Y-950D02*X85203Y-875D01*
X84978Y-950D02*X85128D01*
X84903Y-875D02*X84978Y-950D01*
X85383Y-875D02*X85458Y-950D01*
X85383Y-425D02*Y-875D01*
Y-425D02*X85458Y-350D01*
X85608D01*
X85683Y-425D01*
Y-875D01*
X85608Y-950D02*X85683Y-875D01*
X85458Y-950D02*X85608D01*
X85383Y-800D02*X85683Y-500D01*
X85863Y-875D02*X85938Y-950D01*
X85863Y-425D02*Y-875D01*
Y-425D02*X85938Y-350D01*
X86088D01*
X86163Y-425D01*
Y-875D01*
X86088Y-950D02*X86163Y-875D01*
X85938Y-950D02*X86088D01*
X85863Y-800D02*X86163Y-500D01*
X86343Y-875D02*X86418Y-950D01*
X86343Y-425D02*Y-875D01*
Y-425D02*X86418Y-350D01*
X86568D01*
X86643Y-425D01*
Y-875D01*
X86568Y-950D02*X86643Y-875D01*
X86418Y-950D02*X86568D01*
X86343Y-800D02*X86643Y-500D01*
X86823Y-1100D02*X86973Y-950D01*
X87153Y-350D02*X87453D01*
X87153D02*Y-650D01*
X87228Y-575D01*
X87378D01*
X87453Y-650D01*
Y-875D01*
X87378Y-950D02*X87453Y-875D01*
X87228Y-950D02*X87378D01*
X87153Y-875D02*X87228Y-950D01*
X87634Y-875D02*X87709Y-950D01*
X87634Y-425D02*Y-875D01*
Y-425D02*X87709Y-350D01*
X87859D01*
X87934Y-425D01*
Y-875D01*
X87859Y-950D02*X87934Y-875D01*
X87709Y-950D02*X87859D01*
X87634Y-800D02*X87934Y-500D01*
X88114Y-875D02*X88189Y-950D01*
X88114Y-425D02*Y-875D01*
Y-425D02*X88189Y-350D01*
X88339D01*
X88414Y-425D01*
Y-875D01*
X88339Y-950D02*X88414Y-875D01*
X88189Y-950D02*X88339D01*
X88114Y-800D02*X88414Y-500D01*
X88594Y-875D02*X88669Y-950D01*
X88594Y-425D02*Y-875D01*
Y-425D02*X88669Y-350D01*
X88819D01*
X88894Y-425D01*
Y-875D01*
X88819Y-950D02*X88894Y-875D01*
X88669Y-950D02*X88819D01*
X88594Y-800D02*X88894Y-500D01*
X89419Y-725D02*Y-950D01*
Y-725D02*X89494Y-650D01*
X89569D01*
X89644Y-725D01*
Y-950D01*
Y-725D02*X89719Y-650D01*
X89794D01*
X89869Y-725D01*
Y-950D01*
X89344Y-650D02*X89419Y-725D01*
X90049Y-500D02*Y-575D01*
Y-725D02*Y-950D01*
X90199Y-350D02*Y-875D01*
X90274Y-950D01*
X90499D02*X90724D01*
X90799Y-875D01*
X90724Y-800D02*X90799Y-875D01*
X90499Y-800D02*X90724D01*
X90424Y-725D02*X90499Y-800D01*
X90424Y-725D02*X90499Y-650D01*
X90724D01*
X90799Y-725D01*
X90424Y-875D02*X90499Y-950D01*
X20075Y52850D02*Y52250D01*
X20300Y52850D02*X20375Y52775D01*
Y52325D01*
X20300Y52250D02*X20375Y52325D01*
X20000Y52250D02*X20300D01*
X20000Y52850D02*X20300D01*
X20780Y52550D02*X20855Y52475D01*
X20630Y52550D02*X20780D01*
X20555Y52475D02*X20630Y52550D01*
X20555Y52475D02*Y52325D01*
X20630Y52250D01*
X20855Y52550D02*Y52325D01*
X20930Y52250D01*
X20630D02*X20780D01*
X20855Y52325D01*
X21185Y52850D02*Y52325D01*
X21260Y52250D01*
X21110Y52625D02*X21260D01*
X21485Y52250D02*X21710D01*
X21410Y52325D02*X21485Y52250D01*
X21410Y52475D02*Y52325D01*
Y52475D02*X21485Y52550D01*
X21635D01*
X21710Y52475D01*
X21410Y52400D02*X21710D01*
Y52475D02*Y52400D01*
X21890Y52625D02*X21965D01*
X21890Y52475D02*X21965D01*
X22415Y52850D02*Y52250D01*
Y52850D02*X22640Y52625D01*
X22865Y52850D01*
Y52250D01*
X23045Y52475D02*Y52325D01*
Y52475D02*X23120Y52550D01*
X23270D01*
X23345Y52475D01*
Y52325D01*
X23270Y52250D02*X23345Y52325D01*
X23120Y52250D02*X23270D01*
X23045Y52325D02*X23120Y52250D01*
X23601Y52475D02*Y52250D01*
Y52475D02*X23676Y52550D01*
X23751D01*
X23826Y52475D01*
Y52250D01*
X23526Y52550D02*X23601Y52475D01*
X24276Y52850D02*X24501D01*
Y52325D01*
X24426Y52250D02*X24501Y52325D01*
X24351Y52250D02*X24426D01*
X24276Y52325D02*X24351Y52250D01*
X24681Y52550D02*Y52325D01*
X24756Y52250D01*
X24906D01*
X24981Y52325D01*
Y52550D02*Y52325D01*
X25236Y52475D02*Y52250D01*
Y52475D02*X25311Y52550D01*
X25386D01*
X25461Y52475D01*
Y52250D01*
X25161Y52550D02*X25236Y52475D01*
X25911Y52775D02*X25986Y52850D01*
X26211D01*
X26286Y52775D01*
Y52625D01*
X25911Y52250D02*X26286Y52625D01*
X25911Y52250D02*X26286D01*
X26466Y52775D02*X26541Y52850D01*
X26691D01*
X26766Y52775D01*
Y52325D01*
X26691Y52250D02*X26766Y52325D01*
X26541Y52250D02*X26691D01*
X26466Y52325D02*X26541Y52250D01*
Y52550D02*X26766D01*
X27216Y52325D02*X27291Y52250D01*
X27216Y52775D02*Y52325D01*
Y52775D02*X27291Y52850D01*
X27441D01*
X27516Y52775D01*
Y52325D01*
X27441Y52250D02*X27516Y52325D01*
X27291Y52250D02*X27441D01*
X27216Y52400D02*X27516Y52700D01*
X27922Y52850D02*X27997Y52775D01*
X27772Y52850D02*X27922D01*
X27697Y52775D02*X27772Y52850D01*
X27697Y52775D02*Y52325D01*
X27772Y52250D01*
X27922Y52550D02*X27997Y52475D01*
X27697Y52550D02*X27922D01*
X27772Y52250D02*X27922D01*
X27997Y52325D01*
Y52475D02*Y52325D01*
X28177Y52625D02*X28252D01*
X28177Y52475D02*X28252D01*
X28432Y52775D02*X28507Y52850D01*
X28657D01*
X28732Y52775D01*
Y52325D01*
X28657Y52250D02*X28732Y52325D01*
X28507Y52250D02*X28657D01*
X28432Y52325D02*X28507Y52250D01*
Y52550D02*X28732D01*
X28912D02*X29212Y52850D01*
X28912Y52550D02*X29287D01*
X29212Y52850D02*Y52250D01*
X29467Y52625D02*X29542D01*
X29467Y52475D02*X29542D01*
X29722Y52550D02*X30022Y52850D01*
X29722Y52550D02*X30097D01*
X30022Y52850D02*Y52250D01*
X30278Y52325D02*X30353Y52250D01*
X30278Y52475D02*Y52325D01*
Y52475D02*X30353Y52550D01*
X30503D01*
X30578Y52475D01*
Y52325D01*
X30503Y52250D02*X30578Y52325D01*
X30353Y52250D02*X30503D01*
X30278Y52625D02*X30353Y52550D01*
X30278Y52775D02*Y52625D01*
Y52775D02*X30353Y52850D01*
X30503D01*
X30578Y52775D01*
Y52625D01*
X30503Y52550D02*X30578Y52625D01*
X31028Y52775D02*X31103Y52850D01*
X31328D01*
X31403Y52775D01*
Y52625D01*
X31028Y52250D02*X31403Y52625D01*
X31028Y52250D02*X31403D01*
X31583Y52325D02*X31658Y52250D01*
X31583Y52775D02*Y52325D01*
Y52775D02*X31658Y52850D01*
X31808D01*
X31883Y52775D01*
Y52325D01*
X31808Y52250D02*X31883Y52325D01*
X31658Y52250D02*X31808D01*
X31583Y52400D02*X31883Y52700D01*
X32063Y52325D02*X32138Y52250D01*
X32063Y52775D02*Y52325D01*
Y52775D02*X32138Y52850D01*
X32288D01*
X32363Y52775D01*
Y52325D01*
X32288Y52250D02*X32363Y52325D01*
X32138Y52250D02*X32288D01*
X32063Y52400D02*X32363Y52700D01*
X32543Y52325D02*X32618Y52250D01*
X32543Y52475D02*Y52325D01*
Y52475D02*X32618Y52550D01*
X32768D01*
X32843Y52475D01*
Y52325D01*
X32768Y52250D02*X32843Y52325D01*
X32618Y52250D02*X32768D01*
X32543Y52625D02*X32618Y52550D01*
X32543Y52775D02*Y52625D01*
Y52775D02*X32618Y52850D01*
X32768D01*
X32843Y52775D01*
Y52625D01*
X32768Y52550D02*X32843Y52625D01*
X33293Y52850D02*Y52325D01*
X33368Y52250D01*
X33518D01*
X33593Y52325D01*
Y52850D02*Y52325D01*
X33773Y52850D02*X34073D01*
X33923D02*Y52250D01*
X34329D02*X34554D01*
X34254Y52325D02*X34329Y52250D01*
X34254Y52775D02*Y52325D01*
Y52775D02*X34329Y52850D01*
X34554D01*
X20000Y54275D02*Y53750D01*
Y54275D02*X20075Y54350D01*
X20300D01*
X20375Y54275D01*
Y53750D01*
X20000Y54050D02*X20375D01*
X20555D02*Y53825D01*
X20630Y53750D01*
X20780D01*
X20855Y53825D01*
Y54050D02*Y53825D01*
X21110Y54350D02*Y53825D01*
X21185Y53750D01*
X21035Y54125D02*X21185D01*
X21335Y54350D02*Y53750D01*
Y53975D02*X21410Y54050D01*
X21560D01*
X21635Y53975D01*
Y53750D01*
X21815Y53975D02*Y53825D01*
Y53975D02*X21890Y54050D01*
X22040D01*
X22115Y53975D01*
Y53825D01*
X22040Y53750D02*X22115Y53825D01*
X21890Y53750D02*X22040D01*
X21815Y53825D02*X21890Y53750D01*
X22370Y53975D02*Y53750D01*
Y53975D02*X22445Y54050D01*
X22595D01*
X22295D02*X22370Y53975D01*
X22775Y54125D02*X22850D01*
X22775Y53975D02*X22850D01*
X23376Y54350D02*Y53750D01*
X23301Y54350D02*X23601D01*
X23676Y54275D01*
Y54125D01*
X23601Y54050D02*X23676Y54125D01*
X23376Y54050D02*X23601D01*
X23931Y53750D02*X24156D01*
X23856Y53825D02*X23931Y53750D01*
X23856Y53975D02*Y53825D01*
Y53975D02*X23931Y54050D01*
X24081D01*
X24156Y53975D01*
X23856Y53900D02*X24156D01*
Y53975D02*Y53900D01*
X24411Y54350D02*Y53825D01*
X24486Y53750D01*
X24336Y54125D02*X24486D01*
X24711Y53750D02*X24936D01*
X24636Y53825D02*X24711Y53750D01*
X24636Y53975D02*Y53825D01*
Y53975D02*X24711Y54050D01*
X24861D01*
X24936Y53975D01*
X24636Y53900D02*X24936D01*
Y53975D02*Y53900D01*
X25191Y53975D02*Y53750D01*
Y53975D02*X25266Y54050D01*
X25416D01*
X25116D02*X25191Y53975D01*
X25866Y54350D02*X26166D01*
X26016D02*Y53750D01*
X26346Y53975D02*Y53825D01*
Y53975D02*X26421Y54050D01*
X26571D01*
X26646Y53975D01*
Y53825D01*
X26571Y53750D02*X26646Y53825D01*
X26421Y53750D02*X26571D01*
X26346Y53825D02*X26421Y53750D01*
X27127Y54350D02*Y53750D01*
X27052D02*X27127Y53825D01*
X26902Y53750D02*X27052D01*
X26827Y53825D02*X26902Y53750D01*
X26827Y53975D02*Y53825D01*
Y53975D02*X26902Y54050D01*
X27052D01*
X27127Y53975D01*
X27607Y54350D02*Y53750D01*
X27532D02*X27607Y53825D01*
X27382Y53750D02*X27532D01*
X27307Y53825D02*X27382Y53750D01*
X27307Y53975D02*Y53825D01*
Y53975D02*X27382Y54050D01*
X27532D01*
X27607Y53975D01*
X20000Y55850D02*X20300D01*
X20150D02*Y55250D01*
X20480Y55700D02*Y55625D01*
Y55475D02*Y55250D01*
X20705Y55850D02*Y55325D01*
X20780Y55250D01*
X20630Y55625D02*X20780D01*
X20930Y55850D02*Y55325D01*
X21005Y55250D01*
X21230D02*X21455D01*
X21155Y55325D02*X21230Y55250D01*
X21155Y55475D02*Y55325D01*
Y55475D02*X21230Y55550D01*
X21380D01*
X21455Y55475D01*
X21155Y55400D02*X21455D01*
Y55475D02*Y55400D01*
X21635Y55625D02*X21710D01*
X21635Y55475D02*X21710D01*
X22160Y55325D02*X22235Y55250D01*
X22160Y55775D02*X22235Y55850D01*
X22160Y55775D02*Y55325D01*
X22416Y55550D02*Y55325D01*
X22491Y55250D01*
X22641D01*
X22716Y55325D01*
Y55550D02*Y55325D01*
X22971Y55475D02*Y55250D01*
Y55475D02*X23046Y55550D01*
X23121D01*
X23196Y55475D01*
Y55250D01*
X22896Y55550D02*X22971Y55475D01*
X23376Y55850D02*Y55250D01*
Y55475D02*X23601Y55250D01*
X23376Y55475D02*X23526Y55625D01*
X23856Y55475D02*Y55250D01*
Y55475D02*X23931Y55550D01*
X24006D01*
X24081Y55475D01*
Y55250D01*
X23781Y55550D02*X23856Y55475D01*
X24261D02*Y55325D01*
Y55475D02*X24336Y55550D01*
X24486D01*
X24561Y55475D01*
Y55325D01*
X24486Y55250D02*X24561Y55325D01*
X24336Y55250D02*X24486D01*
X24261Y55325D02*X24336Y55250D01*
X24741Y55550D02*Y55325D01*
X24816Y55250D01*
X24891D01*
X24966Y55325D01*
Y55550D02*Y55325D01*
X25041Y55250D01*
X25116D01*
X25191Y55325D01*
Y55550D02*Y55325D01*
X25446Y55475D02*Y55250D01*
Y55475D02*X25521Y55550D01*
X25596D01*
X25671Y55475D01*
Y55250D01*
X25371Y55550D02*X25446Y55475D01*
X25852Y55850D02*X25927Y55775D01*
Y55325D01*
X25852Y55250D02*X25927Y55325D01*
X26377Y55550D02*X26677D01*
X27127Y55850D02*Y55250D01*
Y55850D02*X27427D01*
X27127Y55550D02*X27352D01*
X27832D02*X27907Y55475D01*
X27682Y55550D02*X27832D01*
X27607Y55475D02*X27682Y55550D01*
X27607Y55475D02*Y55325D01*
X27682Y55250D01*
X27907Y55550D02*Y55325D01*
X27982Y55250D01*
X27682D02*X27832D01*
X27907Y55325D01*
X28162Y55850D02*Y55250D01*
Y55325D02*X28237Y55250D01*
X28387D01*
X28462Y55325D01*
Y55475D02*Y55325D01*
X28387Y55550D02*X28462Y55475D01*
X28237Y55550D02*X28387D01*
X28162Y55475D02*X28237Y55550D01*
X28717Y55475D02*Y55250D01*
Y55475D02*X28792Y55550D01*
X28942D01*
X28642D02*X28717Y55475D01*
X29123Y55700D02*Y55625D01*
Y55475D02*Y55250D01*
X29348Y55550D02*X29573D01*
X29273Y55475D02*X29348Y55550D01*
X29273Y55475D02*Y55325D01*
X29348Y55250D01*
X29573D01*
X29978Y55550D02*X30053Y55475D01*
X29828Y55550D02*X29978D01*
X29753Y55475D02*X29828Y55550D01*
X29753Y55475D02*Y55325D01*
X29828Y55250D01*
X30053Y55550D02*Y55325D01*
X30128Y55250D01*
X29828D02*X29978D01*
X30053Y55325D01*
X30383Y55850D02*Y55325D01*
X30458Y55250D01*
X30308Y55625D02*X30458D01*
X30608Y55700D02*Y55625D01*
Y55475D02*Y55250D01*
X30758Y55475D02*Y55325D01*
Y55475D02*X30833Y55550D01*
X30983D01*
X31058Y55475D01*
Y55325D01*
X30983Y55250D02*X31058Y55325D01*
X30833Y55250D02*X30983D01*
X30758Y55325D02*X30833Y55250D01*
X31313Y55475D02*Y55250D01*
Y55475D02*X31388Y55550D01*
X31463D01*
X31538Y55475D01*
Y55250D01*
X31238Y55550D02*X31313Y55475D01*
X32064Y55850D02*Y55250D01*
X32289Y55850D02*X32364Y55775D01*
Y55325D01*
X32289Y55250D02*X32364Y55325D01*
X31989Y55250D02*X32289D01*
X31989Y55850D02*X32289D01*
X32619Y55475D02*Y55250D01*
Y55475D02*X32694Y55550D01*
X32844D01*
X32544D02*X32619Y55475D01*
X33249Y55550D02*X33324Y55475D01*
X33099Y55550D02*X33249D01*
X33024Y55475D02*X33099Y55550D01*
X33024Y55475D02*Y55325D01*
X33099Y55250D01*
X33324Y55550D02*Y55325D01*
X33399Y55250D01*
X33099D02*X33249D01*
X33324Y55325D01*
X33579Y55550D02*Y55325D01*
X33654Y55250D01*
X33729D01*
X33804Y55325D01*
Y55550D02*Y55325D01*
X33879Y55250D01*
X33954D01*
X34029Y55325D01*
Y55550D02*Y55325D01*
X34209Y55700D02*Y55625D01*
Y55475D02*Y55250D01*
X34434Y55475D02*Y55250D01*
Y55475D02*X34509Y55550D01*
X34584D01*
X34659Y55475D01*
Y55250D01*
X34359Y55550D02*X34434Y55475D01*
X35064Y55550D02*X35139Y55475D01*
X34914Y55550D02*X35064D01*
X34839Y55475D02*X34914Y55550D01*
X34839Y55475D02*Y55325D01*
X34914Y55250D01*
X35064D01*
X35139Y55325D01*
X34839Y55100D02*X34914Y55025D01*
X35064D01*
X35139Y55100D01*
Y55550D02*Y55100D01*
M02*
