G04 start of page 4 for group -4063 idx -4063
G04 Title: (unknown), componentmask *
G04 Creator: pcb-bin 20060822 *
G04 CreationDate: Mon Jun 23 06:34:48 2008 UTC *
G04 For: pete *
G04 Format: Gerber/RS-274X *
G04 PCB-Dimensions: 1500000 500000 *
G04 PCB-Coordinate-Origin: lower left *
%MOIN*%
%FSLAX24Y24*%
%LNFRONTMASK*%
%ADD11R,0.0810X0.0810*%
%ADD12C,0.0560*%
%ADD13R,0.0560X0.0560*%
%ADD14R,0.0660X0.0660*%
%ADD15C,0.0660*%
%ADD16R,0.0572X0.0572*%
%ADD17R,0.0620X0.0620*%
%ADD18R,0.1280X0.1280*%
%ADD19R,0.0400X0.0400*%
%ADD20R,0.0300X0.0300*%
%ADD21R,0.1510X0.1510*%
%ADD22R,0.0769X0.0769*%
%ADD23R,0.0550X0.0550*%
%ADD24R,0.0750X0.0750*%
G54D11*%LNFRONTMASK_D1*%
%LPD*%
X143500Y15000D03*
X142500Y16000D03*
G54D12*X138000Y14250D03*
Y15250D03*
Y16250D03*
G54D13*Y17250D03*
G54D12*X136000Y14250D03*
Y15250D03*
Y16250D03*
G54D13*Y17250D03*
G54D14*Y9750D03*
G54D12*X134000Y14250D03*
G54D15*X137000Y9750D03*
G54D12*X134000Y15250D03*
Y16250D03*
G54D13*Y17250D03*
G54D11*X139000Y26750D03*
X137000Y30500D03*
X136000D03*
Y31500D03*
X135000D03*
Y32500D03*
X134000Y33500D03*
X133000D03*
Y34500D03*
X134000Y32500D03*
X132000Y34500D03*
G54D12*Y14250D03*
Y15250D03*
Y16250D03*
G54D13*Y17250D03*
G54D12*X130000Y14250D03*
Y15250D03*
Y16250D03*
G54D13*Y17250D03*
G54D12*X128000Y14250D03*
Y15250D03*
Y16250D03*
G54D13*Y17250D03*
G54D12*X126000Y14250D03*
Y15250D03*
Y16250D03*
G54D13*Y17250D03*
G54D12*X124000Y15250D03*
Y16250D03*
G54D13*Y17250D03*
G54D12*X122000Y15250D03*
Y16250D03*
G54D13*Y17250D03*
G54D12*X120000Y15250D03*
Y16250D03*
G54D13*Y17250D03*
G54D12*X124000Y14250D03*
X122000D03*
X120000D03*
X118000D03*
Y15250D03*
Y16250D03*
G54D13*Y17250D03*
G54D12*X116000Y16250D03*
G54D13*Y17250D03*
G54D12*X114000Y15250D03*
Y16250D03*
X112000Y14250D03*
G54D13*X114000Y17250D03*
G54D12*X112000Y15250D03*
Y16250D03*
G54D13*Y17250D03*
G54D12*X116000Y14250D03*
X110000D03*
X106000D03*
X104000D03*
X102000D03*
X116000Y15250D03*
X110000D03*
X104000D03*
X102000D03*
X108000Y14250D03*
Y15250D03*
Y16250D03*
G54D13*Y17250D03*
G54D12*X106000Y15250D03*
Y16250D03*
G54D13*Y17250D03*
G54D12*X104000Y16250D03*
G54D13*Y17250D03*
G54D12*X102000Y16250D03*
G54D13*Y17250D03*
G54D12*X100000Y16250D03*
G54D13*Y17250D03*
G54D12*Y14250D03*
X98000D03*
X100000Y15250D03*
X98000D03*
Y16250D03*
G54D13*Y17250D03*
G54D12*X110000Y16250D03*
G54D13*Y17250D03*
G54D11*X123750Y24000D03*
X107750D03*
X91750D03*
G54D12*X96000Y14250D03*
Y15250D03*
Y16250D03*
G54D13*Y17250D03*
G54D12*X94000Y14250D03*
Y15250D03*
Y16250D03*
G54D13*Y17250D03*
G54D12*X92000Y16250D03*
G54D13*Y17250D03*
G54D11*X106250Y6750D03*
G54D12*X114000Y14250D03*
X92000D03*
X90000D03*
X88000D03*
X92000Y15250D03*
X90000D03*
Y16250D03*
G54D13*Y17250D03*
G54D12*X88000Y15250D03*
Y16250D03*
G54D13*Y17250D03*
G54D12*X86000Y14250D03*
Y15250D03*
Y16250D03*
G54D13*Y17250D03*
G54D12*X84000Y14250D03*
Y15250D03*
Y16250D03*
G54D13*Y17250D03*
G54D12*X82000Y15250D03*
Y16250D03*
G54D13*Y17250D03*
G54D12*Y14250D03*
X80000D03*
Y15250D03*
Y16250D03*
G54D13*Y17250D03*
G54D12*X78000Y14250D03*
X76000D03*
X78000Y15250D03*
Y16250D03*
G54D13*Y17250D03*
G54D12*X76000Y15250D03*
Y16250D03*
G54D13*Y17250D03*
G54D12*X74000Y16250D03*
G54D13*Y17250D03*
G54D11*X74250Y6750D03*
G54D12*X74000Y15250D03*
X72000D03*
Y16250D03*
G54D13*Y17250D03*
G54D12*X74000Y14250D03*
X72000D03*
X70000D03*
Y15250D03*
Y16250D03*
G54D13*Y17250D03*
G54D12*X66000Y14250D03*
Y15250D03*
Y16250D03*
G54D13*Y17250D03*
G54D12*X68000Y14250D03*
X64000D03*
X68000Y15250D03*
X64000D03*
X68000Y16250D03*
X64000D03*
G54D13*X68000Y17250D03*
X64000D03*
G54D12*X62000Y14250D03*
Y15250D03*
X60000Y14250D03*
Y15250D03*
X62000Y16250D03*
X60000D03*
X58000D03*
X56000D03*
G54D13*X62000Y17250D03*
X60000D03*
X58000D03*
X56000D03*
G54D12*X58000Y14250D03*
Y15250D03*
X56000Y14250D03*
X54000D03*
X56000Y15250D03*
X54000D03*
G54D13*Y17250D03*
X48000D03*
X46000D03*
G54D12*X52000Y15250D03*
Y16250D03*
G54D13*Y17250D03*
G54D12*Y14250D03*
X50000D03*
Y15250D03*
Y16250D03*
G54D13*Y17250D03*
G54D12*X48000Y14250D03*
Y15250D03*
X54000Y16250D03*
X48000D03*
X46000D03*
G54D11*X42250Y6750D03*
G54D15*X59000Y38000D03*
G54D11*X59750Y24000D03*
G54D15*X59000Y39000D03*
G54D11*X75750Y24000D03*
G54D15*X59000Y40000D03*
X58750Y43750D03*
X57750D03*
X59750D03*
X56750D03*
X55750D03*
G54D14*X54750D03*
G54D11*X51250Y45750D03*
G54D15*X59000Y41000D03*
G54D11*X46500D03*
G54D15*X56000Y38000D03*
Y39000D03*
Y40000D03*
G54D14*Y41000D03*
G54D11*X43750Y24000D03*
X43000Y34000D03*
X39000Y41750D03*
X37500Y37000D03*
Y38000D03*
X38500Y33500D03*
X37500Y39000D03*
X34500Y33250D03*
Y34250D03*
Y32250D03*
Y35250D03*
G54D15*X33750Y39250D03*
Y41250D03*
X29750Y40250D03*
G54D11*X27250Y32250D03*
Y33250D03*
Y34250D03*
Y35250D03*
Y36250D03*
X18500Y33250D03*
Y32250D03*
Y34250D03*
Y35250D03*
G54D12*X16750Y38500D03*
Y41500D03*
G54D11*X11500Y32250D03*
Y33250D03*
Y35250D03*
X11250Y23500D03*
X11500Y34250D03*
X11250Y24500D03*
G54D12*X10750Y38500D03*
Y41500D03*
X44000Y16250D03*
G54D13*Y17250D03*
G54D12*X46000Y14250D03*
Y15250D03*
X44000Y14250D03*
Y15250D03*
X42000Y16250D03*
G54D13*Y17250D03*
G54D12*X40000Y16250D03*
G54D13*Y17250D03*
G54D12*X42000Y14250D03*
Y15250D03*
X40000Y14250D03*
Y15250D03*
X38000D03*
Y16250D03*
G54D13*Y17250D03*
G54D12*Y14250D03*
X36000D03*
Y15250D03*
Y16250D03*
G54D13*Y17250D03*
G54D12*X34000Y14250D03*
Y15250D03*
Y16250D03*
G54D13*Y17250D03*
G54D12*X32000Y14250D03*
Y15250D03*
Y16250D03*
G54D13*Y17250D03*
G54D12*X30000Y14250D03*
Y15250D03*
Y16250D03*
X28000Y14250D03*
G54D13*X30000Y17250D03*
G54D12*X28000Y15250D03*
Y16250D03*
G54D13*Y17250D03*
G54D12*X26000Y14250D03*
Y15250D03*
Y16250D03*
G54D13*Y17250D03*
G54D12*X24000Y14250D03*
X22000D03*
X20000D03*
X18000D03*
X24000Y15250D03*
X22000D03*
X20000D03*
X18000D03*
X16000D03*
X14000D03*
X24000Y16250D03*
X22000D03*
X20000D03*
X18000D03*
X16000D03*
X14000D03*
G54D13*X24000Y17250D03*
X22000D03*
X20000D03*
X18000D03*
X16000D03*
X14000D03*
G54D12*X12000Y15250D03*
Y16250D03*
G54D13*Y17250D03*
G54D12*X16000Y14250D03*
X14000D03*
X12000D03*
G54D11*X10250Y6750D03*
G54D16*X143590Y17618D02*Y17381D01*
X142409Y17618D02*Y17381D01*
G54D17*X142250Y24830D02*Y24170D01*
X141350Y24830D02*Y24170D01*
G54D18*X140900Y22060D02*X141800D01*
G54D17*X140440Y24830D02*Y24170D01*
G54D19*X139000Y19780D02*Y19720D01*
X138610Y18960D02*Y18900D01*
X138220Y19780D02*Y19720D01*
X137000Y19780D02*Y19720D01*
X136610Y18960D02*Y18900D01*
X136220Y19780D02*Y19720D01*
X135000Y19780D02*Y19720D01*
X134610Y18960D02*Y18900D01*
X134220Y19780D02*Y19720D01*
X133000Y19780D02*Y19720D01*
X132610Y18960D02*Y18900D01*
X132220Y19780D02*Y19720D01*
X131000Y19780D02*Y19720D01*
X130610Y18960D02*Y18900D01*
X130220Y19780D02*Y19720D01*
X129000Y19780D02*Y19720D01*
X128610Y18960D02*Y18900D01*
X128220Y19780D02*Y19720D01*
G54D16*X141340Y26118D02*Y25881D01*
Y27118D02*Y26881D01*
X140159Y26118D02*Y25881D01*
Y27118D02*Y26881D01*
X141340Y28118D02*Y27881D01*
X140159Y28118D02*Y27881D01*
G54D20*X136000Y29100D02*Y28450D01*
X135500Y29100D02*Y28450D01*
X135000Y29100D02*Y28450D01*
X134500Y29100D02*Y28450D01*
X135000Y27050D02*Y26400D01*
X134500Y27050D02*Y26400D01*
X135500Y27050D02*Y26400D01*
X134000Y27050D02*Y26400D01*
X136000Y27050D02*Y26400D01*
X133500Y27050D02*Y26400D01*
X133000Y27050D02*Y26400D01*
X132500Y27050D02*Y26400D01*
X134000Y29100D02*Y28450D01*
X133500Y29100D02*Y28450D01*
X133000Y29100D02*Y28450D01*
X132500Y29100D02*Y28450D01*
G54D16*X131131Y28590D02*X131368D01*
X131131Y27409D02*X131368D01*
X130131D02*X130368D01*
X130131Y28590D02*X130368D01*
G54D20*X129000Y29850D02*Y29250D01*
X128500Y29850D02*Y29250D01*
X128000Y29850D02*Y29250D01*
X127500Y29850D02*Y29250D01*
X127000Y29850D02*Y29250D01*
X126500Y29850D02*Y29250D01*
X127000Y26250D02*Y25650D01*
X127500Y26250D02*Y25650D01*
X126500Y26250D02*Y25650D01*
X126000Y26250D02*Y25650D01*
X128000Y26250D02*Y25650D01*
X128500Y26250D02*Y25650D01*
X126000Y29850D02*Y29250D01*
X129000Y26250D02*Y25650D01*
X125500Y29850D02*Y29250D01*
X125000Y29850D02*Y29250D01*
Y26250D02*Y25650D01*
X124500Y26250D02*Y25650D01*
X125500Y26250D02*Y25650D01*
X124500Y29850D02*Y29250D01*
X120000Y27050D02*Y26400D01*
Y29100D02*Y28450D01*
X119500Y27050D02*Y26400D01*
Y29100D02*Y28450D01*
X119000Y27050D02*Y26400D01*
Y29100D02*Y28450D01*
X118500Y27050D02*Y26400D01*
Y29100D02*Y28450D01*
X118000Y29100D02*Y28450D01*
X117500Y29100D02*Y28450D01*
X117000Y29100D02*Y28450D01*
X116500Y29100D02*Y28450D01*
X117000Y27050D02*Y26400D01*
X117500Y27050D02*Y26400D01*
X118000Y27050D02*Y26400D01*
X116500Y27050D02*Y26400D01*
G54D16*X115131Y27409D02*X115368D01*
X115131Y28590D02*X115368D01*
X114131Y27409D02*X114368D01*
X114131Y28590D02*X114368D01*
G54D20*X113000Y29850D02*Y29250D01*
X112500Y29850D02*Y29250D01*
X112000Y29850D02*Y29250D01*
X111500Y29850D02*Y29250D01*
X111000Y29850D02*Y29250D01*
Y26250D02*Y25650D01*
X111500Y26250D02*Y25650D01*
X110500Y26250D02*Y25650D01*
X112000Y26250D02*Y25650D01*
X110500Y29850D02*Y29250D01*
X110000Y29850D02*Y29250D01*
X109500Y29850D02*Y29250D01*
X109000Y29850D02*Y29250D01*
X113000Y26250D02*Y25650D01*
X112500Y26250D02*Y25650D01*
X108500Y29850D02*Y29250D01*
X110000Y26250D02*Y25650D01*
X109500Y26250D02*Y25650D01*
X109000Y26250D02*Y25650D01*
X108500Y26250D02*Y25650D01*
G54D21*X129660Y7200D02*Y6800D01*
G54D19*X127000Y19780D02*Y19720D01*
X126610Y18960D02*Y18900D01*
G54D22*X132576Y10084D02*Y9415D01*
G54D21*X131840Y7200D02*Y6800D01*
G54D22*X130923Y10084D02*Y9415D01*
G54D19*X126220Y19780D02*Y19720D01*
X125000Y19780D02*Y19720D01*
X124610Y18960D02*Y18900D01*
X124220Y19780D02*Y19720D01*
X123000Y19780D02*Y19720D01*
X122610Y18960D02*Y18900D01*
X122220Y19780D02*Y19720D01*
X121000Y19780D02*Y19720D01*
X120610Y18960D02*Y18900D01*
X120220Y19780D02*Y19720D01*
X119000Y19780D02*Y19720D01*
X118610Y18960D02*Y18900D01*
X118220Y19780D02*Y19720D01*
X117000Y19780D02*Y19720D01*
X116610Y18960D02*Y18900D01*
X116220Y19780D02*Y19720D01*
X115000Y19780D02*Y19720D01*
X114610Y18960D02*Y18900D01*
X112610Y18960D02*Y18900D01*
X110610Y18960D02*Y18900D01*
X114220Y19780D02*Y19720D01*
X113000Y19780D02*Y19720D01*
X112220Y19780D02*Y19720D01*
X111000Y19780D02*Y19720D01*
X110220Y19780D02*Y19720D01*
X109000Y19780D02*Y19720D01*
X108610Y18960D02*Y18900D01*
X108220Y19780D02*Y19720D01*
X107000Y19780D02*Y19720D01*
X106610Y18960D02*Y18900D01*
X106220Y19780D02*Y19720D01*
G54D16*X113881Y8159D02*X114118D01*
X113881Y9340D02*X114118D01*
X112381Y8159D02*X112618D01*
X112381Y9340D02*X112618D01*
G54D17*X110420Y8250D02*X111080D01*
X110420Y9150D02*X111080D01*
X110420Y10060D02*X111080D01*
G54D18*X108310Y9600D02*Y8700D01*
G54D23*X105820Y11250D02*X106180D01*
X105820Y12250D02*X106180D01*
G54D20*X104000Y27050D02*Y26400D01*
Y29100D02*Y28450D01*
X103500Y27050D02*Y26400D01*
Y29100D02*Y28450D01*
X103000Y27050D02*Y26400D01*
Y29100D02*Y28450D01*
X102500Y27050D02*Y26400D01*
Y29100D02*Y28450D01*
X101500Y27050D02*Y26400D01*
X101000Y27050D02*Y26400D01*
X100500Y27050D02*Y26400D01*
X102000Y27050D02*Y26400D01*
Y29100D02*Y28450D01*
X101500Y29100D02*Y28450D01*
X101000Y29100D02*Y28450D01*
X100500Y29100D02*Y28450D01*
G54D19*X105000Y19780D02*Y19720D01*
X104610Y18960D02*Y18900D01*
X104220Y19780D02*Y19720D01*
X103000Y19780D02*Y19720D01*
X102610Y18960D02*Y18900D01*
X102220Y19780D02*Y19720D01*
X101000Y19780D02*Y19720D01*
X100610Y18960D02*Y18900D01*
X100220Y19780D02*Y19720D01*
G54D16*X99131Y27409D02*X99368D01*
X99131Y28590D02*X99368D01*
X98131Y27409D02*X98368D01*
X98131Y28590D02*X98368D01*
G54D20*X97000Y29850D02*Y29250D01*
X96500Y29850D02*Y29250D01*
X96000Y29850D02*Y29250D01*
X95500Y29850D02*Y29250D01*
X95000Y29850D02*Y29250D01*
X94500Y29850D02*Y29250D01*
X94000Y29850D02*Y29250D01*
X93500Y29850D02*Y29250D01*
X93000Y29850D02*Y29250D01*
X92500Y29850D02*Y29250D01*
X95500Y26250D02*Y25650D01*
X95000Y26250D02*Y25650D01*
X94500Y26250D02*Y25650D01*
X94000Y26250D02*Y25650D01*
X96500Y26250D02*Y25650D01*
X97000Y26250D02*Y25650D01*
X96000Y26250D02*Y25650D01*
X93000Y26250D02*Y25650D01*
X93500Y26250D02*Y25650D01*
X92500Y26250D02*Y25650D01*
G54D19*X99000Y19780D02*Y19720D01*
X98220Y19780D02*Y19720D01*
X97000Y19780D02*Y19720D01*
X96220Y19780D02*Y19720D01*
X95000Y19780D02*Y19720D01*
X98610Y18960D02*Y18900D01*
X96610Y18960D02*Y18900D01*
X94610Y18960D02*Y18900D01*
X94220Y19780D02*Y19720D01*
X93000Y19780D02*Y19720D01*
X92610Y18960D02*Y18900D01*
X92220Y19780D02*Y19720D01*
X91000Y19780D02*Y19720D01*
X90610Y18960D02*Y18900D01*
X90220Y19780D02*Y19720D01*
G54D20*X88000Y29100D02*Y28450D01*
X87500Y29100D02*Y28450D01*
Y27050D02*Y26400D01*
X88000Y27050D02*Y26400D01*
X87000Y27050D02*Y26400D01*
Y29100D02*Y28450D01*
X86500Y29100D02*Y28450D01*
X86000Y29100D02*Y28450D01*
X85500Y29100D02*Y28450D01*
X86500Y27050D02*Y26400D01*
X86000Y27050D02*Y26400D01*
X85500Y27050D02*Y26400D01*
X85000Y27050D02*Y26400D01*
X84500Y27050D02*Y26400D01*
G54D16*X83131Y27409D02*X83368D01*
X82131D02*X82368D01*
G54D20*X85000Y29100D02*Y28450D01*
X84500Y29100D02*Y28450D01*
G54D16*X83131Y28590D02*X83368D01*
X82131D02*X82368D01*
G54D20*X81000Y29850D02*Y29250D01*
X80500Y29850D02*Y29250D01*
X80000Y29850D02*Y29250D01*
X79500Y29850D02*Y29250D01*
X79000Y29850D02*Y29250D01*
X78500Y29850D02*Y29250D01*
X78000Y29850D02*Y29250D01*
X77500Y29850D02*Y29250D01*
X77000Y29850D02*Y29250D01*
X76500Y29850D02*Y29250D01*
G54D19*X89000Y19780D02*Y19720D01*
X88220Y19780D02*Y19720D01*
X87000Y19780D02*Y19720D01*
X86220Y19780D02*Y19720D01*
X83000Y19780D02*Y19720D01*
X82610Y18960D02*Y18900D01*
X82220Y19780D02*Y19720D01*
X81000Y19780D02*Y19720D01*
X80610Y18960D02*Y18900D01*
X80220Y19780D02*Y19720D01*
X79000Y19780D02*Y19720D01*
X88610Y18960D02*Y18900D01*
X84610Y18960D02*Y18900D01*
X86610Y18960D02*Y18900D01*
X78610Y18960D02*Y18900D01*
X85000Y19780D02*Y19720D01*
X84220Y19780D02*Y19720D01*
X78220Y19780D02*Y19720D01*
G54D20*X79500Y26250D02*Y25650D01*
X80000Y26250D02*Y25650D01*
X79000Y26250D02*Y25650D01*
X80500Y26250D02*Y25650D01*
X78500Y26250D02*Y25650D01*
X78000Y26250D02*Y25650D01*
X77500Y26250D02*Y25650D01*
X77000Y26250D02*Y25650D01*
X81000Y26250D02*Y25650D01*
X76500Y26250D02*Y25650D01*
G54D19*X77000Y19780D02*Y19720D01*
X76610Y18960D02*Y18900D01*
X76220Y19780D02*Y19720D01*
X75000Y19780D02*Y19720D01*
X74610Y18960D02*Y18900D01*
X74220Y19780D02*Y19720D01*
X73000Y19780D02*Y19720D01*
X72610Y18960D02*Y18900D01*
X72220Y19780D02*Y19720D01*
X70610Y18960D02*Y18900D01*
G54D20*X72000Y27050D02*Y26400D01*
X71500Y27050D02*Y26400D01*
X71000Y27050D02*Y26400D01*
X70500Y27050D02*Y26400D01*
G54D19*X71000Y19780D02*Y19720D01*
X70220Y19780D02*Y19720D01*
X69000Y19780D02*Y19720D01*
G54D20*X72000Y29100D02*Y28450D01*
X71500Y29100D02*Y28450D01*
X71000Y29100D02*Y28450D01*
X70500Y29100D02*Y28450D01*
X70000Y29100D02*Y28450D01*
X69500Y29100D02*Y28450D01*
X69000Y29100D02*Y28450D01*
X68500Y29100D02*Y28450D01*
X69000Y27050D02*Y26400D01*
X69500Y27050D02*Y26400D01*
X70000Y27050D02*Y26400D01*
X68500Y27050D02*Y26400D01*
G54D16*X81881Y8159D02*X82118D01*
X80631D02*X80868D01*
G54D17*X78420Y8250D02*X79080D01*
G54D16*X81881Y9340D02*X82118D01*
G54D17*X78420Y9150D02*X79080D01*
G54D16*X80631Y9340D02*X80868D01*
G54D17*X78420Y10060D02*X79080D01*
G54D18*X76310Y9600D02*Y8700D01*
G54D23*X73820Y11250D02*X74180D01*
X73820Y12250D02*X74180D01*
G54D19*X68610Y18960D02*Y18900D01*
X68220Y19780D02*Y19720D01*
X67000Y19780D02*Y19720D01*
X66610Y18960D02*Y18900D01*
X66220Y19780D02*Y19720D01*
X65000Y19780D02*Y19720D01*
X64610Y18960D02*Y18900D01*
X64220Y19780D02*Y19720D01*
X63000Y19780D02*Y19720D01*
X62610Y18960D02*Y18900D01*
X60610Y18960D02*Y18900D01*
X58610Y18960D02*Y18900D01*
X62220Y19780D02*Y19720D01*
X61000Y19780D02*Y19720D01*
X60220Y19780D02*Y19720D01*
X59000Y19780D02*Y19720D01*
X58220Y19780D02*Y19720D01*
X57000Y19780D02*Y19720D01*
X56220Y19780D02*Y19720D01*
X55000Y19780D02*Y19720D01*
X54220Y19780D02*Y19720D01*
X53000Y19780D02*Y19720D01*
X52220Y19780D02*Y19720D01*
X51000Y19780D02*Y19720D01*
X56610Y18960D02*Y18900D01*
X54610Y18960D02*Y18900D01*
X52610Y18960D02*Y18900D01*
X50610Y18960D02*Y18900D01*
G54D20*X65000Y29850D02*Y29250D01*
X64500Y29850D02*Y29250D01*
X64000Y29850D02*Y29250D01*
X63500Y29850D02*Y29250D01*
X63000Y29850D02*Y29250D01*
X62500Y29850D02*Y29250D01*
X62000Y29850D02*Y29250D01*
X61500Y29850D02*Y29250D01*
X61000Y29850D02*Y29250D01*
X60500Y29850D02*Y29250D01*
X63500Y26250D02*Y25650D01*
X64000Y26250D02*Y25650D01*
X63000Y26250D02*Y25650D01*
X62500Y26250D02*Y25650D01*
X62000Y26250D02*Y25650D01*
X61500Y26250D02*Y25650D01*
X61000Y26250D02*Y25650D01*
X64500Y26250D02*Y25650D01*
X60500Y26250D02*Y25650D01*
X65000Y26250D02*Y25650D01*
G54D16*X66131Y27409D02*X66368D01*
X67131Y28590D02*X67368D01*
X66131D02*X66368D01*
X67131Y27409D02*X67368D01*
G54D20*X55500Y29100D02*Y28450D01*
G54D24*X57690Y29300D02*X57810D01*
X57690Y28200D02*X57810D01*
G54D20*X56000Y29100D02*Y28450D01*
Y27050D02*Y26400D01*
X55500Y27050D02*Y26400D01*
X55000Y27050D02*Y26400D01*
Y29100D02*Y28450D01*
X54500Y29100D02*Y28450D01*
X54000Y29100D02*Y28450D01*
X53500Y29100D02*Y28450D01*
X52250Y38500D02*X52850D01*
X52250Y39000D02*X52850D01*
X52250Y39500D02*X52850D01*
X52250Y40000D02*X52850D01*
X52250Y40500D02*X52850D01*
X52250Y41000D02*X52850D01*
X52250Y41500D02*X52850D01*
X52250Y42000D02*X52850D01*
G54D16*X59090Y45118D02*Y44881D01*
X57909Y45118D02*Y44881D01*
G54D20*X52250Y42500D02*X52850D01*
G54D16*X51840Y37368D02*Y37131D01*
X50659Y37368D02*Y37131D01*
G54D20*X54500Y27050D02*Y26400D01*
X54000Y27050D02*Y26400D01*
X53500Y27050D02*Y26400D01*
X53000Y27050D02*Y26400D01*
G54D16*X55474Y30659D02*X56025D01*
X55474Y31840D02*X56025D01*
X54224Y30659D02*X54775D01*
X54224Y31840D02*X54775D01*
X52974Y30659D02*X53525D01*
X52974Y31840D02*X53525D01*
G54D20*X52500Y27050D02*Y26400D01*
G54D16*X51131Y27409D02*X51368D01*
X50131D02*X50368D01*
G54D20*X53000Y29100D02*Y28450D01*
X52500Y29100D02*Y28450D01*
G54D16*X51131Y28590D02*X51368D01*
X50131D02*X50368D01*
G54D19*X48220Y19780D02*Y19720D01*
X47000Y19780D02*Y19720D01*
X46610Y18960D02*Y18900D01*
X46220Y19780D02*Y19720D01*
X45000Y19780D02*Y19720D01*
X44610Y18960D02*Y18900D01*
X49000Y19780D02*Y19720D01*
X50220Y19780D02*Y19720D01*
X48610Y18960D02*Y18900D01*
X44220Y19780D02*Y19720D01*
G54D16*X49881Y8159D02*X50118D01*
X48631D02*X48868D01*
G54D17*X46420Y8250D02*X47080D01*
G54D16*X49881Y9340D02*X50118D01*
X48631D02*X48868D01*
G54D17*X46420Y9150D02*X47080D01*
X46420Y10060D02*X47080D01*
G54D18*X44310Y9600D02*Y8700D01*
G54D23*X41820Y11250D02*X42180D01*
X41820Y12250D02*X42180D01*
G54D19*X41000Y19780D02*Y19720D01*
X40610Y18960D02*Y18900D01*
X40220Y19780D02*Y19720D01*
X39000Y19780D02*Y19720D01*
X38610Y18960D02*Y18900D01*
X38220Y19780D02*Y19720D01*
X43000Y19780D02*Y19720D01*
X42610Y18960D02*Y18900D01*
X42220Y19780D02*Y19720D01*
X37000Y19780D02*Y19720D01*
X36610Y18960D02*Y18900D01*
X36220Y19780D02*Y19720D01*
G54D20*X48650Y38500D02*X49250D01*
X48650Y39000D02*X49250D01*
X48650Y40000D02*X49250D01*
X48650Y39500D02*X49250D01*
X48650Y40500D02*X49250D01*
X48650Y41000D02*X49250D01*
X48650Y41500D02*X49250D01*
G54D16*X48909Y44118D02*Y43881D01*
G54D20*X48650Y42000D02*X49250D01*
G54D16*X50090Y44118D02*Y43881D01*
G54D20*X48650Y42500D02*X49250D01*
G54D16*X46381Y41909D02*X46618D01*
X46381Y43090D02*X46618D01*
G54D20*X49000Y29850D02*Y29250D01*
X48500Y29850D02*Y29250D01*
X48000Y29850D02*Y29250D01*
X47500Y29850D02*Y29250D01*
X47000Y29850D02*Y29250D01*
X46500Y29850D02*Y29250D01*
X46000Y29850D02*Y29250D01*
X45500Y29850D02*Y29250D01*
X45000Y29850D02*Y29250D01*
X49000Y26250D02*Y25650D01*
X48500Y26250D02*Y25650D01*
X48000Y26250D02*Y25650D01*
X47000Y26250D02*Y25650D01*
X47500Y26250D02*Y25650D01*
X46500Y26250D02*Y25650D01*
X44500Y29850D02*Y29250D01*
X46000Y26250D02*Y25650D01*
X45500Y26250D02*Y25650D01*
X45000Y26250D02*Y25650D01*
X44500Y26250D02*Y25650D01*
X39400Y37000D02*X40050D01*
X39400Y37500D02*X40050D01*
X39400Y38000D02*X40050D01*
X41450Y34500D02*X42100D01*
X39400D02*X40050D01*
X41450Y35000D02*X42100D01*
X39400D02*X40050D01*
X41450Y35500D02*X42100D01*
X39400D02*X40050D01*
G54D16*X42090Y39118D02*Y38881D01*
X40909Y39118D02*Y38881D01*
G54D20*X41450Y36000D02*X42100D01*
X39400D02*X40050D01*
X41450Y36500D02*X42100D01*
X41450Y37000D02*X42100D01*
X41450Y37500D02*X42100D01*
X41450Y38000D02*X42100D01*
X39400Y36500D02*X40050D01*
X40000Y27050D02*Y26400D01*
Y29100D02*Y28450D01*
X39500Y27050D02*Y26400D01*
Y29100D02*Y28450D01*
X39000Y27050D02*Y26400D01*
Y29100D02*Y28450D01*
X38500Y27050D02*Y26400D01*
Y29100D02*Y28450D01*
X37000Y27050D02*Y26400D01*
X37500Y27050D02*Y26400D01*
X36500Y27050D02*Y26400D01*
X38000Y27050D02*Y26400D01*
Y29100D02*Y28450D01*
X37500Y29100D02*Y28450D01*
X37000Y29100D02*Y28450D01*
X36500Y29100D02*Y28450D01*
X31700Y32250D02*X32350D01*
X31700Y32750D02*X32350D01*
X31700Y33250D02*X32350D01*
X31700Y33750D02*X32350D01*
X31700Y34250D02*X32350D01*
X31700Y34750D02*X32350D01*
X31700Y35250D02*X32350D01*
X29650Y32750D02*X30300D01*
X29650Y33250D02*X30300D01*
X29650Y32250D02*X30300D01*
X29650Y33750D02*X30300D01*
X29650Y34250D02*X30300D01*
X29650Y34750D02*X30300D01*
X29650Y35250D02*X30300D01*
G54D16*X35131Y27409D02*X35368D01*
X35131Y28590D02*X35368D01*
X34131Y27409D02*X34368D01*
X34131Y28590D02*X34368D01*
G54D20*X33000Y29850D02*Y29250D01*
X32500Y29850D02*Y29250D01*
X32000Y29850D02*Y29250D01*
G54D19*X35000Y19780D02*Y19720D01*
X34610Y18960D02*Y18900D01*
X34220Y19780D02*Y19720D01*
X33000Y19780D02*Y19720D01*
X32610Y18960D02*Y18900D01*
X32220Y19780D02*Y19720D01*
X31000Y19780D02*Y19720D01*
X30610Y18960D02*Y18900D01*
X30220Y19780D02*Y19720D01*
X29000Y19780D02*Y19720D01*
G54D20*X31500Y29850D02*Y29250D01*
X31000Y29850D02*Y29250D01*
X30500Y29850D02*Y29250D01*
X30000Y29850D02*Y29250D01*
X29500Y29850D02*Y29250D01*
X29000Y29850D02*Y29250D01*
X28500Y29850D02*Y29250D01*
X31500Y26250D02*Y25650D01*
X31000Y26250D02*Y25650D01*
X30500Y26250D02*Y25650D01*
X30000Y26250D02*Y25650D01*
X32500Y26250D02*Y25650D01*
X33000Y26250D02*Y25650D01*
X32000Y26250D02*Y25650D01*
X29000Y26250D02*Y25650D01*
X29500Y26250D02*Y25650D01*
X28500Y26250D02*Y25650D01*
G54D19*X28610Y18960D02*Y18900D01*
X28220Y19780D02*Y19720D01*
X27000Y19780D02*Y19720D01*
X26610Y18960D02*Y18900D01*
X26220Y19780D02*Y19720D01*
X25000Y19780D02*Y19720D01*
X24610Y18960D02*Y18900D01*
X24220Y19780D02*Y19720D01*
X23000Y19780D02*Y19720D01*
X22610Y18960D02*Y18900D01*
X22220Y19780D02*Y19720D01*
X21000Y19780D02*Y19720D01*
X20610Y18960D02*Y18900D01*
X20220Y19780D02*Y19720D01*
X19000Y19780D02*Y19720D01*
X18610Y18960D02*Y18900D01*
X18220Y19780D02*Y19720D01*
X17000Y19780D02*Y19720D01*
X16610Y18960D02*Y18900D01*
X16220Y19780D02*Y19720D01*
X15000Y19780D02*Y19720D01*
X14610Y18960D02*Y18900D01*
G54D17*X14420Y10060D02*X15080D01*
G54D16*X16631Y8159D02*X16868D01*
X17881D02*X18118D01*
G54D17*X14420Y8250D02*X15080D01*
G54D16*X16631Y9340D02*X16868D01*
X17881D02*X18118D01*
G54D17*X14420Y9150D02*X15080D01*
G54D19*X14220Y19780D02*Y19720D01*
X13000Y19780D02*Y19720D01*
X12610Y18960D02*Y18900D01*
X12220Y19780D02*Y19720D01*
G54D18*X12310Y9600D02*Y8700D01*
G54D23*X9820Y11250D02*X10180D01*
X9820Y12250D02*X10180D01*
G54D20*X23000Y27050D02*Y26400D01*
Y29100D02*Y28450D01*
X21000Y27050D02*Y26400D01*
X21500Y27050D02*Y26400D01*
X22000Y27050D02*Y26400D01*
X20500Y27050D02*Y26400D01*
X22500Y27050D02*Y26400D01*
Y29100D02*Y28450D01*
X22000Y29100D02*Y28450D01*
X21500Y29100D02*Y28450D01*
X21000Y29100D02*Y28450D01*
X20500Y29100D02*Y28450D01*
G54D16*X19131Y27409D02*X19368D01*
X19131Y28590D02*X19368D01*
X18131D02*X18368D01*
X18131Y27409D02*X18368D01*
G54D20*X17000Y26250D02*Y25650D01*
G54D16*X27840Y31368D02*Y31131D01*
X26659Y31368D02*Y31131D01*
G54D20*X24000Y27050D02*Y26400D01*
Y29100D02*Y28450D01*
X23500Y27050D02*Y26400D01*
Y29100D02*Y28450D01*
X17000Y29850D02*Y29250D01*
X16500Y29850D02*Y29250D01*
X16000Y29850D02*Y29250D01*
X15700Y32250D02*X16350D01*
X15500Y29850D02*Y29250D01*
X15000Y29850D02*Y29250D01*
X14500Y29850D02*Y29250D01*
X15000Y26250D02*Y25650D01*
X15500Y26250D02*Y25650D01*
X14500Y26250D02*Y25650D01*
X14000Y26250D02*Y25650D01*
X16000Y26250D02*Y25650D01*
X16500Y26250D02*Y25650D01*
X14000Y29850D02*Y29250D01*
X13500Y26250D02*Y25650D01*
Y29850D02*Y29250D01*
X13000Y26250D02*Y25650D01*
Y29850D02*Y29250D01*
X12500Y26250D02*Y25650D01*
Y29850D02*Y29250D01*
X15700Y32750D02*X16350D01*
X15700Y33250D02*X16350D01*
X15700Y33750D02*X16350D01*
X15700Y34250D02*X16350D01*
X13650Y33750D02*X14300D01*
X13650Y34250D02*X14300D01*
X15700Y34750D02*X16350D01*
X15700Y35250D02*X16350D01*
X13650Y34750D02*X14300D01*
X13650Y35250D02*X14300D01*
X13650Y32250D02*X14300D01*
X13650Y32750D02*X14300D01*
X13650Y33250D02*X14300D01*
G54D16*X12090Y31368D02*Y31131D01*
X10909Y31368D02*Y31131D01*
X9090Y41618D02*Y41381D01*
X7909Y41618D02*Y41381D01*
M02*
