G04 start of page 5 for group -4062 idx -4062
G04 Title: (unknown), soldermask *
G04 Creator: pcb-bin 20060822 *
G04 CreationDate: Mon Jun 23 06:34:48 2008 UTC *
G04 For: pete *
G04 Format: Gerber/RS-274X *
G04 PCB-Dimensions: 1500000 500000 *
G04 PCB-Coordinate-Origin: lower left *
%MOIN*%
%FSLAX24Y24*%
%LNBACKMASK*%
%ADD11R,0.0810X0.0810*%
%ADD12C,0.0560*%
%ADD13R,0.0560X0.0560*%
%ADD14R,0.0660X0.0660*%
%ADD15C,0.0660*%
G54D11*%LNBACKMASK_D1*%
%LPD*%
X143500Y15000D03*
X142500Y16000D03*
G54D12*X138000Y14250D03*
Y15250D03*
Y16250D03*
G54D13*Y17250D03*
G54D12*X136000Y14250D03*
Y15250D03*
Y16250D03*
G54D13*Y17250D03*
G54D14*Y9750D03*
G54D12*X134000Y14250D03*
G54D15*X137000Y9750D03*
G54D12*X134000Y15250D03*
Y16250D03*
G54D13*Y17250D03*
G54D11*X139000Y26750D03*
X137000Y30500D03*
X136000D03*
Y31500D03*
X135000D03*
Y32500D03*
X134000Y33500D03*
X133000D03*
Y34500D03*
X134000Y32500D03*
X132000Y34500D03*
G54D12*Y14250D03*
Y15250D03*
Y16250D03*
G54D13*Y17250D03*
G54D12*X130000Y14250D03*
Y15250D03*
Y16250D03*
G54D13*Y17250D03*
G54D12*X128000Y14250D03*
Y15250D03*
Y16250D03*
G54D13*Y17250D03*
G54D12*X126000Y14250D03*
Y15250D03*
Y16250D03*
G54D13*Y17250D03*
G54D12*X124000Y15250D03*
Y16250D03*
G54D13*Y17250D03*
G54D12*X122000Y15250D03*
Y16250D03*
G54D13*Y17250D03*
G54D12*X120000Y15250D03*
Y16250D03*
G54D13*Y17250D03*
G54D12*X124000Y14250D03*
X122000D03*
X120000D03*
X118000D03*
Y15250D03*
Y16250D03*
G54D13*Y17250D03*
G54D12*X116000Y16250D03*
G54D13*Y17250D03*
G54D12*X114000Y15250D03*
Y16250D03*
X112000Y14250D03*
G54D13*X114000Y17250D03*
G54D12*X112000Y15250D03*
Y16250D03*
G54D13*Y17250D03*
G54D12*X116000Y14250D03*
X110000D03*
X106000D03*
X104000D03*
X102000D03*
X116000Y15250D03*
X110000D03*
X104000D03*
X102000D03*
X108000Y14250D03*
Y15250D03*
Y16250D03*
G54D13*Y17250D03*
G54D12*X106000Y15250D03*
Y16250D03*
G54D13*Y17250D03*
G54D12*X104000Y16250D03*
G54D13*Y17250D03*
G54D12*X102000Y16250D03*
G54D13*Y17250D03*
G54D12*X100000Y16250D03*
G54D13*Y17250D03*
G54D12*Y14250D03*
X98000D03*
X100000Y15250D03*
X98000D03*
Y16250D03*
G54D13*Y17250D03*
G54D12*X110000Y16250D03*
G54D13*Y17250D03*
G54D11*X123750Y24000D03*
X107750D03*
X91750D03*
G54D12*X96000Y14250D03*
Y15250D03*
Y16250D03*
G54D13*Y17250D03*
G54D12*X94000Y14250D03*
Y15250D03*
Y16250D03*
G54D13*Y17250D03*
G54D12*X92000Y16250D03*
G54D13*Y17250D03*
G54D11*X106250Y6750D03*
G54D12*X114000Y14250D03*
X92000D03*
X90000D03*
X88000D03*
X92000Y15250D03*
X90000D03*
Y16250D03*
G54D13*Y17250D03*
G54D12*X88000Y15250D03*
Y16250D03*
G54D13*Y17250D03*
G54D12*X86000Y14250D03*
Y15250D03*
Y16250D03*
G54D13*Y17250D03*
G54D12*X84000Y14250D03*
Y15250D03*
Y16250D03*
G54D13*Y17250D03*
G54D12*X82000Y15250D03*
Y16250D03*
G54D13*Y17250D03*
G54D12*Y14250D03*
X80000D03*
Y15250D03*
Y16250D03*
G54D13*Y17250D03*
G54D12*X78000Y14250D03*
X76000D03*
X78000Y15250D03*
Y16250D03*
G54D13*Y17250D03*
G54D12*X76000Y15250D03*
Y16250D03*
G54D13*Y17250D03*
G54D12*X74000Y16250D03*
G54D13*Y17250D03*
G54D11*X74250Y6750D03*
G54D12*X74000Y15250D03*
X72000D03*
Y16250D03*
G54D13*Y17250D03*
G54D12*X74000Y14250D03*
X72000D03*
X70000D03*
Y15250D03*
Y16250D03*
G54D13*Y17250D03*
G54D12*X66000Y14250D03*
Y15250D03*
Y16250D03*
G54D13*Y17250D03*
G54D12*X68000Y14250D03*
X64000D03*
X68000Y15250D03*
X64000D03*
X68000Y16250D03*
X64000D03*
G54D13*X68000Y17250D03*
X64000D03*
G54D12*X62000Y14250D03*
Y15250D03*
X60000Y14250D03*
Y15250D03*
X62000Y16250D03*
X60000D03*
X58000D03*
X56000D03*
G54D13*X62000Y17250D03*
X60000D03*
X58000D03*
X56000D03*
G54D12*X58000Y14250D03*
Y15250D03*
X56000Y14250D03*
X54000D03*
X56000Y15250D03*
X54000D03*
G54D13*Y17250D03*
X48000D03*
X46000D03*
G54D12*X52000Y15250D03*
Y16250D03*
G54D13*Y17250D03*
G54D12*Y14250D03*
X50000D03*
Y15250D03*
Y16250D03*
G54D13*Y17250D03*
G54D12*X48000Y14250D03*
Y15250D03*
X54000Y16250D03*
X48000D03*
X46000D03*
G54D11*X42250Y6750D03*
G54D15*X59000Y38000D03*
G54D11*X59750Y24000D03*
G54D15*X59000Y39000D03*
G54D11*X75750Y24000D03*
G54D15*X59000Y40000D03*
X58750Y43750D03*
X57750D03*
X59750D03*
X56750D03*
X55750D03*
G54D14*X54750D03*
G54D11*X51250Y45750D03*
G54D15*X59000Y41000D03*
G54D11*X46500D03*
G54D15*X56000Y38000D03*
Y39000D03*
Y40000D03*
G54D14*Y41000D03*
G54D11*X43750Y24000D03*
X43000Y34000D03*
X39000Y41750D03*
X37500Y37000D03*
Y38000D03*
X38500Y33500D03*
X37500Y39000D03*
X34500Y33250D03*
Y34250D03*
Y32250D03*
Y35250D03*
G54D15*X33750Y39250D03*
Y41250D03*
X29750Y40250D03*
G54D11*X27250Y32250D03*
Y33250D03*
Y34250D03*
Y35250D03*
Y36250D03*
X18500Y33250D03*
Y32250D03*
Y34250D03*
Y35250D03*
G54D12*X16750Y38500D03*
Y41500D03*
G54D11*X11500Y32250D03*
Y33250D03*
Y35250D03*
X11250Y23500D03*
X11500Y34250D03*
X11250Y24500D03*
G54D12*X10750Y38500D03*
Y41500D03*
X44000Y16250D03*
G54D13*Y17250D03*
G54D12*X46000Y14250D03*
Y15250D03*
X44000Y14250D03*
Y15250D03*
X42000Y16250D03*
G54D13*Y17250D03*
G54D12*X40000Y16250D03*
G54D13*Y17250D03*
G54D12*X42000Y14250D03*
Y15250D03*
X40000Y14250D03*
Y15250D03*
X38000D03*
Y16250D03*
G54D13*Y17250D03*
G54D12*Y14250D03*
X36000D03*
Y15250D03*
Y16250D03*
G54D13*Y17250D03*
G54D12*X34000Y14250D03*
Y15250D03*
Y16250D03*
G54D13*Y17250D03*
G54D12*X32000Y14250D03*
Y15250D03*
Y16250D03*
G54D13*Y17250D03*
G54D12*X30000Y14250D03*
Y15250D03*
Y16250D03*
X28000Y14250D03*
G54D13*X30000Y17250D03*
G54D12*X28000Y15250D03*
Y16250D03*
G54D13*Y17250D03*
G54D12*X26000Y14250D03*
Y15250D03*
Y16250D03*
G54D13*Y17250D03*
G54D12*X24000Y14250D03*
X22000D03*
X20000D03*
X18000D03*
X24000Y15250D03*
X22000D03*
X20000D03*
X18000D03*
X16000D03*
X14000D03*
X24000Y16250D03*
X22000D03*
X20000D03*
X18000D03*
X16000D03*
X14000D03*
G54D13*X24000Y17250D03*
X22000D03*
X20000D03*
X18000D03*
X16000D03*
X14000D03*
G54D12*X12000Y15250D03*
Y16250D03*
G54D13*Y17250D03*
G54D12*X16000Y14250D03*
X14000D03*
X12000D03*
G54D11*X10250Y6750D03*
M02*
